<svg width="36" height="36" viewBox="0 0 36 36" fill="none" xmlns="http://www.w3.org/2000/svg">
<path d="M17.8684 0.5C8.17103 0.5 0.236816 8.375 0.236816 18C0.236816 27.625 8.17103 35.5 17.8684 35.5C27.5658 35.5 35.5 27.625 35.5 18C35.5 8.375 27.5658 0.5 17.8684 0.5ZM17.8684 5.75C20.8658 5.75 23.1579 8.025 23.1579 11C23.1579 13.975 20.8658 16.25 17.8684 16.25C14.871 16.25 12.5789 13.975 12.5789 11C12.5789 8.025 14.871 5.75 17.8684 5.75ZM17.8684 30.6C13.4605 30.6 9.58155 28.3251 7.28945 25C7.28945 21.5 14.3421 19.575 17.8684 19.575C21.3947 19.575 28.4473 21.5 28.4473 25C26.1552 28.325 22.2763 30.6 17.8684 30.6Z" fill="#BDBDBD"/>
</svg>
