<?xml version="1.0"?>
<svg xmlns="http://www.w3.org/2000/svg" height="512px" viewBox="0 0 494 494" width="512px" class=""><g><path d="m205.988281 117.152344c-5.191406 0-9.398437 4.210937-9.398437 9.402344 0 5.191406 4.207031 9.398437 9.398437 9.398437 5.191407 0 9.398438-4.207031 9.398438-9.398437-.007813-5.1875-4.210938-9.394532-9.398438-9.402344zm0 12c-1.4375 0-2.601562-1.164063-2.601562-2.597656 0-1.4375 1.164062-2.601563 2.601562-2.601563s2.601563 1.164063 2.601563 2.601563c0 1.433593-1.164063 2.597656-2.601563 2.597656zm0 0" data-original="#000000" class="active-path" data-old_color="#fbc531" fill="#fbc531"/><path d="m253.550781 119.640625h-8.839843c-2.960938-19.09375-19.398438-33.183594-38.722657-33.183594s-35.761719 14.089844-38.722656 33.183594h-8.777344c-3.3125 0-6 2.6875-6 6s2.6875 6 6 6h8.777344c2.960937 19.097656 19.398437 33.183594 38.722656 33.183594s35.761719-14.085938 38.722657-33.183594h8.839843c3.3125 0 6-2.6875 6-6s-2.6875-6-6-6zm-47.5625 33.183594c-15.011719 0-27.183593-12.171875-27.183593-27.183594 0-15.015625 12.171874-27.183594 27.183593-27.183594s27.183594 12.171875 27.183594 27.183594c-.019531 15.007813-12.179687 27.164063-27.183594 27.183594zm0 0" data-original="#000000" class="active-path" data-old_color="#fbc531" fill="#fbc531"/><path d="m378 262c-8.960938 0-17.890625 1.035156-26.613281 3.082031v-53.804687c7.191406 4.65625 16.375 4.945312 23.847656.742187 7.46875-4.199219 11.996094-12.191406 11.757813-20.757812-.113282-3.910157-1.242188-7.71875-3.277344-11.054688h22.285156c3.3125 0 6-2.6875 6-6v-33.027343c0-2.386719-1.417969-4.546876-3.609375-5.5l-196.390625-85.363282v-9.078125l35.515625-.308593c2.269531-.023438 4.335937-1.320313 5.335937-3.359376 1-2.039062.761719-4.46875-.613281-6.277343l-7.664062-10.066407 7.890625-11.914062c1.21875-1.839844 1.328125-4.203125.285156-6.152344-1.046875-1.945312-3.074219-3.160156-5.285156-3.160156h-41.464844c-3.3125 0-6 2.6875-6 6v44.316406l-196.390625 85.359375c-2.191406.953125-3.609375 3.113281-3.609375 5.503907v33.027343c0 3.3125 2.6875 6 6 6h22.179688c-4.0625 6.914063-4.242188 15.4375-.484376 22.519531 3.761719 7.082032 10.925782 11.703126 18.925782 12.214844.496094.03125.992187.046875 1.484375.046875 3.871093.003907 7.675781-.976562 11.0625-2.847656v122.167969h-5.390625c-2.273438 0-4.347656 1.285156-5.367188 3.316406l-5.691406 11.390625c-.417969.832031-.632812 1.75-.632812 2.683594v5.386719h-24.976563c-3.3125 0-6 2.6875-6 6v49.136718c0 3.3125 2.6875 6 6 6h252.085937c20.382813 55.132813 78.78125 86.308594 135.929688 72.558594 57.152344-13.746094 94.984375-68.066406 88.066406-126.441406-6.921875-58.371094-56.410156-102.339844-115.191406-102.339844zm-166-250h24.289062l-4.074218 6.148438c-1.410156 2.128906-1.320313 4.917968.226562 6.949218l3 3.933594-23.4375.203125zm159.859375 187.632812c-3.144531 3.230469-7.933594 4.234376-12.113281 2.539063-4.179688-1.699219-6.914063-5.757813-6.914063-10.269531 0-3.3125-2.683593-6-6-6h-28.886719c-3.3125 0-6 2.6875-6 6 0 3.066406-1.269531 5.992187-3.503906 8.085937-2.234375 2.097657-5.238281 3.171875-8.296875 2.976563-5.535156-.410156-9.933593-4.808594-10.34375-10.34375-.199219-3.058594.878907-6.0625 2.972657-8.296875 2.097656-2.234375 5.023437-3.503907 8.085937-3.503907h62.703125c6.082031-.058593 11.128906 4.691407 11.4375 10.769532.09375 2.996094-1.039062 5.898437-3.140625 8.042968zm-32.472656-1.734374v70.691406c-5.304688 1.867187-10.46875 4.125-15.441407 6.75v-77.441406zm-327.386719-29.691407v-23.09375l194-84.320312 194 84.320312v23.09375zm103.058594 180.808594-5.703125-11.390625c-1.011719-2.027344-3.085938-3.3125-5.355469-3.316406h-5.390625v-123.03125c7.195313 4.65625 16.378906 4.945312 23.851563.746094 7.46875-4.203126 11.996093-12.195313 11.757812-20.761719-.113281-3.910157-1.242188-7.71875-3.277344-11.054688h23.628906c-4.058593 6.914063-4.242187 15.4375-.480468 22.519531 3.757812 7.078126 10.921875 11.703126 18.925781 12.214844.496094.03125.992187.046875 1.484375.046875 3.867188.003907 7.675781-.976562 11.058594-2.847656v122.167969h-5.386719c-2.273437 0-4.351563 1.285156-5.367187 3.316406l-5.695313 11.390625c-.414063.832031-.632813 1.75-.632813 2.683594v5.386719h-52.785156v-5.386719c0-.929688-.21875-1.851563-.632812-2.683594zm65.414062 4.097656 3.398438-6.796875h42.800781l3.402344 6.796875v3.976563h-49.601563zm17.082032-18.796875v-136.417968h15.445312v136.410156zm22.890624-148.417968h-28.890624c-3.3125 0-6 2.6875-6 6 0 3.066406-1.265626 5.992187-3.503907 8.089843-2.234375 2.09375-5.238281 3.171875-8.292969 2.972657-5.535156-.410157-9.9375-4.808594-10.34375-10.34375-.199218-3.058594.878907-6.058594 2.972657-8.296876 2.097656-2.234374 5.023437-3.503906 8.089843-3.503906h62.699219c6.082031-.054687 11.125 4.695313 11.433594 10.769532.105469 3.992187-1.941406 7.730468-5.363281 9.792968-3.417969 2.058594-7.683594 2.121094-11.160156.15625-3.480469-1.960937-5.632813-5.640625-5.640626-9.632812.003907-3.316406-2.6875-6.003906-6-6.003906zm-164.773437 14.082031c-2.234375 2.109375-5.242187 3.191406-8.308594 2.984375-5.53125-.410156-9.933593-4.808594-10.339843-10.34375-.199219-3.058594.878906-6.0625 2.972656-8.296875 2.097656-2.234375 5.023437-3.503907 8.089844-3.503907h62.699218c6.082032-.058593 11.125 4.695313 11.433594 10.769532.121094 4-1.925781 7.753906-5.351562 9.820312-3.425782 2.070313-7.699219 2.128906-11.183594.160156s-5.632813-5.664062-5.628906-9.667968c0-3.3125-2.683594-6-6-6h-28.886719c-3.316407 0-6 2.6875-6 6 .011719 3.0625-1.253907 5.992187-3.496094 8.078125zm30.933594-2.082031v136.410156h-15.4375v-136.410156zm-32.519531 155.214843 3.398437-6.800781h42.800781l3.398438 6.800781v3.972657h-49.597656zm-30.976563 15.972657h239.246094c-.226563 2.953124-.355469 5.925781-.355469 8.914062 0 1.222656.023438 2.441406.0625 3.65625h-238.953125zm0 37.136718v-12.566406h239.953125c.570312 4.230469 1.378906 8.425781 2.417969 12.566406zm240.789063-49.136718h-21.820313v-5.386719c0-.929688-.214844-1.847657-.632813-2.683594l-5.691406-11.386719c-1.019531-2.03125-3.09375-3.316406-5.367187-3.316406h-5.386719v-123.035156c7.195312 4.652344 16.375 4.9375 23.84375.738281s11.996094-12.191406 11.757812-20.753906c-.113281-3.910157-1.242187-7.71875-3.277343-11.054688h23.628906c-4.0625 6.914063-4.242187 15.4375-.480469 22.519531 3.757813 7.082032 10.925782 11.707032 18.925782 12.214844.5.03125.996093.046875 1.488281.046875 3.867187.003907 7.671875-.976562 11.058593-2.847656v70.507813c-25.234374 17.476562-42.511718 44.246093-48.046874 74.4375zm114.101562 124.914062c-57.4375 0-104-46.5625-104-104s46.5625-104 104-104 104 46.5625 104 104c-.066406 57.410156-46.589844 103.933594-104 104zm0 0" data-original="#000000" class="active-path" data-old_color="#fbc531" fill="#fbc531"/><path d="m381.53125 304.878906c-2.105469-1.53125-4.957031-1.53125-7.0625 0l-69.675781 50.726563c-2.101563 1.527343-2.980469 4.234375-2.175781 6.707031.804687 2.472656 3.109374 4.144531 5.707031 4.144531h14.40625v79.8125c0 3.316407 2.6875 6 6 6h98.539062c3.3125 0 6-2.683593 6-6v-79.8125h14.40625c2.597657 0 4.902344-1.671875 5.707031-4.144531.804688-2.472656-.074218-5.179688-2.175781-6.707031zm45.738281 49.578125c-3.316406 0-6 2.683594-6 6v79.8125h-86.539062v-79.8125c0-3.316406-2.683594-6-6-6h-1.96875l51.238281-37.304687 51.238281 37.304687zm0 0" data-original="#000000" class="active-path" data-old_color="#fbc531" fill="#fbc531"/></g> </svg>
