<svg xmlns="http://www.w3.org/2000/svg" width="61" height="55" viewBox="0 0 61 55"><g><g><path fill="#20a62c" d="M55.167 6.565h-50a1 1 0 1 1 0-2h50a1 1 0 1 1 0 2z"/></g><g><path fill="#20a62c" d="M30.167 54.565a1 1 0 0 1-1-1v-52a1 1 0 1 1 2 0v52a1 1 0 0 1-1 1z"/></g><g><path fill="#20a62c" d="M38.166 28.565a1 1 0 0 1 1-1h20a1 1 0 0 1 1 1c0 6.065-4.934 11-11 11-6.065 0-11-4.935-11-11zm2.056 1c.5 4.494 4.32 8 8.944 8 4.625 0 8.446-3.506 8.945-8z"/></g><g><path fill="#20a62c" d="M41.601 29.565a.998.998 0 0 1-.945-1.326l7.565-22a1 1 0 0 1 1.891 0l7.566 22a1 1 0 1 1-1.89.651L49.165 9.64l-6.62 19.25a1 1 0 0 1-.945.675z"/></g><g><path fill="#20a62c" d="M.166 28.565a1 1 0 0 1 1-1h20a1 1 0 0 1 1 1c0 6.065-4.934 11-11 11-6.065 0-11-4.935-11-11zm2.056 1c.5 4.494 4.32 8 8.944 8 4.625 0 8.446-3.506 8.945-8z"/></g><g><path fill="#20a62c" d="M3.601 29.565a1 1 0 0 1-.945-1.326l7.565-22a1 1 0 0 1 1.891 0l7.566 22a1 1 0 1 1-1.89.651L11.165 9.64l-6.62 19.25a1 1 0 0 1-.945.675z"/></g><g><path fill="#20a62c" d="M40.167 54.565h-20a1 1 0 1 1 0-2h20a1 1 0 1 1 0 2z"/></g></g></svg>