<svg id="Layer_1" xmlns="http://www.w3.org/2000/svg" xmlns:xlink="http://www.w3.org/1999/xlink" viewBox="0 0 120 92" enable-background="new 0 0 120 92"><style>.st0{fill-rule:evenodd;clip-rule:evenodd;fill:#D0D0D0;} .st1{fill-rule:evenodd;clip-rule:evenodd;fill:#E74C3C;}</style><defs><path id="SVGID_1_" d="M-660-130H780v1317H-660z"/></defs><clipPath id="SVGID_2_"><use xlink:href="#SVGID_1_" overflow="visible"/></clipPath><defs><path id="SVGID_3_" d="M-559.2-120.6h1440v1317h-1440z"/></defs><clipPath id="SVGID_4_"><use xlink:href="#SVGID_3_" overflow="visible"/></clipPath><g><path class="st0" d="M52 86h16V74H52v12zM6 68h108V6H6v62zM0 0v74h46v12H28v6h64v-6H74V74h46V0H0z"/><path class="st1" d="M60.5 15C48 15 38 25 38 37.5S48 60 60.5 60 83 50 83 37.5 73 15 60.5 15M44 37.5c0-9 7.4-16.5 16.5-16.5 3.5 0 6.7 1 9.3 3l-23 22.8C45.2 44.2 44 41 44 37.5M60.5 54c-3.5 0-6.7-1-9.3-3l23-22.8c1.7 2.7 2.8 6 2.8 9.3 0 9-7.4 16.5-16.5 16.5"/></g></svg>