<svg width="51" height="50" viewBox="0 0 51 50" fill="none" xmlns="http://www.w3.org/2000/svg">
<g clip-path="url(#clip0)">
<path d="M25.2944 49.9999C39.1015 49.9999 50.2943 38.807 50.2943 25C50.2943 11.1929 39.1015 0 25.2944 0C11.4873 0 0.294434 11.1929 0.294434 25C0.294434 38.807 11.4873 49.9999 25.2944 49.9999Z" fill="#F7B239"/>
<path d="M12.1589 38.1339C3.16572 29.1405 2.45704 15.0002 10.0324 5.19531C9.19325 5.84354 8.38584 6.55222 7.61613 7.32194C-2.14678 17.0849 -2.14678 32.9138 7.61613 42.6766C17.379 52.4394 33.208 52.4395 42.9708 42.6766C43.7404 41.907 44.4491 41.0995 45.0974 40.2603C35.2926 47.8358 21.1523 47.1271 12.1589 38.1339Z" fill="#E09B2D"/>
<path d="M29.4949 34.4295H20.8458C20.3339 34.4295 19.9192 34.0146 19.9192 33.5028C19.9192 32.9911 20.3339 32.5762 20.8458 32.5762H29.495C30.0069 32.5762 30.4216 32.991 30.4216 33.5028C30.4215 34.0146 30.0067 34.4295 29.4949 34.4295Z" fill="#E09B2D"/>
<path d="M36.9692 29.1172H13.3715C12.8596 29.1172 12.4448 29.532 12.4448 30.0438C12.4448 30.5555 12.8596 30.9705 13.3715 30.9705H36.9692C37.4811 30.9705 37.8958 30.5556 37.8958 30.0438C37.8957 29.532 37.4809 29.1172 36.9692 29.1172Z" fill="#4D4D4D"/>
<path d="M17.6555 22.0455C17.6555 20.1551 16.1176 18.6172 14.2272 18.6172C12.3368 18.6172 10.7988 20.1551 10.7988 22.0455C10.7988 23.9359 12.3368 25.4739 14.2272 25.4739C16.1176 25.4739 17.6555 23.9359 17.6555 22.0455Z" fill="#4D4D4D"/>
<path d="M36.3607 18.6172C34.4703 18.6172 32.9324 20.1551 32.9324 22.0455C32.9324 23.9359 34.4703 25.4739 36.3607 25.4739C38.2511 25.4739 39.7891 23.9359 39.7891 22.0455C39.7891 20.1551 38.2511 18.6172 36.3607 18.6172Z" fill="#4D4D4D"/>
</g>
<defs>
<clipPath id="clip0">
<rect width="50" height="50" fill="white" transform="translate(0.294434)"/>
</clipPath>
</defs>
</svg>
