<svg width="43" height="43" viewBox="0 0 43 43" fill="none" xmlns="http://www.w3.org/2000/svg">
<g clip-path="url(#clip0)">
<path d="M21.3983 0.939453C9.91266 0.939453 0.568359 10.2838 0.568359 21.7694C0.568359 33.2552 9.91266 42.5995 21.3983 42.5995C32.8841 42.5995 42.2284 33.2552 42.2284 21.7694C42.2284 10.2838 32.8841 0.939453 21.3983 0.939453ZM21.3983 41.1106C10.7337 41.1106 2.0573 32.4342 2.0573 21.7694C2.0573 11.1048 10.7337 2.42839 21.3983 2.42839C32.0631 2.42839 40.7395 11.1048 40.7395 21.7694C40.7395 32.4341 32.0631 41.1106 21.3983 41.1106Z" fill="#A6A6A6"/>
<path d="M34.2575 11.6212C33.5301 10.8937 32.563 10.4932 31.5343 10.4932C30.7375 10.4932 29.9775 10.7334 29.3375 11.18C28.6974 10.7335 27.9375 10.4932 27.1406 10.4932C26.1119 10.4932 25.1447 10.8938 24.4173 11.6212C23.6899 12.3486 23.2893 13.3157 23.2893 14.3444C23.2893 15.3732 23.69 16.3403 24.4173 17.0677L28.811 21.4614C28.9563 21.6068 29.1469 21.6795 29.3373 21.6795C29.5278 21.6795 29.7184 21.6068 29.8637 21.4614L34.2574 17.0677C35.7591 15.566 35.7591 13.1227 34.2575 11.6212ZM33.2047 16.0149L29.3373 19.8822L25.47 16.0149C25.0238 15.5687 24.7781 14.9755 24.7781 14.3445C24.7781 13.7135 25.0239 13.1203 25.47 12.6741C25.9163 12.2279 26.5094 11.9823 27.1404 11.9823C27.7714 11.9823 28.3646 12.2281 28.8109 12.6742C28.9505 12.8138 29.1399 12.8923 29.3373 12.8923C29.5347 12.8923 29.7241 12.8138 29.8636 12.6742C30.3098 12.228 30.903 11.9823 31.534 11.9823C32.165 11.9823 32.7583 12.2282 33.2045 12.6742C34.1257 13.5951 34.1257 15.0937 33.2047 16.0149Z" fill="#A6A6A6"/>
<path d="M18.3797 11.6212C17.6523 10.8937 16.6852 10.4932 15.6565 10.4932C14.8595 10.4932 14.0997 10.7334 13.4595 11.18C12.8194 10.7335 12.0595 10.4932 11.2628 10.4932C10.2341 10.4932 9.26692 10.8938 8.53949 11.6212C7.03794 13.1228 7.03794 15.5661 8.53949 17.0677L12.9332 21.4614C13.0785 21.6068 13.269 21.6795 13.4595 21.6795C13.65 21.6795 13.8406 21.6068 13.9859 21.4614L18.3797 17.0677C19.8813 15.5661 19.8813 13.1228 18.3797 11.6212ZM17.3268 16.015L13.4595 19.8823L9.59223 16.015C8.67115 15.0938 8.67115 13.5951 9.59223 12.6741C10.0384 12.2278 10.6316 11.9822 11.2626 11.9822C11.8936 11.9822 12.4868 12.228 12.933 12.6741C13.0726 12.8136 13.262 12.8921 13.4595 12.8921C13.6569 12.8921 13.8464 12.8137 13.9859 12.6741C14.4321 12.2278 15.0253 11.9822 15.6563 11.9822C16.2873 11.9822 16.8805 12.228 17.3268 12.6741C18.2479 13.5951 18.2479 15.0938 17.3268 16.015Z" fill="#A6A6A6"/>
<path d="M31.5232 23.1123H11.2736C10.8624 23.1123 10.5291 23.4457 10.5291 23.8568C10.5291 25.0498 10.7216 26.2235 11.1014 27.3455C11.8283 29.4922 13.1878 31.3324 15.0326 32.6669C16.8928 34.0141 19.094 34.7263 21.3983 34.7263C23.7027 34.7263 25.9039 34.0141 27.7637 32.6673C29.6088 31.3325 30.9684 29.4923 31.6953 27.3457V27.3456C32.075 26.2237 32.2676 25.0499 32.2676 23.857C32.2677 23.4457 31.9344 23.1123 31.5232 23.1123ZM21.3984 33.2372C19.6636 33.2372 17.9971 32.7695 16.5345 31.8787C17.1568 31.2106 18.0397 30.8141 18.9694 30.8141C19.6912 30.8141 20.3773 31.0411 20.9536 31.4707C21.2175 31.6673 21.5793 31.6674 21.8433 31.4707C22.4195 31.0411 23.1053 30.8141 23.8263 30.8141C24.7556 30.8141 25.6387 31.2105 26.2618 31.8788C24.7996 32.7695 23.133 33.2372 21.3984 33.2372ZM27.4746 31.0031C26.5684 29.9534 25.2342 29.3252 23.8263 29.3252C22.9619 29.3252 22.1323 29.5507 21.3983 29.9815C20.6642 29.5506 19.8343 29.3252 18.9693 29.3252C17.5608 29.3252 16.2266 29.9535 15.3216 31.0027C14.2945 30.1313 13.4762 29.0617 12.9078 27.8511H29.8887C29.3204 29.0618 28.502 30.1315 27.4746 31.0031ZM30.4397 26.3622H12.357C12.198 25.7872 12.0939 25.1984 12.047 24.6012H30.7495C30.7027 25.1984 30.5987 25.7872 30.4397 26.3622Z" fill="#A6A6A6"/>
</g>
<defs>
<clipPath id="clip0">
<rect width="41.6601" height="41.6601" fill="white" transform="translate(0.568359 0.939453)"/>
</clipPath>
</defs>
</svg>
