<svg width="51" height="51" viewBox="0 0 51 51" fill="none" xmlns="http://www.w3.org/2000/svg">
<g clip-path="url(#clip0)">
<path d="M25.3657 50.9882C39.1728 50.9882 50.3656 39.7953 50.3656 25.9882C50.3656 12.1811 39.1728 0.988281 25.3657 0.988281C11.5586 0.988281 0.365723 12.1811 0.365723 25.9882C0.365723 39.7953 11.5586 50.9882 25.3657 50.9882Z" fill="#F7B239"/>
<path d="M12.2307 39.1231C3.2375 30.1298 2.52882 15.9895 10.1042 6.18457C9.26503 6.8328 8.45762 7.54148 7.68791 8.31119C-2.07501 18.0741 -2.07501 33.903 7.68791 43.6658C17.4508 53.4287 33.2797 53.4288 43.0426 43.6658C43.8122 42.8962 44.5209 42.0887 45.1692 41.2496C35.3644 48.825 21.2241 48.1163 12.2307 39.1231Z" fill="#E09B2D"/>
<path d="M15.485 14.0125C13.9749 12.5024 11.5265 12.5024 10.0164 14.0125C8.50626 15.5226 8.50626 17.971 10.0164 19.4811L15.485 24.9498L20.9537 19.4811C22.4638 17.971 22.4638 15.5226 20.9537 14.0125C19.4436 12.5024 16.9952 12.5024 15.485 14.0125Z" fill="#F95428"/>
<path d="M35.2475 14.0125C33.7374 12.5024 31.289 12.5024 29.7788 14.0125C28.2687 15.5226 28.2687 17.971 29.7788 19.4811L35.2475 24.9498L40.7161 19.4811C42.2263 17.971 42.2263 15.5226 40.7161 14.0125C39.2059 12.5024 36.7576 12.5024 35.2475 14.0125Z" fill="#F95428"/>
<path d="M12.7642 28.5859H37.968C37.968 30.0006 37.7345 31.3608 37.3046 32.6309H13.4276C12.9977 31.3608 12.7642 30.0006 12.7642 28.5859Z" fill="white"/>
<path d="M13.4275 32.6309H37.3044C36.4569 35.1339 34.8446 37.2824 32.7455 38.8009C31.8634 37.3146 30.2424 36.3188 28.388 36.3188C27.255 36.3188 26.2098 36.6906 25.366 37.3195C24.5221 36.6906 23.4757 36.3188 22.3428 36.3188C20.4896 36.3188 18.8673 37.3146 17.9865 38.8009C15.8873 37.2824 14.275 35.1339 13.4275 32.6309Z" fill="#A81004"/>
<path d="M28.3882 36.3193C30.2426 36.3193 31.8636 37.3151 32.7457 38.8014C30.6713 40.3037 28.1213 41.1884 25.3661 41.1884C22.611 41.1884 20.061 40.3037 17.9866 38.8014C18.8675 37.3151 20.4897 36.3193 22.3428 36.3193C23.4757 36.3193 24.5222 36.6912 25.366 37.3201C26.2101 36.6912 27.2553 36.3193 28.3882 36.3193Z" fill="#F95428"/>
</g>
<defs>
<clipPath id="clip0">
<rect width="50" height="50" fill="white" transform="matrix(-1 0 0 1 50.3657 0.988281)"/>
</clipPath>
</defs>
</svg>
