<svg width="42" height="43" viewBox="0 0 42 43" fill="none" xmlns="http://www.w3.org/2000/svg">
<g clip-path="url(#clip0)">
<path d="M20.9258 0.939453C9.43999 0.939453 0.0957031 10.2837 0.0957031 21.7695C0.0957031 33.2553 9.43999 42.5996 20.9258 42.5996C32.4116 42.5996 41.7558 33.2552 41.7558 21.7695C41.7558 10.2838 32.4115 0.939453 20.9258 0.939453ZM20.9258 41.1105C10.2611 41.1105 1.58464 32.4342 1.58464 21.7695C1.58464 11.1048 10.2611 2.42839 20.9258 2.42839C31.5905 2.42839 40.2669 11.1047 40.2669 21.7695C40.2669 32.4343 31.5903 41.1105 20.9258 41.1105Z" fill="#A6A6A6"/>
<path d="M33.5886 12.1523C33.236 11.9416 32.7786 12.0565 32.5677 12.4096C31.8952 13.5352 30.7108 14.2073 29.3994 14.2073C28.0882 14.2073 26.9039 13.5352 26.2313 12.4096C26.0205 12.0566 25.5634 11.9416 25.2104 12.1523C24.8574 12.3632 24.7423 12.8203 24.9531 13.1732C25.897 14.753 27.5591 15.6962 29.3994 15.6962C29.3995 15.6962 29.3993 15.6962 29.3995 15.6962C31.2396 15.6962 32.902 14.7529 33.8459 13.1732C34.0567 12.8203 33.9416 12.3632 33.5886 12.1523Z" fill="#A6A6A6"/>
<path d="M16.6411 12.1523C16.2881 11.9415 15.8311 12.0566 15.6202 12.4096C14.9477 13.5353 13.7634 14.2073 12.4521 14.2073C11.1407 14.2073 9.9563 13.5353 9.28381 12.4096C9.07306 12.0566 8.61594 11.9416 8.26289 12.1523C7.90992 12.3632 7.79479 12.8203 8.00561 13.1733C8.94963 14.7532 10.6117 15.6962 12.4521 15.6962C14.2924 15.6962 15.9546 14.753 16.8984 13.1733C17.1092 12.8203 16.9941 12.3632 16.6411 12.1523Z" fill="#A6A6A6"/>
<path d="M32.0764 23.6631C25.9276 17.5146 15.9234 17.5147 9.77493 23.6631C9.4842 23.9538 9.4842 24.4252 9.77493 24.7159C9.92033 24.8612 10.1109 24.934 10.3015 24.934C10.492 24.934 10.6825 24.8613 10.828 24.7159C16.3959 19.1479 25.4557 19.1479 31.0236 24.7159C31.3144 25.0066 31.7857 25.0066 32.0764 24.7159C32.3672 24.4252 32.3672 23.9538 32.0764 23.6631Z" fill="#A6A6A6"/>
<path d="M24.4938 22.525C22.1595 21.8705 19.6919 21.8706 17.3579 22.525C16.962 22.636 16.731 23.0469 16.842 23.4429C16.9531 23.8387 17.3642 24.0695 17.7599 23.9587C19.8309 23.378 22.0205 23.3779 24.0919 23.9587C24.1591 23.9776 24.2268 23.9866 24.2932 23.9866C24.6186 23.9866 24.9175 23.7716 25.0097 23.4428C25.1207 23.0468 24.8897 22.636 24.4938 22.525Z" fill="#A6A6A6"/>
</g>
<defs>
<clipPath id="clip0">
<rect width="41.6601" height="41.6601" fill="white" transform="translate(0.0957031 0.939453)"/>
</clipPath>
</defs>
</svg>
