<svg width="51" height="50" viewBox="0 0 51 50" fill="none" xmlns="http://www.w3.org/2000/svg">
<g clip-path="url(#clip0)">
<path d="M25.1474 49.9999C38.9545 49.9999 50.1474 38.807 50.1474 25C50.1474 11.1929 38.9545 0 25.1474 0C11.3403 0 0.147461 11.1929 0.147461 25C0.147461 38.807 11.3403 49.9999 25.1474 49.9999Z" fill="#F7B239"/>
<path d="M12.0122 38.1339C3.01899 29.1405 2.31031 15.0002 9.88567 5.19531C9.04652 5.84354 8.23912 6.55222 7.4694 7.32194C-2.29351 17.0849 -2.29351 32.9138 7.4694 42.6766C17.2323 52.4394 33.0612 52.4395 42.8241 42.6766C43.5937 41.907 44.3023 41.0995 44.9507 40.2603C35.1459 47.8358 21.0056 47.1271 12.0122 38.1339Z" fill="#E09B2D"/>
<path d="M35.6938 17.4406C35.6935 17.4406 35.6938 17.4406 35.6938 17.4406C33.4032 17.4406 31.3344 16.2665 30.1596 14.3004C29.8972 13.861 30.0405 13.2921 30.4798 13.0297C30.9191 12.7674 31.4881 12.9105 31.7505 13.3499C32.5875 14.7509 34.0616 15.5874 35.6937 15.5875C37.3259 15.5875 38.8001 14.7509 39.6371 13.3499C39.8996 12.9105 40.4689 12.7674 40.9078 13.0297C41.3471 13.2922 41.4904 13.861 41.228 14.3004C40.0532 16.2664 37.9842 17.4406 35.6938 17.4406Z" fill="#4D4D4D"/>
<path d="M14.6002 17.4406C12.3096 17.4406 10.2408 16.2666 9.06584 14.3004C8.80344 13.861 8.9467 13.2921 9.38605 13.0297C9.82559 12.7674 10.3944 12.9106 10.6567 13.3499C11.4937 14.751 12.9679 15.5875 14.6001 15.5875C16.2322 15.5875 17.7062 14.751 18.5433 13.3499C18.8058 12.9106 19.3746 12.7673 19.814 13.0297C20.2533 13.2921 20.3966 13.861 20.1342 14.3004C18.9596 16.2665 16.8908 17.4405 14.6002 17.4406Z" fill="#4D4D4D"/>
<path d="M11.9235 28.9395C11.6864 28.9395 11.4492 28.8491 11.2683 28.668C10.9063 28.3061 10.9063 27.7194 11.2683 27.3577C18.921 19.7051 31.3729 19.7049 39.0259 27.3577C39.3878 27.7196 39.3878 28.3063 39.0259 28.668C38.6639 29.0299 38.0773 29.0299 37.7153 28.668C30.7853 21.7379 19.5089 21.7379 12.5789 28.668C12.3978 28.8491 12.1606 28.9395 11.9235 28.9395Z" fill="#4D4D4D"/>
<path d="M29.3384 27.7591C29.2556 27.7591 29.1713 27.7479 29.0878 27.7245C26.5096 27.0017 23.7843 27.0018 21.2065 27.7245C20.7141 27.8625 20.2024 27.5751 20.0641 27.0824C19.9261 26.5896 20.2136 26.0782 20.7062 25.94C23.6114 25.1255 26.6826 25.1254 29.588 25.94C30.0807 26.0781 30.3682 26.5896 30.2301 27.0823C30.1153 27.4914 29.7434 27.7591 29.3384 27.7591Z" fill="#E09B2D"/>
</g>
<defs>
<clipPath id="clip0">
<rect width="50" height="50" fill="white" transform="translate(0.147461)"/>
</clipPath>
</defs>
</svg>
