<svg width="43" height="42" viewBox="0 0 43 42" fill="none" xmlns="http://www.w3.org/2000/svg">
<path d="M21.5629 0.320312C10.077 0.320312 0.732666 9.66466 0.732666 21.1504C0.732666 32.6362 10.077 41.9805 21.5629 41.9805C33.0487 41.9805 42.3929 32.6362 42.393 21.1504C42.393 9.66465 33.0486 0.320312 21.5629 0.320312ZM21.5629 40.4917C10.8981 40.4917 2.22161 31.8153 2.22161 21.1504C2.22161 10.4856 10.8981 1.80926 21.5629 1.80926C32.2276 1.80926 40.904 10.4857 40.9041 21.1505C40.904 31.8152 32.2276 40.4917 21.5629 40.4917Z" fill="#A6A6A6"/>
<path d="M17.5356 18.6948C16.5918 17.1151 14.9296 16.1719 13.0892 16.1719C11.2489 16.1719 9.58668 17.115 8.64282 18.6948C8.43199 19.0478 8.54713 19.5049 8.9001 19.7158C9.25315 19.9266 9.71028 19.8115 9.92102 19.4585C10.5935 18.3328 11.7779 17.6607 13.0892 17.6607C14.4005 17.6607 15.5849 18.3328 16.2574 19.4585C16.3968 19.6918 16.6438 19.8213 16.8972 19.8213C17.027 19.8213 17.1588 19.7874 17.2784 19.7158C17.6313 19.5049 17.7465 19.0478 17.5356 18.6948Z" fill="#A6A6A6"/>
<path d="M34.4832 18.6948C33.5391 17.1149 31.877 16.1719 30.0367 16.1719C28.1964 16.1719 26.5343 17.1151 25.5903 18.6948C25.3795 19.0478 25.4946 19.5049 25.8476 19.7158C26.2006 19.9266 26.6577 19.8115 26.8685 19.4585C27.541 18.3328 28.7253 17.6607 30.0367 17.6607C31.3481 17.6607 32.5325 18.3328 33.205 19.4585C33.3443 19.6918 33.5913 19.8213 33.8447 19.8213C33.9746 19.8213 34.1063 19.7874 34.2259 19.7158C34.5788 19.5049 34.694 19.0478 34.4832 18.6948Z" fill="#A6A6A6"/>
<path d="M32.7139 25.1028C32.4232 24.8122 31.9519 24.8121 31.661 25.1028C26.0928 30.6708 17.0329 30.6707 11.4653 25.1028C11.1746 24.8121 10.7033 24.8121 10.4124 25.1028C10.1217 25.3935 10.1217 25.8648 10.4124 26.1556C13.4871 29.2302 17.5243 30.7671 21.5632 30.7671C25.6008 30.7671 29.64 29.2295 32.7139 26.1558C33.0046 25.865 33.0046 25.3935 32.7139 25.1028Z" fill="#A6A6A6"/>
<path d="M25.6468 32.2468C25.5358 31.851 25.1251 31.62 24.7289 31.731C22.6576 32.3118 20.468 32.3117 18.3968 31.731C18.0006 31.6199 17.59 31.851 17.479 32.2468C17.368 32.6427 17.599 33.0537 17.9949 33.1647C19.162 33.4919 20.3621 33.6556 21.5628 33.6556C22.7629 33.6556 23.9638 33.4919 25.1308 33.1647C25.5267 33.0537 25.7577 32.6429 25.6468 32.2468Z" fill="#A6A6A6"/>
</svg>
