<svg width="51" height="50" viewBox="0 0 51 50" fill="none" xmlns="http://www.w3.org/2000/svg">
<g clip-path="url(#clip0)">
<path d="M25.4414 49.9999C39.2485 49.9999 50.4413 38.807 50.4413 25C50.4413 11.1929 39.2485 0 25.4414 0C11.6343 0 0.441406 11.1929 0.441406 25C0.441406 38.807 11.6343 49.9999 25.4414 49.9999Z" fill="#F7B239"/>
<path d="M12.3061 38.1339C3.31294 29.1405 2.60426 15.0002 10.1796 5.19531C9.34047 5.84354 8.53306 6.55222 7.76335 7.32194C-1.99957 17.0848 -1.99957 32.9138 7.76335 42.6766C17.5263 52.4394 33.3552 52.4395 43.118 42.6766C43.8876 41.907 44.5963 41.0995 45.2446 40.2603C35.4398 47.8358 21.2995 47.1271 12.3061 38.1339Z" fill="#E09B2D"/>
<path d="M19.6338 23.3459C19.3184 23.3459 19.0109 23.1848 18.8375 22.8944C18.0005 21.4933 16.5263 20.6568 14.8942 20.6568C13.2621 20.6568 11.7879 21.4932 10.9509 22.8944C10.6886 23.3337 10.1197 23.477 9.68024 23.2146C9.24089 22.9521 9.09763 22.3832 9.36003 21.9439C10.5348 19.9775 12.6036 18.8037 14.8942 18.8037C17.1848 18.8037 19.2536 19.9777 20.4284 21.9439C20.6908 22.3832 20.5475 22.9522 20.1082 23.2146C19.9594 23.3036 19.7954 23.3459 19.6338 23.3459Z" fill="#4D4D4D"/>
<path d="M40.7275 23.3459C40.4121 23.3459 40.1047 23.1848 39.9312 22.8944C39.0943 21.4933 37.6201 20.6568 35.9879 20.6568C34.3558 20.6568 32.8818 21.4933 32.0447 22.8944C31.7823 23.3337 31.2133 23.477 30.774 23.2146C30.3346 22.9522 30.1914 22.3832 30.4538 21.9439C31.6286 19.9776 33.6974 18.8037 35.9879 18.8037C38.2784 18.8037 40.3473 19.9775 41.5222 21.9439C41.7846 22.3832 41.6414 22.9521 41.202 23.2146C41.0531 23.3036 40.8892 23.3459 40.7275 23.3459Z" fill="#4D4D4D"/>
<path d="M25.4412 36.9697C20.4142 36.9697 15.3893 35.057 11.5624 31.2302C11.2005 30.8683 11.2005 30.2817 11.5624 29.9199C11.9245 29.558 12.5111 29.558 12.873 29.9199C19.8026 36.8499 31.079 36.85 38.0094 29.9199C38.3716 29.558 38.9582 29.5582 39.32 29.9199C39.6819 30.2818 39.6819 30.8685 39.32 31.2304C35.494 35.0561 30.4666 36.9697 25.4412 36.9697Z" fill="#4D4D4D"/>
<path d="M25.441 40.5648C23.9466 40.5648 22.4529 40.3612 21.0002 39.9539C20.5075 39.8158 20.22 39.3043 20.3581 38.8115C20.4962 38.3189 21.0073 38.0312 21.5005 38.1694C24.0783 38.8922 26.8037 38.8923 29.3818 38.1694C29.8748 38.0314 30.386 38.3189 30.5241 38.8115C30.6622 39.3044 30.3747 39.8157 29.8821 39.9539C28.4293 40.361 26.9348 40.5648 25.441 40.5648Z" fill="#E09B2D"/>
</g>
<defs>
<clipPath id="clip0">
<rect width="50" height="50" fill="white" transform="translate(0.441406)"/>
</clipPath>
</defs>
</svg>
