<svg width="50" height="50" viewBox="0 0 50 50" fill="none" xmlns="http://www.w3.org/2000/svg">
<g clip-path="url(#clip0)">
<path d="M4.57244 19.7647C2.32805 17.5203 2.32805 13.8814 4.57244 11.637L7.19172 9.01774L5.74692 7.57324L1.68304 11.6371C-0.561341 13.8816 -0.561341 17.5204 1.68304 19.7648C3.17588 21.2576 5.28541 21.7561 7.19162 21.2631C6.23207 21.0148 5.32388 20.5162 4.57244 19.7647Z" fill="#2197D8"/>
<path d="M25.6386 49.3613C39.093 49.3613 49.9999 38.4543 49.9999 25C49.9999 11.5456 39.093 0.638672 25.6386 0.638672C12.1843 0.638672 1.27734 11.5456 1.27734 25C1.27734 38.4543 12.1843 49.3613 25.6386 49.3613Z" fill="#F7B239"/>
<path d="M12.8391 37.7992C4.07548 29.0357 3.38496 15.2565 10.7667 5.70215C9.94918 6.33397 9.16228 7.02458 8.4122 7.77447C-1.10127 17.2879 -1.10127 32.7125 8.4122 42.226C17.9257 51.7394 33.3502 51.7394 42.8637 42.226C43.6136 41.4761 44.3042 40.6892 44.936 39.8714C35.3817 47.2533 21.6026 46.5628 12.8391 37.7992Z" fill="#E09B2D"/>
<path d="M27.8207 40.7879C27.6894 40.7879 27.5561 40.7591 27.4298 40.6984C26.1293 40.0727 24.7549 40.0727 23.4543 40.6984C23.005 40.9146 22.4654 40.7256 22.2492 40.2763C22.033 39.827 22.2219 39.2874 22.6712 39.0712C24.4839 38.1989 26.4001 38.1989 28.2126 39.0712C28.6619 39.2874 28.851 39.827 28.6347 40.2763C28.4795 40.5994 28.1568 40.7879 27.8207 40.7879Z" fill="#E09B2D"/>
<path d="M1.68336 19.7648C-0.561121 17.5203 -0.561121 13.8815 1.68336 11.6371L5.74724 7.57324L9.81112 11.6371C12.0555 13.8815 12.0555 17.5204 9.81112 19.7648C7.56663 22.0093 3.92775 22.0093 1.68336 19.7648Z" fill="#2BA5F7"/>
<path d="M33.1511 29.306C32.674 29.4509 32.4045 29.9553 32.5495 30.4323C32.6944 30.9096 33.1992 31.1788 33.6758 31.034C36.0144 30.3235 38.4906 30.8805 40.2999 32.5237C40.4729 32.6808 40.6901 32.7583 40.9067 32.7583C41.1524 32.7583 41.3972 32.6586 41.5754 32.4624C41.9107 32.0932 41.8831 31.5222 41.514 31.1868C39.23 29.1122 36.1034 28.4093 33.1511 29.306Z" fill="#4D4D4D"/>
<path d="M18.7267 30.4324C18.8717 29.9552 18.6023 29.451 18.1252 29.306C15.1729 28.4093 12.0463 29.1122 9.76218 31.1868C9.39304 31.522 9.3656 32.0931 9.70075 32.4623C9.87897 32.6586 10.1238 32.7582 10.3695 32.7582C10.586 32.7582 10.8034 32.6807 10.9763 32.5236C12.7855 30.8805 15.2617 30.3236 17.6004 31.0339C18.0773 31.1788 18.5818 30.9095 18.7267 30.4324Z" fill="#4D4D4D"/>
<path d="M25.6383 34.749C25.6382 34.749 25.6384 34.749 25.6383 34.749C22.6874 34.749 19.921 36.0815 17.8497 38.5007C17.5254 38.8795 17.5694 39.4495 17.9483 39.7738C18.3271 40.0981 18.897 40.0541 19.2214 39.6752C20.9443 37.6631 23.2233 36.5548 25.6385 36.5548C28.0535 36.5548 30.3324 37.663 32.0553 39.6752C32.2338 39.8837 32.4869 39.9909 32.7415 39.9909C32.9493 39.9909 33.1582 39.9196 33.3284 39.7738C33.7072 39.4495 33.7514 38.8795 33.4271 38.5007C31.3553 36.0814 28.5893 34.749 25.6383 34.749Z" fill="#4D4D4D"/>
</g>
<defs>
<clipPath id="clip0">
<rect width="50" height="50" fill="white"/>
</clipPath>
</defs>
</svg>
