<svg width="44" height="43" viewBox="0 0 44 43" fill="none" xmlns="http://www.w3.org/2000/svg">
<g clip-path="url(#clip0)">
<path d="M22.5402 0.569336C16.7924 0.569336 11.3232 2.95386 7.40865 7.13596L6.74735 6.47466C6.45812 6.18542 5.98911 6.18542 5.69996 6.47466L2.36639 9.80822C0.298665 11.876 0.241731 15.2037 2.1941 17.3416C1.94395 18.6384 1.81589 19.9658 1.81589 21.2938C1.81589 32.7213 11.1128 42.0182 22.5403 42.0182C33.9679 42.0182 43.2648 32.7213 43.2648 21.2938C43.2648 9.86623 33.9678 0.569336 22.5402 0.569336ZM3.41387 10.8557L6.22374 8.04583L9.03361 10.8557C10.583 12.405 10.583 14.9261 9.03361 16.4754C7.48426 18.0247 4.9633 18.0248 3.41387 16.4754C2.66327 15.7248 2.25004 14.727 2.25004 13.6656C2.24995 12.6042 2.66335 11.6064 3.41387 10.8557ZM22.5402 40.5368C11.9297 40.5368 3.29718 31.9045 3.29718 21.2938C3.29718 20.3241 3.37113 19.355 3.51504 18.4C4.35113 18.878 5.28706 19.1181 6.22366 19.1181C7.62062 19.1181 9.01751 18.5864 10.0811 17.5229C11.1115 16.4925 11.6789 15.1227 11.6789 13.6656C11.6789 12.2084 11.1115 10.8386 10.0811 9.80814L8.45663 8.18377C12.0937 4.27829 17.187 2.05071 22.5402 2.05071C33.1509 2.05071 41.7833 10.6831 41.7833 21.2938C41.7833 31.9045 33.1509 40.5368 22.5402 40.5368Z" fill="#A6A6A6"/>
<path d="M24.6525 32.8355C23.1656 32.12 21.5937 32.12 20.1069 32.8355C19.7383 33.0128 19.5833 33.4554 19.7607 33.824C19.938 34.1926 20.3806 34.3476 20.7492 34.1703C21.816 33.657 22.9435 33.657 24.0103 34.1703C24.1138 34.2201 24.2232 34.2437 24.331 34.2437C24.6067 34.2437 24.8714 34.0891 24.999 33.824C25.1762 33.4555 25.0212 33.013 24.6525 32.8355Z" fill="#A6A6A6"/>
<path d="M35.5634 26.368C33.6896 24.6662 31.1249 24.0897 28.7032 24.8252C28.3118 24.9441 28.0907 25.3578 28.2097 25.7492C28.3286 26.1406 28.7427 26.3615 29.1336 26.2427C31.0521 25.6599 33.0833 26.1167 34.5674 27.4647C34.7093 27.5936 34.8875 27.657 35.0651 27.657C35.2667 27.657 35.4675 27.5753 35.6137 27.4143C35.8888 27.1115 35.8663 26.643 35.5634 26.368Z" fill="#A6A6A6"/>
<path d="M16.3774 24.8253C13.9556 24.0896 11.3909 24.6663 9.51711 26.3681C9.21435 26.6431 9.19177 27.1115 9.46674 27.4144C9.61289 27.5754 9.81374 27.6571 10.0153 27.6571C10.1929 27.6571 10.3713 27.5936 10.5131 27.4648C11.9971 26.1169 14.0284 25.66 15.9468 26.2427C16.338 26.3615 16.7518 26.1407 16.8708 25.7493C16.9897 25.3579 16.7688 24.9442 16.3774 24.8253Z" fill="#A6A6A6"/>
<path d="M28.9295 32.3685C27.2301 30.384 24.9611 29.291 22.5403 29.291C20.1196 29.291 17.8504 30.3841 16.1512 32.3685C15.8852 32.6793 15.9213 33.1469 16.2322 33.4129C16.5429 33.679 17.0104 33.6428 17.2766 33.332C18.6899 31.6815 20.5593 30.7724 22.5405 30.7724C24.5216 30.7724 26.391 31.6814 27.8044 33.332C27.9508 33.5031 28.1584 33.591 28.3673 33.591C28.5378 33.591 28.7091 33.5325 28.8488 33.4129C29.1593 33.1468 29.1955 32.6793 28.9295 32.3685Z" fill="#A6A6A6"/>
</g>
<defs>
<clipPath id="clip0">
<rect width="42.4933" height="42.4933" fill="white" transform="translate(0.771484 0.046875)"/>
</clipPath>
</defs>
</svg>
