<?xml version="1.0" encoding="utf-8"?>
<!-- Generator: Adobe Illustrator 22.0.1, SVG Export Plug-In . SVG Version: 6.00 Build 0)  -->
<svg version="1.1" id="Layer_1" xmlns="http://www.w3.org/2000/svg" xmlns:xlink="http://www.w3.org/1999/xlink" x="0px" y="0px"
	 viewBox="0 0 934.9 122.7" style="enable-background:new 0 0 934.9 122.7;" xml:space="preserve">
<style type="text/css">
	.st0{fill-rule:evenodd;clip-rule:evenodd;fill:#60269E;}
</style>
<g>
	<polygon class="st0" points="110.6,43.1 110.6,57.7 150.8,57.7 110.6,116.1 177.5,116.1 177.5,101.6 137.4,101.6 177.5,43.1 	"/>
	<path class="st0" d="M470.3,35.5L470.3,35.5c2.6,0,4.7-1.1,6.5-3.1c1.9-2,2.8-4.4,2.8-7.2c0-2.8-1-5.1-2.8-7.1
		c-1.8-2.1-3.9-3.1-6.5-3.1c-2.6,0-4.8,1-6.6,3.1c-1.9,2-2.8,4.3-2.8,7.1c0,2.8,0.9,5.3,2.8,7.2C465.5,34.4,467.7,35.5,470.3,35.5"
		/>
	<path class="st0" d="M434.9,35.5L434.9,35.5c2.6,0,4.7-1.1,6.5-3.1c1.9-2,2.8-4.4,2.8-7.2c0-2.8-0.9-5.1-2.8-7.1
		c-1.8-2.1-3.9-3.1-6.5-3.1c-2.6,0-4.8,1-6.6,3.1c-1.9,2-2.7,4.3-2.7,7.1c0,2.8,0.8,5.3,2.7,7.2C430.1,34.4,432.3,35.5,434.9,35.5"
		/>
	<path class="st0" d="M8.5,116.1h14.6L35,86.9h40.5l11.8,29.3h14.9L55.2,6.6L8.5,116.1z M41,72.3l14.2-35.1l14.3,35.1H41z"/>
	<polygon class="st0" points="333.9,21.2 367.3,21.2 367.3,116.1 380.6,116.1 380.6,21.2 414,21.2 414,6.6 333.9,6.6 	"/>
	<path class="st0" d="M472.5,101.6h-19.9c-5.5,0-10.3-2.2-14.2-6.5c-4-4.3-6-9.4-6-15.4V43.1h-13.3v36.6c0,10,3.3,18.6,9.8,25.8
		c6.6,7.1,14.4,10.6,23.7,10.6H486V43.1h-13.4V101.6z"/>
	<path class="st0" d="M274.4,53.8c-6.5,7.1-9.7,15.7-9.7,25.8v36.5h13.3V79.7c0-6.1,2-11.3,5.9-15.6c3.9-4.3,8.6-6.4,14.2-6.4h13.3
		V43.1h-13.3C288.9,43.1,281,46.6,274.4,53.8"/>
	<path class="st0" d="M694.9,55.7c2.3-2.3,7.8-7.7,7.2-19.8c-0.3-5.4-1.2-10.3-3.6-14.6c0-0.1,0-0.1-0.1-0.2h0
		c-1.2-2.1-2.6-4.1-4.2-5.9c-5.2-5.8-11.6-8.6-18.9-8.6h-26.8h-13.4v109.5h13.4h26.8h3.4c8.3,0,15.3-3.2,21.1-9.7
		c5.9-6.4,8.8-14.2,8.8-23.3C708.7,71.2,704.1,62,694.9,55.7 M648.5,21.3h26.8c3.7,0,6.9,1.3,9.5,4.2c2.6,2.9,3.9,6.4,3.9,10.4
		c0,4-1.3,7.5-3.9,10.3c-2.6,2.8-5.8,4.3-9.5,4.3h-26.8V21.3z M690.4,96.2c-3.2,3.5-7.2,5.3-11.7,5.3h-30.2V65h29.4h0.8
		c4.5,0,8.5,1.7,11.7,5.4c3.3,3.5,5,7.8,5,12.9C695.3,88.2,693.7,92.6,690.4,96.2"/>
	<path class="st0" d="M828.7,43.1L828.7,43.1c-9.2,0-17.1,3.6-23.7,10.8c-6.5,7.1-9.7,15.7-9.7,25.8v36.5h13.3V79.7
		c0-6.1,1.9-11.3,5.9-15.6c3.9-4.3,8.6-6.4,14.2-6.4c5.5,0,10.3,2.1,14.2,6.4c3.9,4.3,5.9,9.4,5.9,15.6v36.5h13.3V79.7
		c0-10.2-3.2-18.7-9.8-25.8C845.8,46.6,837.9,43.1,828.7,43.1"/>
	<polygon class="st0" points="589.6,43.1 566.8,72.3 566.8,6.6 553.5,6.6 553.5,116.1 566.8,116.1 566.7,92 588.3,116.1 
		606.9,116.1 576.1,82.4 606.9,43.1 	"/>
	<path class="st0" d="M750.8,43.1L750.8,43.1c-9.2,0-17.1,3.6-23.6,10.8c-6.5,7.1-9.8,15.7-9.8,25.8c0,10,3.3,18.6,9.8,25.8
		c6.5,7.1,14.4,10.6,23.6,10.6h33.5V79.7c0-10.2-3.3-18.7-9.9-25.8C767.9,46.6,760.1,43.1,750.8,43.1 M770.9,101.6h-20.1
		c-5.6,0-10.3-2.2-14.2-6.5c-3.9-4.3-5.9-9.4-5.9-15.4c0-6.1,2-11.3,5.9-15.5c3.9-4.3,8.6-6.4,14.2-6.4c5.5,0,10.3,2.1,14.2,6.4
		c3.9,4.3,5.9,9.4,5.9,15.5V101.6z"/>
	<path class="st0" d="M506.2,53.8c-6.5,7.1-9.7,15.7-9.7,25.8v36.5h13.3V79.7c0-6.1,1.9-11.3,5.9-15.6c3.9-4.3,8.6-6.4,14.2-6.4
		h13.3V43.1h-13.3C520.7,43.1,512.8,46.6,506.2,53.8"/>
	<path class="st0" d="M221.2,43.1h-27.3v14.6h27.3c4.4,0,8.3,1.4,11.8,4.2c3.3,2.6,5.8,6.1,7.1,10.4l-52.3,0.1v7.2
		c0,10.2,3.3,18.7,9.9,25.8c6.5,7.2,14.3,10.8,23.5,10.8c9.3,0,17.2-3.5,23.7-10.8c6.5-7.1,9.8-15.7,9.8-25.8
		c0-10-3.3-18.6-9.8-25.8C238.4,46.6,230.5,43.1,221.2,43.1 M233,97.4c-3.5,2.7-7.4,4-11.8,4c-4.2,0-8.1-1.3-11.7-4
		c-3.4-2.7-5.8-6.2-7.1-10.5h37.6C238.8,91.2,236.3,94.7,233,97.4"/>
	<polygon class="st0" points="909.1,43.1 886.4,72.3 886.4,6.6 873,6.6 873,116.1 886.4,116.1 886.3,92 907.8,116.1 926.5,116.1 
		895.7,82.4 926.5,43.1 	"/>
</g>
</svg>
