<svg xmlns="http://www.w3.org/2000/svg" viewBox="0 0 3033.28 646.96"><defs><style>.cls-1{fill:#18296d;}.cls-1,.cls-2{fill-rule:evenodd;}.cls-2{fill:#0091b3;}</style></defs><title>BOB Logo Horiz</title><g id="Layer_2" data-name="Layer 2"><g id="Layer_1-2" data-name="Layer 1"><path class="cls-1" d="M1005.27,235.31c0,23.52-9.31,50.95-31.85,65.64,37.74,16.17,47.52,47.52,47.52,82.3-1.46,76.4-53.38,103.35-121.47,103.35H764.76V139.31H900c57.8,0,105.31,31.84,105.31,96ZM814.46,596.74a15.86,15.86,0,0,1,3.14,9.87q0,9.71-7.11,15.28t-19.61,5.57q-13.41,0-20.94-6.29t-7.53-17.95h8.77q.21,7.93,5.36,12.27T791,619.72q17.44,0,17.45-12.79,0-7-9.29-10.11l-.19-.08h-.07a77,77,0,0,0-8.72-2.4l-1.54-.31-1.34-.31-1.44-.31-1.35-.31q-10.22-2.37-14-5.26-5.67-4.33-5.67-12.28,0-9.39,6.4-14.65T789,555.55q12.18,0,18.78,5.67t7.11,16.1h-8.76q-.84-7.34-5.06-10.63t-12.48-3.41q-7,0-11,3.1a9.82,9.82,0,0,0-4,8.35c0,3.17,1.14,5.47,3.41,6.92s7.43,3,15.27,4.64q12.38,2.58,17.43,6a19,19,0,0,1,4.81,4.42l-8.51,0,8.5,0Zm78.74,0V557.1h9.08v68.81h-9.09V596.74Zm100.3,0,22.23-27.58,2.17-2.47,1.65-1.86q-4.84.21-12.17.21H979.62V557.1h50.46v7.52l-25.84,32.12h0L991,613.23c-.34.33-1,1.09-2,2.26l-2.27,2.68h1.55q4.63,0,7.73-.1l3.41-.1h31.68v7.94h-54.9v-7.74l17.29-21.43Zm104.49,0q-.32-3.69-.28-8h52.44q.61-23.87-22.62-24.81-15.75,1.46-19.08,15.33h-10q5.2-23.88,29.92-23.88,14.79,0,23.5,9.59t8.71,26.17a52.55,52.55,0,0,1-.29,5.55h0a36.14,36.14,0,0,1-8.67,20.61,29.13,29.13,0,0,1-22.94,10.23,30.28,30.28,0,0,1-17.15-5,28.64,28.64,0,0,1-11-13.64,44.37,44.37,0,0,1-2.53-12.17h0Zm266.36,0-26.16-39.64h11l16.2,25.68q1.44,2.28,4.43,7.43c1.11-2,2.51-4.4,4.24-7.22l16.09-25.89h10.42l-25.86,39.64-.66,1v28.16H1365V597.75l-.67-1Zm97.28,0,15.6-39.85h10.21l15.49,39.85h0l11.34,29.17h-10l-7.74-21.15h-28.89l-7.84,21.15h-9.59l11.42-29.17Zm31.95,0L1487,579.17q-1.86-4.84-3.4-9.49l-1.44-4.44q-.74,2.18-5,13.52l-6.65,18h0l-.26.69h23.53l-.26-.69Zm105.89,0,4.32-6.32-22.7-33.32h10.83l11.76,18a81.25,81.25,0,0,1,5.47,9.18q2.79-4.64,5.89-9.18l12.17-18h10.21l-22.8,33.32,4.3,6.32,19.84,29.17h-11l-14.13-21.35c-1.45-2.21-2.93-4.68-4.44-7.44l-4.75,7.23L1590,625.91h-10.42l19.93-29.17Zm113,0V557.1h9.07v68.81h-9.08V596.74Zm85.18,0V557.1h9.8l25.69,39.2.27.4-10.2,0h10.19q7.74,11.73,11.19,18.34,0-2.58-.31-9.29l-.2-2.37a31.26,31.26,0,0,1-.21-5.88c0-.31.07-.57.1-.77l8.67,0H1844c.08-.48.11-.64.11-.44l-.1-4.74V557.1h8.66v39.64h0v29.17h-10l-19.42-29.17-5.23-7.87q-1.46-2.48-5.16-8.35-5.16-8.16-7.12-12.18l.41,9.28.1,2.38v4.74l.11,2.17v9.83h0v29.17h-8.67V596.74Zm244.49,0V557.1h27.66q10.11,0,14.65,2.27a16.11,16.11,0,0,1,6.61,6.08,15.66,15.66,0,0,1,2.57,8.56q0,11.06-10.11,15,7.88,2.14,11.06,7.76h0a18.44,18.44,0,0,1,2.14,9.16q0,9.38-6,14.75t-16.61,5.26h-32V596.74Zm41.35,0a12.83,12.83,0,0,0-3.79-2q-3.09-1-11.86-1h-16.61v3h0V618h18.16q9.71,0,12.9-1.76c3.51-1.93,5.26-5.29,5.26-10.11,0-4.15-1.35-7.28-4.05-9.36Zm91.79,0,15.61-39.85h10.21l15.49,39.85L2228,625.91h-10l-7.74-21.15h-28.89l-7.83,21.15h-9.6l11.43-29.17Zm32,0-6.54-17.57q-1.86-4.84-3.4-9.49l-1.45-4.44q-.72,2.18-4.95,13.52l-6.66,18h0l-.26.69h23.52l-.26-.69Zm92.67,0V557.1h9.81l25.69,39.2.26.4-10.2,0h10.2q7.74,11.73,11.19,18.34c0-1.72-.11-4.82-.31-9.29l-.21-2.37a32.21,32.21,0,0,1-.21-5.88c0-.31.07-.57.1-.77l8.67,0h-8.66c.07-.48.11-.64.11-.44l-.11-4.74V557.1h8.67v39.64h0v29.17h-10l-19.43-29.17-5.23-7.87q-1.44-2.48-5.16-8.35-5.16-8.16-7.12-12.18l.42,9.28.1,2.38v4.74l.1,2.17v9.83h0v29.17h-8.67V596.74Zm129.14,0V557.1h9.08v34.25l4.54-4.54L2473,557.1h12l-29.09,27.64,8.8,12h0l21.42,29.17h-11.55l-20.83-29.17h0l-4.14-5.81-6.14,5.81h0l-5.31,5v24.14h-9.08V596.74Zm117.21,0c-.17-1.71-.25-3.46-.25-5.28q0-16.31,9-26.1t23.83-9.8q11.46,0,19.3,6.19a23,23,0,0,1,9,16h-9.18a16.18,16.18,0,0,0-6.61-10.42,20,20,0,0,0-12.58-4,21.29,21.29,0,0,0-17.13,7.74q-6.39,7.74-6.39,20.43a47.27,47.27,0,0,0,.28,5.3h0q1.05,9.35,5.91,15.33,6.3,7.65,16.82,7.64,8.88,0,14.24-5.26t6.19-14.55h9.08q-.93,12.18-8.67,19.61t-19.6,7.94l-3.2,4.33a18.94,18.94,0,0,1,3.4-.41,8.7,8.7,0,0,1,5.68,1.85,6.08,6.08,0,0,1,2.37,4.86,7.73,7.73,0,0,1-3.2,6.4,13.31,13.31,0,0,1-8.35,2.47,28.37,28.37,0,0,1-9.29-2l1.66-3.61a18.26,18.26,0,0,0,6.7,1.34q5.05,0,5.06-4c0-2.34-1.66-3.5-5-3.5a12.47,12.47,0,0,0-3.6.62l-1.56-1.76,5.06-6.6a26.9,26.9,0,0,1-21.15-10.32q-6.64-8.26-7.81-20.41Zm135.29,0V557.1h9.08v39.64h0v29.17h-9.08V596.74Zm84.15,0V557.09h9.08V618h36.52v7.94h-45.61V596.74Zm118.92,0V557.1h9.08v39.64h0v29.17h-9.08V596.74Zm83.06,0a49.38,49.38,0,0,1-.25-5.08q0-16.21,9.08-26.11t23.84-10q14.74,0,23.83,9.9t9.08,26.11q0,2.67-.24,5.16h0q-1.32,13.83-10,22.06l9.08,7.21-4.64,5.68L3017,623.33a33.32,33.32,0,0,1-16.62,4.13q-14.74,0-23.83-9.91-7.59-8.28-8.84-20.81Zm56.11,0a43.67,43.67,0,0,0,.29-5.05q0-12.9-6.5-20.64t-17.34-7.74q-10.73,0-17.23,7.74t-6.39,20.64a43,43,0,0,0,.28,5l-9.22,0h9.22a28.26,28.26,0,0,0,6.21,15.24,21.59,21.59,0,0,0,17.23,7.74,25.25,25.25,0,0,0,9.6-1.85l-7.53-6.09,4.74-5.68,9.09,7.53a28.73,28.73,0,0,0,7.55-16.92Zm-2130.3-58h8.77v9.8h-8.77v-9.8Zm8.77,0h0Zm1149,26.31v21.35h16.4c4.54,0,7.85-.3,9.91-.93q7-2.06,7-9.8t-6.6-9.8c-1.65-.55-4.82-.82-9.49-.82ZM1150,597.65h-41.8a22.65,22.65,0,0,0,6.1,15.32,19.94,19.94,0,0,0,14.33,6.47q19.18-.74,21.37-21.79ZM900,328.86H821.58V432.23H900c37.23,1,64.16-13.23,64.16-51s-25-52.9-64.16-52.42Zm-78.38-50.93H900c28.41,0,49.47-12.74,49.47-44.58,0-26.45-22-39.18-49.47-39.18H821.58v83.76ZM1468.44,139.8h53.88V335.23l91.11-102.36H1681L1575.22,349.92,1680.54,486.6h-63.19l-79.84-103.84-15.19,15.18V486.6h-53.88V139.8Zm577.3-1.48v52.9c-32.82,0-51.43,12.74-51.43,34.29v46.05h48.49v53.88h-48.49V486.6h-53.89V225.51c0-58.28,46.55-91.09,105.32-87.19Zm568.45,1.48h53.88V335.23l91.11-102.36h67.6L2721,349.92,2826.29,486.6H2763.1l-79.85-103.84-15.18,15.18V486.6h-53.88V139.8Zm-891.5,174.87c0-58.29,50.45-87.2,100.43-87.69,49,.49,99.42,29.4,99.42,87.69v88.65c0,59.28-50.45,87.2-99.42,87.69-50-.49-100.43-28.41-100.43-87.69V314.67Zm100.43-35.27c-22.53,0-46.53,11.27-46.53,35.27v88.65c0,24,24,37.72,46.53,37.72,21.05,0,45.54-13.72,45.54-37.72V314.67c0-24-24.49-35.27-45.54-35.27ZM1227.66,409.52c-.06,1.66-.15,3.27-.28,4.86l-.12,68.67s.19,16.24-41.61-4.37c-16.88,9.53-37,14.26-56.94,14.46-48.81-.49-98.08-27.14-100.35-83.62l-.08-7.66c.51-79.84,89.65-96,145.5-71.52V314.67c-8.34-46.54-75.93-49.48-106.79-16.17l-31.35-28.9c27.42-30.37,59.76-40.16,92.09-40.16,49.47,0,99.93,26.45,99.93,83.75v96.33Zm-146.45,0c.79,25.84,25,37.72,47.5,37.72,20,0,42.53-12.31,44.86-34V376.29c-27-12.66-89.93-16.93-92.37,25.57a61.06,61.06,0,0,0,0,7.66Zm1184.71-80.66h-78.38V432.23h78.38c37.22,1,64.16-13.23,64.16-51s-25-52.9-64.16-52.42Zm-78.38-50.93h78.38c28.42,0,49.47-12.74,49.47-44.58,0-26.45-22-39.18-49.47-39.18h-78.38v83.76Zm183.69-42.62c0,23.52-9.3,50.95-31.85,65.64,37.73,16.17,47.52,47.52,47.52,82.3-1.46,76.4-53.39,103.35-121.48,103.35h-134.7V139.31h135.2c57.79,0,105.31,31.84,105.31,96Zm222.38,174.21c-.05,1.66-.15,3.27-.28,4.86l-.11,68.67s.18,16.24-41.62-4.37c-16.88,9.53-37,14.26-56.93,14.46-48.81-.49-98.08-27.14-100.34-83.62l-.08-7.66c.47-79.84,89.63-96,145.48-71.52V314.67c-8.33-46.54-75.92-49.48-106.79-16.17l-31.35-28.9c27.43-30.37,59.76-40.16,92.09-40.16,49.48,0,99.93,26.45,99.93,83.75v96.33Zm-146.43,0c.77,25.84,24.94,37.72,47.49,37.72,19.94,0,42.53-12.31,44.86-34V376.29c-27.05-12.66-89.94-16.93-92.37,25.57a57.42,57.42,0,0,0,0,7.66ZM1248,311.49l.11-73.63s-.18-16.33,42,4.55c17-9.63,37.24-14.42,57.26-14.62,50,.48,100.42,28.4,100.42,87.67l.14,171.14h-54.2l.18-82.48V315.46c0-24-24-37.71-46.54-37.71-21.06,0-45.55,13.72-45.55,37.71v88.66l-.06,82.48H1248l-.07-123.54v-47.6l.08-4Zm-.08,51.57.08-51.57-.08,4v47.6ZM3031.16,404V356.41l-.08,51.57.08-4Zm-146-88.67V404c0,24,24,37.71,46.54,37.71,21,0,45.45-13.66,45.54-37.58v-88.8l.06-82.46h53.75l.07,123.54V404l-.08,4-.1,73.61s.17,16.34-42-4.54c-17,9.64-37.24,14.42-57.26,14.62-50-.49-100.43-28.4-100.43-87.67l-.13-171.13h54.2Z"/><path class="cls-2" d="M226,292.57A110.08,110.08,0,0,0,336,182.49c0-17.62-4.14-37.16-11.51-51.93a90.25,90.25,0,0,1,37.83-32.62c9.15,20.52,14.23,46.14,14.23,70.07a165.18,165.18,0,0,1-232.3,151,90.24,90.24,0,0,1,32.6-37.82,109.52,109.52,0,0,0,48.94,11.51l.13-.09ZM625.72,625.69V0H414.26A165.15,165.15,0,0,0,275.44,254.56a90.41,90.41,0,0,0,25.76-25.9A110.12,110.12,0,0,1,399.77,69.53H556.19V556.17H399.77a110.45,110.45,0,0,1-27.39-3.43,186.17,186.17,0,0,1-42,50.09,164.35,164.35,0,0,0,83.89,22.86ZM399.11,333.12l.14-.09a109.52,109.52,0,0,1,48.94,11.52,90.21,90.21,0,0,0,32.6-37.83,165.16,165.16,0,0,0-232.31,151c0,23.92,5.08,49.54,14.24,70.06a90.19,90.19,0,0,0,37.82-32.61c-7.36-14.77-11.5-34.32-11.5-51.93A110.07,110.07,0,0,1,399.11,333.12ZM336,446.09A110.07,110.07,0,0,1,226,556.17H69.53V69.53H226A110.33,110.33,0,0,1,253.35,73a186.51,186.51,0,0,1,42-50.1A164.37,164.37,0,0,0,211.48,0H0V625.69H211.48A165.15,165.15,0,0,0,350.3,371.13,90.48,90.48,0,0,0,324.53,397,109.55,109.55,0,0,1,336,446.09Z"/></g></g></svg>