<svg xmlns="http://www.w3.org/2000/svg" width="640" height="120" viewBox="0 0 640 120"><g><g><path fill="#bbbdbf" d="M1.847 112.816l5.743-.873c.252 1.103.741 1.965 1.486 2.55.753.577 1.805.858 3.142.858 1.483 0 2.608-.26 3.346-.822.511-.38.756-.877.756-1.523 0-.442-.135-.811-.405-1.088-.285-.282-.929-.508-1.918-.742-4.628-1.012-7.544-1.954-8.785-2.813-1.717-1.162-2.576-2.784-2.576-4.858 0-1.882.738-3.471 2.232-4.731 1.48-1.282 3.777-1.932 6.875-1.932 2.973 0 5.173.489 6.626 1.457 1.432.968 2.426 2.397 2.96 4.293l-5.393.978c-.234-.843-.675-1.475-1.318-1.928-.65-.453-1.564-.67-2.758-.67-1.513 0-2.594.202-3.25.622-.44.307-.644.69-.644 1.158 0 .43.182.775.577 1.052.52.387 2.287.924 5.348 1.6 3.05.713 5.172 1.557 6.393 2.554 1.194 1.026 1.796 2.443 1.796 4.259 0 1.99-.832 3.71-2.505 5.14-1.655 1.41-4.106 2.118-7.357 2.118-2.952 0-5.275-.573-7.006-1.775-1.717-1.198-2.835-2.831-3.365-4.884z"/></g><g><path fill="#bbbdbf" d="M42.289 94.409h5.72V89.09h-5.72zm0 24.599h5.72V97.331h-5.72z"/></g><g><path fill="#bbbdbf" d="M66.77 119.008v-4.475l8.11-9.315c1.337-1.516 2.33-2.612 2.952-3.251-.658.04-1.527.062-2.63.084l-7.642.044V97.33h17.92v4.077l-8.291 9.545-2.915 3.156c1.589-.091 2.579-.157 2.959-.157h8.869v5.056z"/></g><g><path fill="#bbbdbf" d="M103.796 103.27c.734-2.1 1.892-3.68 3.485-4.78 1.578-1.112 3.565-1.648 5.958-1.648 3.76 0 6.528 1.227 8.354 3.711 1.425 1.947 2.137 4.453 2.137 7.448 0 3.595-.942 6.404-2.816 8.438-1.874 2.024-4.252 3.036-7.124 3.036-3.22 0-5.749-1.052-7.627-3.185-1.863-2.119-2.74-5.385-2.667-9.783h14.364c-.037-1.702-.508-3.02-1.388-3.967-.88-.946-2.002-1.41-3.302-1.41-.914 0-1.659.234-2.269.716-.61.504-1.074 1.297-1.388 2.382zm5.41 6.744c.018 1.666.453 2.94 1.253 3.791.833.86 1.82 1.301 2.977 1.301 1.26 0 2.298-.475 3.11-1.37.824-.92 1.211-2.162 1.197-3.722z"/></g><g><path fill="#bbbdbf" d="M152.654 97.33h3.196v-1.617c0-1.83.183-3.197.574-4.088.39-.902 1.092-1.636 2.14-2.195 1.04-.566 2.357-.844 3.949-.844 1.64 0 3.233.245 4.8.745l-.79 4.01a9.955 9.955 0 0 0-2.621-.357c-.834 0-1.432.2-1.783.585-.358.394-.534 1.132-.534 2.22v1.542h4.267v4.522h-4.267v17.155h-5.735v-17.155h-3.196z"/></g><g><path fill="#bbbdbf" d="M183.35 103.008c.584-2.097 1.581-3.631 2.991-4.64 1.45-1.007 3.562-1.522 6.382-1.522 2.564 0 4.463.325 5.713.927 1.242.596 2.126 1.359 2.652 2.276.504.943.76 2.637.76 5.143l-.059 6.678c0 1.918.088 3.324.267 4.223.182.898.53 1.885 1.033 2.915h-5.673c-.135-.388-.335-.943-.55-1.688a5.177 5.177 0 0 0-.206-.694c-.986.964-2.023 1.677-3.126 2.14a9.056 9.056 0 0 1-3.58.709c-2.232 0-3.979-.591-5.268-1.793-1.297-1.22-1.936-2.751-1.936-4.61 0-1.217.296-2.313.891-3.255a5.485 5.485 0 0 1 2.441-2.2c1.066-.514 2.582-.956 4.566-1.351 2.677-.49 4.544-.964 5.567-1.388v-.581c0-1.114-.285-1.888-.818-2.352-.534-.471-1.57-.716-3.076-.716-1.012 0-1.816.2-2.393.599-.566.416-1.026 1.12-1.377 2.122zm12.865 5.589c-.73.237-1.885.54-3.492.876-1.586.344-2.623.687-3.109.987-.756.537-1.129 1.22-1.129 2.038 0 .796.3 1.494.9 2.075.598.57 1.343.877 2.278.877 1.041 0 2.024-.344 2.974-1.023.68-.52 1.132-1.133 1.351-1.885.157-.49.227-1.432.227-2.81z"/></g><g><path fill="#bbbdbf" d="M280.962 119.008h-5.315v-3.193c-.887 1.242-1.925 2.162-3.126 2.769a7.881 7.881 0 0 1-3.657.89c-2.477 0-4.606-.985-6.385-2.994-1.776-2.01-2.659-4.8-2.659-8.395 0-3.66.865-6.465 2.589-8.372 1.724-1.9 3.916-2.868 6.539-2.868 2.422 0 4.522 1.012 6.287 3.02v-10.78h5.727zm-14.33-6.298c.913 1.498 2.225 2.254 3.868 2.254 1.323 0 2.433-.56 3.376-1.691.906-1.122 1.373-2.791 1.373-5.02 0-2.476-.446-4.281-1.34-5.37-.888-1.095-2.05-1.654-3.46-1.654-1.344 0-2.484.544-3.39 1.64-.939 1.059-1.384 2.692-1.384 4.829 0 2.316.321 3.982.957 5.012z"/></g><g><path fill="#bbbdbf" d="M300.893 103.008c.592-2.097 1.574-3.631 3.01-4.64 1.432-1.007 3.547-1.522 6.356-1.522 2.56 0 4.46.325 5.72.927 1.246.596 2.13 1.359 2.638 2.276.51.943.759 2.637.759 5.143l-.054 6.678c0 1.918.09 3.324.274 4.223.186.898.537 1.885 1.044 2.915h-5.691a22.544 22.544 0 0 1-.537-1.688 5.194 5.194 0 0 0-.208-.694c-.968.964-2.024 1.677-3.134 2.14a9.093 9.093 0 0 1-3.576.709c-2.236 0-3.99-.591-5.275-1.793-1.28-1.22-1.922-2.751-1.922-4.61 0-1.217.285-2.313.87-3.255a5.573 5.573 0 0 1 2.462-2.2c1.052-.514 2.564-.956 4.562-1.351 2.67-.49 4.53-.964 5.56-1.388v-.581c0-1.114-.263-1.888-.811-2.352-.537-.471-1.567-.716-3.087-.716-1.012 0-1.811.2-2.385.599-.573.416-1.026 1.12-1.384 2.122zm12.858 5.589c-.716.237-1.896.54-3.492.876-1.585.344-2.62.687-3.11.987-.755.537-1.124 1.22-1.124 2.038 0 .796.285 1.494.884 2.075.596.57 1.374.877 2.294.877 1.04 0 2.028-.344 2.959-1.023.705-.52 1.154-1.133 1.359-1.885.16-.49.23-1.432.23-2.81z"/></g><g><path fill="#bbbdbf" d="M340.231 89.09h5.728v29.925h-5.728z"/></g><g><path fill="#bbbdbf" d="M367.021 97.331h5.735v21.677h-5.735z"/></g><g><path fill="#2e3191" d="M.682 57.47V1.263h27.324c4.267 0 7.67.756 10.258 2.254 2.582 1.498 4.42 3.338 5.472 5.494 1.052 2.184 1.58 4.416 1.58 6.663 0 3.484-.674 6.052-1.986 7.641-1.333 1.586-2.973 2.886-4.906 3.876 5.786 2.144 8.687 6.7 8.687 13.615 0 2.232-.424 4.354-1.271 6.341a15.752 15.752 0 0 1-3.591 5.246c-1.242 1.22-2.513 2.17-3.755 2.864-1.25.686-2.981 1.241-5.17 1.636-2.213.383-5.172.577-8.85.577zM11.97 32.736v15.03h14.4c5.998 0 9.012-2.759 9.012-8.224 0-2.294-.826-3.996-2.46-5.114-1.624-1.133-3.645-1.692-6.008-1.692zm0-21.775v12.29h13.764c2.469 0 4.478-.52 5.99-1.543 1.528-1.023 2.309-2.612 2.309-4.708 0-2.185-.708-3.752-2.162-4.672-1.447-.903-3.594-1.367-6.436-1.367zm79.29 38.367c0 2.28.208 3.854.614 4.73.423.881 1.023 1.48 1.804 1.78v1.632H81.872a23.08 23.08 0 0 1-1.023-4.942c-1.768 1.83-3.638 3.295-5.596 4.405-1.984 1.1-4.61 1.626-7.876 1.626-2.2 0-4.277-.424-6.202-1.283-1.93-.85-3.49-2.23-4.67-4.029-1.197-1.819-1.796-4.102-1.796-6.816 0-2.6.51-4.85 1.549-6.75a11.3 11.3 0 0 1 4.237-4.413c1.797-1.056 3.923-1.776 6.345-2.119l9.874-1.498c2.543-.358 3.828-1.439 3.828-3.287 0-2.002-.687-3.339-2.06-3.938-1.37-.62-3.09-.92-5.136-.92-2.425 0-4.106.562-5.02 1.654-.934 1.107-1.508 2.481-1.716 4.153H56.017c.405-3.988 1.5-7.042 3.287-9.179 1.79-2.159 3.982-3.598 6.503-4.314 2.542-.723 5.493-1.096 8.843-1.096 2.47 0 4.957.351 7.448.994a14.038 14.038 0 0 1 6.44 3.656c1.82 1.801 2.722 4.27 2.722 7.412zM80.542 37.19c-1.17.917-3.66 1.695-7.441 2.276-1.571.274-2.882.6-3.945 1.02-1.055.412-1.903 1.033-2.524 1.848-.643.825-.972 1.97-.972 3.4 0 1.695.537 2.978 1.586 3.79 1.066.802 2.239 1.2 3.499 1.2 1.637 0 3.222-.336 4.709-1.01a9.146 9.146 0 0 0 3.664-2.866c.935-1.24 1.424-2.695 1.424-4.332zm59.346 20.281h-10.952V32.181c0-1.406-.14-2.718-.41-3.883-.251-1.154-.905-2.155-1.98-3.01-1.062-.884-2.636-1.308-4.755-1.308-1.615 0-3.105.37-4.398 1.09-1.312.737-2.338 1.847-3.091 3.294-.737 1.454-1.117 3.222-1.117 5.253V57.47H102.23V15.82h10.476v6.107h.15c2.857-4.792 7.05-7.203 12.55-7.203 2.77 0 5.254.541 7.424 1.607 2.206 1.067 3.945 2.66 5.18 4.756 1.249 2.083 1.878 4.632 1.878 7.576zm22.65-13.158V57.47h-10.947V1.263h10.948v30.388l13.775-15.83h13.443l-14.71 16.152 15.1 25.497h-13.135l-9.918-17.84zm57.377 13.158V1.263h28.427c4.53 0 8.11.895 10.769 2.714 2.645 1.823 4.453 3.938 5.457 6.39.979 2.44 1.462 4.708 1.462 6.804 0 3.124-.76 5.936-2.287 8.351-1.527 2.422-3.682 4.113-6.407 5.034 1.753.737 3.14 1.585 4.098 2.44.972.854 1.724 2.192 2.247 4.007.515 1.771.782 4.38.782 7.792 0 3.192.04 5.435.128 6.75.069 1.28.284 2.28.62 2.974.336.683.936 1.176 1.776 1.476v1.475h-13.02c-.803-2.79-1.241-6.579-1.241-11.36 0-2.879-.161-5.027-.512-6.43-.358-1.417-1.172-2.49-2.462-3.174-1.286-.683-3.35-1.026-6.202-1.026h-12.132v21.99zm11.503-31.48H245.2c3.127 0 5.42-.6 6.882-1.779 1.45-1.195 2.206-3.138 2.206-5.878 0-1.954-.614-3.664-1.812-5.15-1.198-1.476-3.324-2.222-6.411-2.222h-14.648zm81.106 19.247c-1.315 4.628-3.715 8.032-7.098 10.158-3.408 2.12-7.15 3.164-11.225 3.164-2.996 0-5.78-.38-8.285-1.184a16.664 16.664 0 0 1-6.568-3.85c-1.863-1.775-3.324-4.17-4.34-7.13-1.03-2.952-1.541-6.51-1.541-10.616 0-1.73.234-3.75.69-5.98.457-2.239 1.363-4.533 2.7-6.83 1.35-2.306 3.397-4.278 6.129-5.87 2.704-1.579 6.217-2.375 10.44-2.375 2.302 0 4.603.351 6.83 1.015 2.248.684 4.344 1.841 6.25 3.515 1.938 1.64 3.49 4.014 4.703 7.064 1.2 3.058 1.8 6.853 1.8 11.368v1.944h-28.554c.132 1.691.43 3.228.862 4.624.43 1.417 1.359 2.681 2.776 3.814 1.418 1.14 3.463 1.716 6.108 1.716a8.6 8.6 0 0 0 4.427-1.198c1.333-.82 2.232-1.932 2.608-3.349zm-10.806-12.742c-.26-3.057-1.231-5.278-2.863-6.673-1.63-1.396-3.514-2.075-5.604-2.075-4.997 0-7.824 2.911-8.511 8.748zm43.32-4c-.27-1.694-.92-3.035-1.907-4.003-.968-.964-2.798-1.454-5.45-1.454-4.493 0-6.74 1.344-6.74 4.062 0 1.395 1.498 2.491 4.424 3.244a340.31 340.31 0 0 0 9.509 2.265c3.353.77 6.22 2.038 8.595 3.791 2.353 1.753 3.55 4.362 3.55 7.854 0 3.711-1.007 6.637-2.995 8.785-1.98 2.123-4.38 3.595-7.12 4.358a29.752 29.752 0 0 1-8.152 1.162c-5.487 0-10.163-1.11-14.031-3.339-3.861-2.25-5.86-5.954-5.998-11.05h11.273c0 4.058 3.035 6.078 9.095 6.078 2.495 0 4.318-.44 5.363-1.326 1.059-.894 1.6-1.885 1.6-2.95 0-1.503-1.538-2.653-4.636-3.435a383.444 383.444 0 0 0-9.435-2.283c-3.218-.756-5.98-1.99-8.29-3.708-2.311-1.735-3.473-4.365-3.473-7.883 0-2.235.53-4.452 1.589-6.567 1.06-2.123 2.865-3.88 5.377-5.26 2.51-1.4 5.798-2.112 9.845-2.112 11.792 0 18.053 4.61 18.725 13.771zm31.393 9.107c0 3.397.786 6.247 2.364 8.508 1.585 2.301 4.018 3.434 7.243 3.434 2.167 0 3.93-.65 5.268-1.966 1.352-1.329 2.316-2.962 2.882-4.858a19.84 19.84 0 0 0 .858-5.746c0-3.679-.748-6.696-2.228-9.114-1.49-2.44-3.865-3.649-7.105-3.649-6.191 0-9.304 4.481-9.304 13.391zm0-21.782l-.022 6.045h.16c1.349-2.169 2.953-3.89 4.8-5.165 1.835-1.304 4.392-1.976 7.646-1.976 2.338 0 4.552.456 6.609 1.355 2.07.902 3.93 2.254 5.548 4.055 1.61 1.772 2.868 4.014 3.785 6.71.906 2.696 1.359 5.805 1.359 9.348 0 3.95-.621 7.657-1.86 11.083-1.26 3.43-3.214 6.148-5.844 8.201-2.63 2.06-5.918 3.083-9.82 3.083-5.332 0-9.27-2.133-11.743-6.415h-.161V73.69h-10.955V15.82zm76.33 0v41.65h-10.486v-5.863h-.175c-1.231 2.24-2.93 3.978-5.09 5.151-2.147 1.194-4.7 1.801-7.568 1.801-2.787 0-5.267-.526-7.401-1.626-2.133-1.096-3.788-2.805-4.967-5.088-1.191-2.3-1.798-5.169-1.798-8.614v-27.41h10.959v25.84c0 5.128 2.382 7.667 7.119 7.667 2.203 0 4.19-.742 5.885-2.203 1.71-1.454 2.579-3.894 2.579-7.284v-24.02zm38.105 12.04c-1.487-2.44-3.854-3.649-7.098-3.649-6.243 0-9.366 4.481-9.366 13.391 0 3.38.804 6.247 2.404 8.508 1.607 2.301 4.054 3.434 7.298 3.434 2.156 0 3.913-.65 5.246-1.966 1.344-1.329 2.312-2.962 2.889-4.858.559-1.914.855-3.836.855-5.746 0-3.679-.734-6.696-2.228-9.114zM474.862 1.263v20.003h.16c2.799-4.354 6.825-6.542 12.04-6.542 2.346 0 4.538.456 6.628 1.355 2.07.902 3.923 2.254 5.53 4.055 1.6 1.772 2.857 4.014 3.77 6.71.92 2.696 1.388 5.805 1.388 9.348 0 3.95-.643 7.657-1.874 11.083-1.257 3.43-3.204 6.148-5.841 8.201-2.645 2.06-5.918 3.083-9.82 3.083-5.646 0-9.672-2.1-12.061-6.32h-.153v5.231h-10.722V1.263zM524.52 57.47h-10.948V1.263h10.948zm11.989-41.65h10.95v41.651h-10.95zm10.944-4.924h-10.948V.701h10.948zm22.95 33.416V57.47H559.45V1.263h10.955v30.388l13.783-15.83h13.45l-14.722 16.152 15.12 25.497H584.88l-9.93-17.84zm67.156 5.016c0 2.28.209 3.854.603 4.73.409.881 1.034 1.48 1.819 1.78v1.632H628.16a23.702 23.702 0 0 1-1.015-4.942c-1.776 1.83-3.646 3.295-5.604 4.405-1.958 1.1-4.595 1.626-7.868 1.626-2.207 0-4.274-.424-6.196-1.283-1.921-.85-3.492-2.23-4.675-4.029-1.195-1.819-1.79-4.102-1.79-6.816 0-2.6.504-4.85 1.549-6.75a11.319 11.319 0 0 1 4.233-4.413c1.794-1.056 3.913-1.776 6.342-2.119l9.88-1.498c2.533-.358 3.822-1.439 3.822-3.287 0-2.002-.694-3.339-2.071-3.938-1.36-.62-3.091-.92-5.14-.92-2.403 0-4.098.562-5.004 1.654-.925 1.107-1.516 2.481-1.736 4.153h-10.578c.387-3.988 1.508-7.042 3.302-9.179 1.779-2.159 3.97-3.598 6.498-4.314 2.539-.723 5.487-1.096 8.822-1.096 2.49 0 4.986.351 7.452.994a14.095 14.095 0 0 1 6.45 3.656c1.817 1.801 2.726 4.27 2.726 7.412zM626.838 37.19c-1.176.917-3.65 1.695-7.437 2.276-1.571.274-2.893.6-3.953 1.02-1.048.412-1.9 1.033-2.535 1.848-.621.825-.961 1.97-.961 3.4 0 1.695.53 2.978 1.575 3.79 1.074.802 2.232 1.2 3.52 1.2 1.638 0 3.2-.336 4.71-1.01a9.125 9.125 0 0 0 3.649-2.866c.95-1.24 1.432-2.695 1.432-4.332z"/></g></g></svg>