<?xml version="1.0" encoding="utf-8"?>
<!-- Generator: Adobe Illustrator 18.1.1, SVG Export Plug-In . SVG Version: 6.00 Build 0)  -->
<svg version="1.1" id="Layer_1" xmlns="http://www.w3.org/2000/svg" xmlns:xlink="http://www.w3.org/1999/xlink" x="0px" y="0px"
	 viewBox="0 0 641.8 259" enable-background="new 0 0 641.8 259" xml:space="preserve">
<g>
	<g>
		<path fill-rule="evenodd" clip-rule="evenodd" d="M297.4,224.9h8.1l-4-11.5L297.4,224.9L297.4,224.9z M296.5,227.5l-2.2,6H291
			l8.8-23.2h3.3l8.8,23.2h-3.3l-2.2-6H296.5z"/>
		<path fill-rule="evenodd" clip-rule="evenodd" d="M317.7,212.9v8.1h7c1.4,0,2.5-0.3,3.3-1.1c0.8-0.8,1.2-1.8,1.2-3.1
			c0-1.3-0.4-2.3-1.2-2.9c-0.8-0.7-2.1-1-3.8-1H317.7L317.7,212.9z M314.6,233.5v-23.2h10.3c2.5,0,4.5,0.5,5.8,1.6
			c1.3,1,1.9,2.6,1.9,4.7c0,1.4-0.4,2.6-1.1,3.7c-0.7,1.1-1.7,1.8-2.9,2v0.1c1.2,0.4,2,1,2.5,1.8c0.5,0.8,0.8,2,0.9,3.8
			c0.1,2.5,0.2,3.9,0.3,4.3c0.1,0.4,0.3,0.8,0.6,1.2h-3.3c-0.3-0.4-0.6-0.8-0.7-1.3c-0.1-0.5-0.2-1.7-0.2-3.6c0-1.9-0.4-3.2-1.1-3.9
			c-0.7-0.7-1.8-1-3.3-1h-6.6v9.9H314.6z"/>
		<polygon fill-rule="evenodd" clip-rule="evenodd" points="336,210.3 352.5,210.3 352.5,212.8 339,230.9 353.2,230.9 353.2,233.5 
			335.2,233.5 335.2,230.7 348.9,212.9 336,212.9 		"/>
		<path fill-rule="evenodd" clip-rule="evenodd" d="M356.4,210.3h3.1v13.8c0,2.7,0.4,4.6,1.4,5.7c1,1.2,2.5,1.7,4.6,1.7
			c2.2,0,3.7-0.6,4.7-1.8c0.9-1.2,1.4-3.1,1.4-5.7v-13.8h3.1v14.2c0,3.4-0.8,5.8-2.4,7.4c-1.6,1.5-3.8,2.3-6.8,2.3
			c-3.1,0-5.4-0.8-6.9-2.3c-1.5-1.5-2.3-4-2.3-7.4V210.3z"/>
		<polygon fill-rule="evenodd" clip-rule="evenodd" points="394.9,230.9 394.9,233.5 380,233.5 380,210.3 383.1,210.3 383.1,230.9 
					"/>
		<path fill-rule="evenodd" clip-rule="evenodd" d="M401,224.9h8.1l-4.1-11.5L401,224.9L401,224.9z M400.1,227.5l-2.2,6h-3.4
			l8.8-23.2h3.3l8.8,23.2h-3.3l-2.2-6H400.1z"/>
		<path fill-rule="evenodd" clip-rule="evenodd" d="M421.3,212.9v8.1h7c1.4,0,2.5-0.3,3.3-1.1c0.8-0.8,1.2-1.8,1.2-3.1
			c0-1.3-0.4-2.3-1.2-2.9c-0.8-0.7-2.1-1-3.8-1H421.3L421.3,212.9z M418.2,233.5v-23.2h10.3c2.5,0,4.5,0.5,5.8,1.6
			c1.3,1,1.9,2.6,1.9,4.7c0,1.4-0.4,2.6-1.1,3.7c-0.7,1.1-1.7,1.8-2.9,2v0.1c1.2,0.4,2,1,2.5,1.8c0.5,0.8,0.8,2,0.9,3.8
			c0.1,2.5,0.2,3.9,0.3,4.3c0.1,0.4,0.3,0.8,0.6,1.2h-3.3c-0.3-0.4-0.6-0.8-0.7-1.3c-0.1-0.5-0.2-1.7-0.2-3.6c0-1.9-0.4-3.2-1.1-3.9
			c-0.7-0.7-1.8-1-3.3-1h-6.6v9.9H418.2z"/>
		<path fill-rule="evenodd" clip-rule="evenodd" d="M444.2,224.9h8.1l-4-11.5L444.2,224.9L444.2,224.9z M443.4,227.5l-2.2,6h-3.4
			l8.8-23.2h3.3l8.8,23.2h-3.3l-2.2-6H443.4z"/>
		<polygon fill-rule="evenodd" clip-rule="evenodd" points="473.9,221 480.3,210.3 484,210.3 475.5,223.8 475.5,233.5 472.3,233.5 
			472.3,223.8 463.7,210.3 467.4,210.3 		"/>
		<path fill-rule="evenodd" clip-rule="evenodd" d="M486.3,224.9h8.1l-4.1-11.5L486.3,224.9L486.3,224.9z M485.5,227.5l-2.2,6h-3.4
			l8.8-23.2h3.3l8.8,23.2h-3.3l-2.2-6H485.5z"/>
		<polygon fill-rule="evenodd" clip-rule="evenodd" points="510.2,219.4 516,210.3 519.9,210.3 512.2,221.6 520.3,233.5 
			516.3,233.5 510.2,223.9 504.1,233.5 500,233.5 508.2,221.6 500.5,210.3 504.4,210.3 		"/>
		<rect x="522.5" y="210.3" fill-rule="evenodd" clip-rule="evenodd" width="3.1" height="23.2"/>
		<polygon fill-rule="evenodd" clip-rule="evenodd" points="534.3,215.1 534.3,233.5 531.2,233.5 531.2,210.3 534.7,210.3 
			547,228.7 547,210.3 550.1,210.3 550.1,233.5 546.7,233.5 		"/>
		<path fill-rule="evenodd" clip-rule="evenodd" d="M565.5,221.9c0,3.2,0.7,5.6,2.1,7.3c1.4,1.6,3.3,2.4,5.7,2.4
			c2.3,0,4.2-0.8,5.6-2.4c1.4-1.6,2.2-4,2.2-7.3c0-2.9-0.7-5.2-2-7c-1.3-1.8-3.2-2.7-5.8-2.7c-2.5,0-4.5,0.9-5.8,2.7
			C566.2,216.6,565.5,219,565.5,221.9L565.5,221.9z M562.2,221.9c0-3.9,1-7,3-9.1c2-2.1,4.7-3.2,8.1-3.2c3.4,0,6.1,1.1,8.1,3.2
			c2,2.1,3,5.2,3,9.1c0,3.8-1,6.8-2.9,9c-1.9,2.2-4.6,3.3-8.2,3.3c-3.6,0-6.3-1.1-8.2-3.3C563.1,228.7,562.2,225.7,562.2,221.9z"/>
		<polygon fill-rule="evenodd" clip-rule="evenodd" points="603.6,230.9 603.6,233.5 588.7,233.5 588.7,210.3 591.8,210.3 
			591.8,230.9 		"/>
	</g>
	<g>
		<polygon fill-rule="evenodd" clip-rule="evenodd" fill="#ED1C24" points="486.4,104.1 486.4,111.7 509.9,111.7 509.9,183.9 
			519,183.9 519,111.7 542.7,111.7 542.7,104.1 		"/>
		<path fill-rule="evenodd" clip-rule="evenodd" fill="#ED1C24" d="M464.9,112.1L464.9,112.1l-16.8,0c-4.8,0.1-6.7,2.3-6.8,6.3v19.2
			h21.7h0.6c8.8-0.1,13.8-5.3,14.3-12.7C477.9,116.8,473.2,112.5,464.9,112.1L464.9,112.1z M474.7,141.7c12.6,1.9,16.4,12.6,16,19.5
			c-0.3,16.6-14.1,23.1-25.7,22.7l-0.1-2.1v2.2h-23.6h-5.7h-3.5v-65.7h0c0.3-9.1,5.8-14.3,15.5-14.4v0h17l0.1-0.1
			c11.8,0.2,22.3,7.6,22.1,20.5C487,134,482,138.1,474.7,141.7L474.7,141.7z M464.9,175.7c11.4-0.9,16.2-6.3,16.8-14.6
			c0.1-7.5-3.3-11.5-8.9-13.6l0,0.1c-2-1.2-5.2-1.7-8.7-1.6h-22.7v29.7h23.6V175.7z"/>
		<path fill-rule="evenodd" clip-rule="evenodd" fill="#ED1C24" d="M578.3,112.1L578.3,112.1l-16.8,0c-4.8,0.1-6.7,2.3-6.8,6.3v19.2
			h21.7h0.6c8.8-0.1,13.8-5.3,14.3-12.7C591.4,116.8,586.6,112.5,578.3,112.1L578.3,112.1z M588.1,141.7c12.6,1.9,16.4,12.6,16,19.5
			c-0.3,16.6-14.1,23.1-25.7,22.7l-0.1-2.1v2.2h-23.6H549h-3.5v-65.7h0c0.3-9.1,5.8-14.3,15.5-14.4v0h17l0.1-0.1
			c11.8,0.2,22.3,7.6,22.1,20.5C600.4,134,595.4,138.1,588.1,141.7L588.1,141.7z M578.3,175.7c11.4-0.9,16.2-6.3,16.8-14.6
			c0.1-7.5-3.3-11.5-8.9-13.6l0,0.1c-2-1.2-5.2-1.7-8.7-1.6h-22.7v29.7h23.6V175.7z"/>
		<path fill-rule="evenodd" clip-rule="evenodd" d="M194,112.1L194,112.1h-16.8c-4.7,0.1-6.7,2.3-6.8,6.3v19.2h21.6h0.6
			c8.8-0.1,13.8-5.3,14.3-12.6C207.1,116.8,202.4,112.5,194,112.1L194,112.1z M203.9,141.6c12.6,1.9,16.4,12.5,15.9,19.5
			c-0.3,16.6-14.1,23.1-25.7,22.7l-32.8,0v-65.6h0c0.3-9.1,5.8-14.3,15.5-14.4v0h16.9h0.1c11.7,0.2,22.2,7.5,22.1,20.4
			C216.1,134,211.1,138,203.9,141.6L203.9,141.6z M210.8,161c0.2-10.8-8.5-15.3-17.7-15.2h-22.7v29.6H194
			C194,175.6,209.8,175.9,210.8,161z"/>
		<path fill-rule="evenodd" clip-rule="evenodd" d="M249.3,118.3l-13.4,36l31.7,0l-13.4-36c-0.8-2.3-1.3-4.1-2.6-3.9
			C250.3,114.5,250,116.4,249.3,118.3L249.3,118.3z M259.2,108.7L259.2,108.7l28.1,75.2h-8.7l-7.9-21.4l-37.8,0.1l-7.9,21.3h-8.7
			l28-74.9c0.8-3.4,3.9-6,7.6-6C255.3,103,258.3,105.4,259.2,108.7z"/>
		<path fill-rule="evenodd" clip-rule="evenodd" d="M290.9,108.3L290.9,108.3l0,75.6h8.1v-70.2l45.5,69.9l10,0l0,0l0-80.5h-8.1l0,68
			l-43.8-66.9c-2-1.8-3.3-2.4-5.7-2.3c-2.4,0.1-6,2.2-5.9,6L290.9,108.3z"/>
		<polygon fill-rule="evenodd" clip-rule="evenodd" points="360.3,103.3 369.2,103.3 369.2,142 406.7,103.3 417.3,103.3 
			386.3,135.3 423.3,183.7 412.6,183.7 380.4,141.4 369.2,153 369.2,183.8 360.3,183.8 		"/>
		<path fill-rule="evenodd" clip-rule="evenodd" fill="#ED1C24" d="M78.1,213.7c2.5-13.9-0.3-26.2-7.8-34.5
			c-12.5-13.1-17.4-23.1-18.8-32c-2.4-12.2,1.4-37.2,9.4-70.6c-12.7,33.9-21.4,59.2-21.8,73.1c-0.4,14.8,2.9,26.8,9.2,36.7
			C58.2,202.7,71.2,203.9,78.1,213.7z"/>
		<path fill-rule="evenodd" clip-rule="evenodd" fill="#ED1C24" d="M87.9,213.9c-2.5-13.9,0.3-26.2,7.8-34.5
			c12.5-13.1,17.4-23.1,18.8-32c2.4-12.2-1.4-37.2-9.4-70.6c12.7,33.9,21.4,59.2,21.8,73.1c0.4,14.8-2.9,26.8-9.2,36.7
			C107.8,202.8,94.7,204.1,87.9,213.9z"/>
		<path fill-rule="evenodd" clip-rule="evenodd" fill="#ED1C24" d="M83.2,13.2c3.1,31,10.1,63.7,20.5,96.7
			c5.5,14.9,5.4,29.3,1.8,39.4c-4.2,12.1-18.5,21.1-22.6,35.9c-2.1-12.3-18-23.1-22.5-36.8c-3.7-11.4-2.7-24.7,2.4-39.9
			C73,80.1,79.2,47.8,83.2,13.2z"/>
	</g>
</g>
</svg>
