<svg xmlns="http://www.w3.org/2000/svg" width="649" height="178" viewBox="0 0 649 178"><g><g><path fill="#ff9b00" d="M55.507 75.725l-.058-16.841 67.787-.232a9.648 9.648 0 0 0 9.622-9.68c-.023-5.321-4.353-9.625-9.675-9.625l-62.658.232c-11.675.036-21.261 9.393-21.216 21.126l.04 13.305c.031 11.715 9.666 21.27 21.372 21.235l62.65-.215-.072-19.537zm4.898-74.9C27.518.914.685 27.934.801 60.848l.045 13.288c.111 32.895 27.123 59.738 60.005 59.612l62.648-.214-.075-22.36-62.644.215c-20.609.07-37.509-16.734-37.58-37.325l-.045-13.287c-.066-20.61 16.734-37.522 37.326-37.593l62.644-.196c14.488-.053 26.855 11.66 26.904 26.163.049 13.59-10.296 25.895-26.73 26.342l20.457 19.573c14.096-7.09 29.954-22.092 29.874-45.272-.076-23.181-20.454-49.22-47.286-49.13z"/></g><g><path fill="#231f20" d="M148.76 128.801c1.14-9.055 5.797-12.466 12.4-12.484 7.3-.017 11.095 4.233 11.327 12.413zm28.464 20.716c-3.692 1.375-9.43 2.447-13.903 2.483-8.644.017-14.501-2.786-14.734-16.395l32.378-.107c.482-1.947.567-4.75.563-5.537-.05-13.322-6.384-21.18-20.292-21.144-14.002.071-21.752 8.929-21.69 25.556.063 19.538 8.729 25.056 23.226 25.002 6.223-.017 11.362-1.107 16.126-3.161z"/></g><g><path fill="#231f20" d="M219.728 158.215l-12.6-17.948-12.488 18.037-10.795.035 18.399-24.948-17.587-23.681 10.796-.035 12.117 17.465 11.703-17.537 10.5-.035-17.426 23.787 18.266 24.824z"/></g><g><path fill="#231f20" d="M245.243 117.979c3.6-.982 6.023-1.965 11.662-1.983 10.804-.035 12.372 8.519 12.403 17.252.04 10.697-2.652 18.68-13.25 18.716-3.895.018-6.909-.464-10.703-1.411zm.13 38.396c.09-.09.196-.09.295-.196 3.5 1.946 7.782 2.893 11.773 2.875 15.461-.035 21.346-11.733 21.31-26.324-.044-12.644-4.956-24.288-19.047-24.234-5.263.017-9.24.999-13.992 4.428h-.478l-.022-3.41-9.04.035.227 68.06 9.05-.035z"/></g><g><path fill="#231f20" d="M309.982 116.585c-7.488-.07-13.028 1.02-16.033 2.394l.13 38.985-9.042.036-.155-48.629 9.027-.019.013 3.787h.505c4.643-3.126 9.6-5.09 15.524-4.804z"/></g><g><path fill="#231f20" d="M322.072 128.211c1.139-9.037 5.79-12.447 12.399-12.483 7.299-.018 11.095 4.25 11.313 12.412zm28.45 20.716c-3.684 1.375-9.426 2.465-13.886 2.483-8.653.018-14.496-2.768-14.742-16.377l32.378-.107c.486-1.946.576-4.785.576-5.554-.058-13.323-6.398-21.18-20.315-21.127-14.001.036-21.738 8.911-21.684 25.538.07 19.556 8.74 25.056 23.22 25.02 6.233-.035 11.372-1.107 16.127-3.178z"/></g><g><path fill="#231f20" d="M363.808 148.696c3.402 1.25 9.73 2.59 14.005 2.571 6.118-.017 10.89-1.982 10.872-6.839-.013-5.252-5.38-6.698-11.603-8.233-7.872-1.822-14.6-5.305-14.627-14.252-.036-9.911 7.23-13.822 18.806-13.858 4.47 0 10.112 1.339 13.907 2.59l-1.616 7.482c-4.473-1.643-9.045-2.59-12.658-2.571-6.116 0-9.412 2.16-9.398 6.054.018 5.143 5.853 6.107 11.095 7.536 7.79 2.018 15.091 4.626 15.122 14.537.04 10.501-8.8 14.912-20.154 14.948-4.389 0-11.099-1.125-15.287-2.483z"/></g><g><path fill="#231f20" d="M405.996 148.552c3.406 1.251 9.72 2.59 14.005 2.572 6.117-.018 10.88-1.982 10.877-6.84-.023-5.25-5.38-6.697-11.618-8.233-7.871-1.803-14.6-5.286-14.626-14.233-.018-9.912 7.24-13.84 18.818-13.877 4.47-.017 10.127 1.322 13.908 2.572l-1.616 7.501c-4.478-1.643-9.063-2.59-12.662-2.59-6.116.018-9.416 2.18-9.403 6.072.018 5.143 5.858 6.108 11.1 7.537 7.795 2.018 15.095 4.607 15.126 14.537.044 10.5-8.8 14.912-20.158 14.948-4.398.017-11.1-1.143-15.292-2.483z"/></g><g><path fill="#231f20" d="M456.241 117.264c3.304-.983 5.822-1.965 11.068-1.982 11.675-.036 12.956 8.518 12.997 17.27.031 10.697-2.858 18.661-13.845 18.698-3.3.035-6.233-.465-10.113-1.41zm-8.916 37.271c4.366 1.43 11.97 3.84 19.734 3.822 16.042-.054 22.717-11.75 22.672-26.342-.049-12.626-5.139-24.27-19.234-24.216-4.764 0-8.737.982-13.79 4.107h-.484l-.085-23.519-9.045 1z"/></g><g><path fill="#231f20" d="M526.739 148.82c-3.79.875-8.746 1.965-14.287 1.983-4.572.035-7.202-1.518-7.22-6.572-.013-3.215 1.153-6.429 7.46-6.447l14.007-.054zm-.352-17.019c-4.375-1.053-9.622-1.41-13.314-1.41-10.711.035-16.917 4.053-16.877 14.054.022 10.02 6.765 13.787 15.006 13.751 5.354-.017 10.609-1.482 15.077-4.41h.478c.299 2.714 3.12 4.357 6.327 4.34 3.21 0 5.447-.68 9.134-2.25l-.013-5.448-6.42.018-.09-26.93c-.045-11.68-7.527-15.93-18.715-15.878-6.613.018-12.162 1-16.997 2.964l1.468 7.002c4.858-1.483 8.25-2.466 14.095-2.483 7.773-.036 11.086 3.071 11.117 9.983l.028 6.697z"/></g><g><path fill="#231f20" d="M559.108 117.907l.13 39.164-9.046.018-.16-48.612 9.036-.017.022 3.785h.491c5.032-3.322 9.992-4.786 15.332-4.82 9.924-.037 15.684 5.303 15.72 16l.103 33.54-9.037.035-.107-31.11c-.022-6.233-1.785-10.984-9.37-10.947-5.837 0-10.007 1.66-13.114 2.964z"/></g><g><path fill="#231f20" d="M611.823 127.64l8.662-.036 14.71-19.412 10.6-.018-17.435 22.413 20.417 26.18-10.987.054-17.082-21.84-8.858.035.075 21.877-9.045.035-.223-68.06 9.04-1z"/></g></g></svg>