<svg xmlns="http://www.w3.org/2000/svg" width="685" height="95" viewBox="0 0 685 95"><g><g><path fill="#005896" d="M80.842 50.241c0 18.725-15.186 33.912-33.912 33.912S13.018 68.967 13.018 50.241 28.204 16.328 46.93 16.328s33.912 15.187 33.912 33.913zM46.947 84.153h-.035M41.504 42.78h38.513"/></g><g/><g/><g/><g/><g/><g/><g/><g/><g/><g/><g/><g/><g/><g/><g/><g/><g/><g/><g/><g/><g/><g/><g/><g/><g/><g/><g/><g/><g/><g/><g/><g/><g/><g><path fill="#307caf" d="M41.504 42.78h31.407c0-8.443-3.332-16.107-8.752-21.75a33.75 33.75 0 0 0-17.229-4.702c-18.726 0-33.912 15.187-33.912 33.913 0 2.542.281 5.018.812 7.401 5.301 9.85 15.705 16.545 27.674 16.545 17.345 0 31.407-14.06 31.407-31.407z"/></g><g><path fill="#337eb0" d="M41.504 42.78H72.58c0-8.784-3.645-16.715-9.505-22.367a33.747 33.747 0 0 0-16.145-4.085c-18.726 0-33.912 15.187-33.912 33.913 0 2.117.195 4.19.567 6.2 5.056 10.313 15.657 17.415 27.92 17.415 17.162 0 31.075-13.913 31.075-31.076z"/></g><g/><g/><g/><g/><g/><g/><g/><g/><g/><g/><g/><g/><g><path fill="#518ebb" d="M41.504 42.78h26.78c0-13.322-9.73-24.37-22.47-26.432-14.188.46-26.177 9.638-30.78 22.351a26.926 26.926 0 0 0-.309 4.081c0 14.79 11.99 26.78 26.78 26.78 14.788 0 26.777-11.99 26.777-26.78z"/></g><g/><g/><g/><g/><g/><g/><g/><g/><g/><g/><g/><g/><g/><g/><g/><g/><g/><g/><g/><g><path fill="#7ca8cb" d="M41.504 42.78h20.167c0-11.138-9.03-20.167-20.167-20.167-11.138 0-20.167 9.03-20.167 20.167 0 11.138 9.03 20.167 20.167 20.167 11.137 0 20.166-9.029 20.166-20.167z"/></g><g/><g/><g/><g/><g/><g/><g/><g/><g/><g/><g/><g/><g/><g/><g/><g/><g/><g/><g><path fill="#a4c2db" d="M41.504 42.78H55.39c0-7.669-6.217-13.885-13.885-13.885S27.618 35.112 27.618 42.78s6.218 13.885 13.886 13.885c7.668 0 13.885-6.217 13.885-13.885z"/></g><g><path fill="#a4c2db" d="M41.504 42.78H55.06c0-7.486-6.069-13.555-13.555-13.555S27.95 35.295 27.95 42.78c0 7.485 6.07 13.555 13.555 13.555 7.486 0 13.555-6.069 13.555-13.555z"/></g><g/><g/><g/><g/><g/><g/><g><path fill="#b4cde2" d="M41.504 42.78h11.24c0-6.208-5.032-11.24-11.24-11.24s-11.24 5.032-11.24 11.24 5.032 11.24 11.24 11.24 11.24-5.032 11.24-11.24z"/></g><g/><g/><g/><g/><g/><g/><g/><g/><g/><g><path fill="#cadbea" d="M41.504 42.78h7.934a7.935 7.935 0 1 0-15.869 0 7.935 7.935 0 0 0 15.87 0z"/></g><g/><g/><g/><g/><g/><g/><g><path fill="#d7e4f0" d="M41.504 42.78h5.62a5.62 5.62 0 1 0-11.241 0 5.62 5.62 0 0 0 11.241 0z"/></g><g/><g/><g/><g/><g/><g/><g/><g/><g/><g/><g/><g/><g/><g/><g/><g><path fill="#fcfdfe" d="M41.504 42.78h.33a.33.33 0 1 0-.66 0 .33.33 0 0 0 .66 0z"/></g><g><path fill="#005896" d="M155.364 4.728l23.613 71.942c2.68 7.887 3.318 8.353 8.934 8.82v3.71c-4.594-.118-9.19-.348-13.913-.348-4.848 0-9.062.23-14.422.349V85.49c4.342 0 7.147-.12 7.147-3.254 0-1.271-.509-2.898-.89-4.292l-5.62-19.027h-23.995l-5.998 16.94c-.64 1.74-1.405 4.177-1.405 5.684 0 3.244 2.68 3.6 6.638 3.949v3.71c-3.83-.118-7.403-.348-11.109-.348-3.697 0-7.272.23-10.972.349l-.002-3.601c7.022-.458 8.807-4.991 12.892-15.66l24.251-65.212zm-6.254 17.407l-11.233 32.14h20.808z"/></g><g><path fill="#005896" d="M229.235 73.65c-3.192 5.34-7.276 9.051-13.402 9.051-10.977 0-15.957-12.066-15.957-25.176 0-10.91 3.959-22.513 13.149-22.513 2.808 0 5.36 1.394 6.254 4.41.38 1.508.38 3.133.64 4.641.125 1.043.636 4.525 5.485 4.525 2.554 0 6.637-1.509 6.637-5.569 0-5.686-7.786-12.067-18.378-12.067-15.062 0-25.146 12.761-25.146 31.33 0 6.611.895 17.174 8.68 23.317 3.573 2.906 8.805 4.643 14.04 4.643 13.277 0 18.635-9.278 21.953-14.967z"/></g><g><path fill="#005896" d="M279.02 73.65c-3.191 5.34-7.278 9.051-13.403 9.051-10.977 0-15.955-12.066-15.955-25.176 0-10.91 3.956-22.513 13.149-22.513 2.806 0 5.36 1.394 6.25 4.41.385 1.508.385 3.133.64 4.641.128 1.043.638 4.525 5.489 4.525 2.552 0 6.637-1.509 6.637-5.569 0-5.686-7.786-12.067-18.382-12.067-15.06 0-25.142 12.761-25.142 31.33 0 6.611.892 17.174 8.68 23.317 3.573 2.906 8.805 4.643 14.038 4.643 13.277 0 18.637-9.278 21.954-14.967z"/></g><g><path fill="#005896" d="M333.27 75.392c-2.17 4.522-7.019 14.383-22.207 14.383-14.939 0-23.23-11.022-23.23-28.307 0-6.612 1.02-14.272 4.848-20.538 5.106-8.237 13.146-10.095 18.51-10.095 5.613 0 10.846 1.858 14.548 4.99 7.02 6.266 7.02 15.087 7.15 22.045h-33.7c.256 5.803.641 14.504 6.768 20.773 1.657 1.736 4.594 4.296 10.081 4.297 7.532 0 11.488-6.157 13.275-8.943zM321.4 53.81c-.128-6.73-.512-18.563-10.209-18.563-9.959 0-11.36 11.95-12.002 18.563z"/></g><g><path fill="#005896" d="M360.589 65.647c6.123 2.899 10.081 5.336 10.081 10.903 0 4.872-3.829 9.406-10.977 9.406-3.829 0-7.019-1.4-9.316-3.72-3.573-3.711-3.958-8.701-4.211-12.53h-4.978v16.588c5.106 1.865 10.081 3.72 17.481 3.72 16.983 0 21.698-9.98 21.698-17.174.001-9.746-5.867-13.575-11.479-16.476-3.701-1.86-7.531-3.366-11.233-5.221-2.816-1.394-6.639-3.25-6.639-8.238.001-3.135 2.169-7.893 9.956-7.893 10.082 0 10.978 7.893 11.489 12.185l4.718-.001V33.04c-5.357-1.045-10.978-2.088-16.207-2.088-8.17-.001-12.382 2.669-14.169 4.293-3.316 2.903-5.231 7.659-5.231 12.184 0 9.282 7.91 12.997 12.253 15.083z"/></g><g><path fill="#005896" d="M407.396 65.647c6.123 2.899 10.08 5.336 10.08 10.903 0 4.872-3.83 9.406-10.977 9.406-3.83 0-7.018-1.4-9.314-3.72-3.573-3.711-3.956-8.701-4.213-12.53h-4.981v16.588c5.109 1.865 10.09 3.72 17.485 3.72 16.98 0 21.698-9.98 21.698-17.174 0-9.746-5.868-13.575-11.48-16.476-3.702-1.86-7.53-3.366-11.232-5.221-2.815-1.394-6.636-3.25-6.636-8.238 0-3.135 2.166-7.893 9.953-7.893 10.08 0 10.977 7.893 11.489 12.185l4.717-.001V33.04c-5.356-1.045-10.978-2.088-16.206-2.088-8.171-.001-12.385 2.669-14.167 4.293-3.318 2.903-5.238 7.659-5.238 12.184 0 9.282 7.916 12.997 12.258 15.083z"/></g><g><path fill="#6b727a" d="M434.669 6.236c4.98.232 9.962.466 14.807.466 1.28 0 4.98-.117 8.683-.234 3.7-.114 7.404-.232 8.81-.232 4.973 0 14.799.118 20.93 6.497 3.32 3.25 4.846 7.893 4.845 12.418 0 14.272-13.526 18.68-18.124 20.073 5.62.812 11.872 1.741 17.366 7.077a20.115 20.115 0 0 1 6.38 14.738c0 4.523-1.407 8.353-3.318 11.367-6.763 10.566-18.381 10.795-26.041 10.795-2.805 0-17.1-.349-20.29-.349-4.598 0-9.323.12-14.048.35V85.37c6.518-.346 8.043-1.737 8.17-7.426v-58.13c-.127-6.498-.127-9.4-8.17-9.747zM462.5 43.831c6.25-.232 17.483-.696 17.483-17.173 0-14.852-10.72-16.129-17.1-16.129-7.915 0-7.915 3.712-7.915 7.428v25.874zm-7.532 4.295v29.818c0 6.385 3.06 6.96 9.57 6.961 3.7 0 7.915-.229 11.872-2.322 6.124-3.245 8.674-9.86 8.674-16.357 0-17.405-14.423-18.1-23.48-18.1z"/></g><g><path fill="#6b727a" d="M536.754 45.688c0-3.134 0-10.676-8.427-10.676-3.19 0-5.74 1.508-7.15 3.482-1.141 1.625-1.141 2.902-1.141 4.525 0 1.161-.127 5.686-6.261 5.687-2.294 0-5.867-1.163-5.868-4.993 0-4.988 6.636-12.414 20.803-12.414 4.342 0 9.57.813 13.025 2.903 6.124 3.713 6.124 10.211 6.124 13.807v31.676c0 1.042.129 3.254 2.422 3.255 1.535 0 2.815-.815 3.957-1.519l2.55 3.025c-3.19 2.314-7.146 5.101-11.863 5.101-4.853 0-7.404-2.787-8.043-7.192-3.574 2.787-9.323 7.192-16.6 7.192-9.057 0-15.18-6.964-15.18-15.199 0-5.686 2.806-11.489 9.569-15.2 6.124-3.365 14.425-4.179 22.083-4.874zm0 12.067c-8.3 1.045-20.418 2.552-20.42 14.04 0 6.035 4.078 10.56 9.954 10.56 4.342 0 7.915-2.322 10.466-4.064z"/></g><g><path fill="#6b727a" d="M561.094 38.377c4.98.117 7.029.464 7.147 5.106v34.809c-.118 5.223-.502 6.492-7.147 6.731v4.059c3.829-.23 7.915-.466 11.745-.466 4.469 0 8.939.237 13.409.466v-4.058c-6.517-.12-6.518-1.508-6.645-10.327V44.413c2.943-2.437 7.147-6.15 13.024-6.15 8.044 0 8.17 7.542 8.3 10.908v27.266c-.256 7.773-.768 8.348-6.646 8.816v3.829c3.959-.23 8.044-.466 12-.466 4.342 0 8.172.237 12.77.466v-3.83c-6.39-.11-6.901-1.508-6.773-7.308v-31.79c-.128-3.6-.247-8.59-5.101-11.951-2.805-1.974-6.635-2.786-9.826-2.786-7.657-.001-13.535 4.409-18.251 8.006v-8.354h-3.958c-.64.347-1.28.695-1.92.928-3.573 1.858-8.162 2.206-12.128 2.436z"/></g><g><path fill="#6b727a" d="M624.288 7.05c6.635 0 6.634 1.625 6.764 9.05v57.32c-.129 10.79-.13 12.18-6.893 12.07v3.83c4.342-.239 8.555-.468 12.898-.468 3.957 0 7.521.12 12.119.467v-3.602c-5.74-.118-6.636-1.626-6.636-7.426v-19.49c2.421-.116 2.933.115 4.726 1.856l13.399 18.214c1.408 1.975 2.55 3.484 2.55 4.645 0 2.083-2.806 2.201-4.077 2.201v3.602c3.693-.238 7.267-.467 11.735-.467 3.958 0 8.428.23 13.529.467v-3.602c-3.574 0-5.612-.347-8.547-4.525-5.62-7.889-13.024-17.983-20.547-28.078l12.632-12.068c3.702-3.482 5.996-4.874 11.49-5.336l.001-3.714c-3.703.232-7.533.466-11.236.466-3.829 0-7.786-.234-11.488-.466v3.713c1.792-.116 5.11.001 5.11 2.206 0 1.157-1.664 3.131-2.816 4.407-3.18 3.483-11.352 11.836-13.399 12.88-1.271.698-2.166.698-3.062.581V.32h-3.958c-.768.35-1.525.814-2.422 1.16-3.317 1.276-9.569 1.625-11.872 1.74z"/></g><g><path fill="#6b727a" d="M37.545 6.692c14.28-3.045 29.74.97 40.833 12.061 17.412 17.41 17.567 45.537.16 62.943l-.94.941 15.815-.036v6.426h-26.77l-.003-26.775h6.423l-.014 15.774c.09-.118.787-.772.787-.772 14.902-14.9 14.902-39.06 0-53.962-9.844-9.843-23.728-13.184-36.314-10.022z"/></g><g><path fill="#005896" d="M56.34 93.77c-14.285 3.053-29.77-.96-40.869-12.056-17.41-17.41-17.567-45.538-.159-62.945l.94-.94-15.815.034V11.44h26.771l.002 26.774h-6.423l.013-15.776c-.089.119-.785.772-.785.772-14.9 14.903-14.9 39.062 0 53.96 9.843 9.845 23.73 13.19 36.313 10.027z"/></g></g></svg>