<?xml version="1.0" encoding="utf-8"?>
<!-- Generator: Adobe Illustrator 22.0.1, SVG Export Plug-In . SVG Version: 6.00 Build 0)  -->
<svg version="1.1" id="Layer_1" xmlns="http://www.w3.org/2000/svg" xmlns:xlink="http://www.w3.org/1999/xlink" x="0px" y="0px"
	 viewBox="0 0 387.1 87" style="enable-background:new 0 0 387.1 87;" xml:space="preserve">
<style type="text/css">
	.st0{fill:#7A0B3C;}
	.st1{fill:#B11C44;}
	.st2{fill:#CA2B36;}
</style>
<title>logo son versiya gradientsiz</title>
<g>
	<path class="st0" d="M265.9,74.3h3.2c0.5,0,1,0,1.5,0.1c0.4,0.1,0.8,0.2,1.1,0.5c0.3,0.2,0.6,0.5,0.8,0.8c0.2,0.4,0.3,0.8,0.3,1.2
		c0,0.5-0.2,1-0.5,1.4c-0.3,0.5-0.8,0.8-1.4,0.9v0.1c0.7,0.1,1.3,0.4,1.8,0.8c0.5,0.5,0.7,1.1,0.7,1.7c0,0.5-0.1,0.9-0.3,1.4
		c-0.2,0.4-0.5,0.7-0.8,1c-0.4,0.3-0.8,0.5-1.3,0.6c-0.5,0.1-1.1,0.2-1.6,0.2h-3.4L265.9,74.3z M268.8,78.8c0.7,0.1,1.4-0.1,2-0.5
		c0.4-0.3,0.6-0.8,0.6-1.4c0-0.5-0.2-1-0.6-1.3c-0.6-0.3-1.2-0.4-1.9-0.4h-1.6v3.5H268.8z M269.1,83.8c0.7,0,1.5-0.1,2.1-0.5
		c0.5-0.4,0.8-1,0.8-1.6c0-0.6-0.2-1.1-0.7-1.5c-0.7-0.3-1.4-0.5-2.2-0.5h-1.8v4L269.1,83.8z"/>
	<path class="st0" d="M278.5,73.3c-0.2,0-0.5-0.1-0.7-0.3c-0.3-0.3-0.4-0.9,0-1.2c0,0,0,0,0,0c0.4-0.3,0.9-0.3,1.3,0
		c0.3,0.3,0.4,0.9,0,1.2c0,0,0,0,0,0C279,73.2,278.8,73.3,278.5,73.3 M277.9,74.3h1.4v10.6h-1.4V74.3z"/>
	<path class="st0" d="M290.4,84.9l-2.6-4.5h-1.9v4.5h-1.4V74.3h3.3c0.5,0,1,0,1.5,0.1c0.4,0.1,0.8,0.3,1.2,0.5
		c0.3,0.2,0.6,0.6,0.8,0.9c0.2,0.4,0.3,0.9,0.3,1.4c0,0.7-0.2,1.4-0.6,2c-0.5,0.5-1.1,0.8-1.7,1l2.7,4.6L290.4,84.9z M285.9,79.3
		h1.8c0.7,0,1.3-0.1,1.9-0.5c0.5-0.4,0.7-1,0.7-1.5c0.1-0.6-0.2-1.1-0.7-1.5c-0.6-0.3-1.2-0.5-1.9-0.4h-1.8V79.3z"/>
	<path class="st0" d="M297.1,73.3c-0.2,0-0.5-0.1-0.7-0.3c-0.3-0.3-0.4-0.9,0-1.2c0,0,0,0,0,0c0.4-0.3,0.9-0.3,1.3,0
		c0.3,0.3,0.4,0.9,0,1.2c0,0,0,0,0,0C297.6,73.2,297.4,73.3,297.1,73.3 M296.5,74.3h1.3v10.6h-1.3V74.3z"/>
	<path class="st0" d="M303.2,74.3h1.4l3.9,6.7l1.1,2.2h0.1c0-0.5-0.1-1.1-0.1-1.7s-0.1-1.1-0.1-1.7v-5.5h1.3v10.6h-1.4l-3.9-6.7
		l-1.1-2.2h-0.1c0,0.5,0.1,1.1,0.1,1.6s0.1,1.1,0.1,1.7v5.6h-1.3L303.2,74.3z"/>
	<path class="st0" d="M315.5,79.6c0-0.8,0.1-1.6,0.4-2.3c0.2-0.6,0.6-1.2,1-1.7c0.4-0.5,0.9-0.8,1.5-1.1c0.6-0.3,1.2-0.4,1.9-0.4
		c0.6,0,1.2,0.1,1.7,0.4c0.5,0.2,0.9,0.5,1.2,0.9l-0.8,0.9c-0.3-0.3-0.6-0.5-0.9-0.7c-0.4-0.2-0.8-0.3-1.2-0.3
		c-0.5,0-0.9,0.1-1.4,0.3c-0.4,0.2-0.8,0.5-1.1,0.9c-0.3,0.4-0.5,0.9-0.7,1.4c-0.2,0.6-0.2,1.2-0.2,1.8c0,0.6,0.1,1.2,0.2,1.8
		c0.1,0.5,0.4,1,0.7,1.4c0.3,0.4,0.6,0.7,1,0.9c0.4,0.2,0.9,0.3,1.4,0.3c0.5,0,0.9-0.1,1.4-0.3c0.4-0.2,0.8-0.5,1.1-0.9l0.8,0.8
		c-0.4,0.5-0.9,0.9-1.4,1.1c-0.6,0.3-1.2,0.4-1.8,0.4c-0.6,0-1.3-0.1-1.9-0.4c-0.6-0.2-1.1-0.6-1.5-1.1c-0.4-0.5-0.8-1.1-1-1.7
		C315.5,81.2,315.4,80.4,315.5,79.6"/>
	<path class="st0" d="M328.5,73.3c-0.2,0-0.5-0.1-0.7-0.3c-0.3-0.3-0.4-0.9,0-1.2c0,0,0,0,0,0c0.4-0.3,0.9-0.3,1.3,0
		c0.3,0.3,0.4,0.9,0,1.2c0,0,0,0,0,0C329,73.2,328.7,73.3,328.5,73.3 M327.8,74.3h1.3v10.6h-1.3V74.3z"/>
	<path class="st0" d="M340.3,74.3h3.2c0.5,0,1,0,1.5,0.1c0.4,0.1,0.8,0.2,1.2,0.5c0.3,0.2,0.6,0.5,0.7,0.8c0.2,0.4,0.3,0.8,0.3,1.2
		c0,0.5-0.2,1-0.5,1.4c-0.3,0.5-0.8,0.8-1.4,0.9v0.1c0.7,0.1,1.3,0.4,1.8,0.8c0.4,0.5,0.7,1.1,0.6,1.7c0,0.5-0.1,0.9-0.3,1.4
		c-0.2,0.4-0.5,0.7-0.8,1c-0.4,0.3-0.8,0.5-1.3,0.6c-0.5,0.1-1.1,0.2-1.6,0.2h-3.4V74.3z M343.2,78.8c0.7,0.1,1.4-0.1,2-0.5
		c0.4-0.3,0.6-0.8,0.6-1.4c0-0.5-0.2-1-0.6-1.3c-0.6-0.3-1.2-0.4-1.9-0.4h-1.6v3.5H343.2z M343.5,83.8c0.8,0,1.5-0.1,2.1-0.5
		c0.5-0.4,0.8-1,0.8-1.6c0-0.6-0.3-1.1-0.8-1.5c-0.7-0.3-1.4-0.5-2.2-0.5h-1.9v4L343.5,83.8z"/>
	<path class="st0" d="M357.1,81.7h-3.9l-1,3.3h-1.4l3.6-10.6h1.5l3.6,10.6h-1.4L357.1,81.7z M356.8,80.6l-0.5-1.6
		c-0.2-0.6-0.4-1.2-0.6-1.8l-0.5-1.8h-0.1c-0.2,0.6-0.3,1.2-0.5,1.8s-0.4,1.2-0.6,1.8l-0.5,1.6H356.8z"/>
	<path class="st0" d="M363.5,74.3h1.4l3.8,6.7l1.2,2.2h0.1c0-0.5-0.1-1.1-0.1-1.7s-0.1-1.1-0.1-1.7v-5.5h1.3v10.6h-1.4l-3.9-6.7
		l-1.1-2.2h-0.1c0,0.5,0.1,1.1,0.1,1.6s0.1,1.1,0.1,1.7v5.6h-1.3L363.5,74.3z"/>
	<polygon class="st0" points="376.4,74.3 377.8,74.3 377.8,79.6 377.8,79.6 382.3,74.3 383.8,74.3 380.5,78.3 384.3,84.9 
		382.8,84.9 379.6,79.4 377.8,81.5 377.8,84.9 376.4,84.9 	"/>
	<polygon class="st0" points="1.9,69.8 1.9,69.8 69.8,69.8 69.8,69.8 35.9,35.8 	"/>
	<polygon class="st1" points="1.9,1.9 1.9,1.9 1.9,69.8 35.9,35.9 	"/>
	<polygon class="st0" points="96.5,35.5 115.4,55.3 115.4,55.7 106.2,55.7 89.8,38.4 89.8,55.7 82.4,55.7 82.4,16.5 89.8,16.5 
		89.8,33.1 104.7,16.5 113.9,16.5 113.9,16.7 	"/>
	<path class="st0" d="M135,42.8c0-3.5-2.4-7.2-6.1-7.2s-6.1,3.7-6.1,7.2s2.3,7.3,6.1,7.3S135,46.3,135,42.8 M141.6,55.7h-7.3v-2.4
		h-0.1c-1.7,2.1-4.3,3.3-7,3.2c-7.6,0-11.9-6.9-11.9-13.9s4.4-13.6,11.8-13.6c2.8,0,5.4,1.2,7.2,3.3v-2.4h7.3L141.6,55.7z"/>
	<path class="st0" d="M167,42.8c0-3.5-2.3-7.2-6.1-7.2s-6.1,3.7-6.1,7.2s2.3,7.3,6.1,7.3S167,46.3,167,42.8 M155.5,32.3
		c1.8-2.1,4.4-3.2,7.1-3.2c7.3,0,11.8,6.8,11.8,13.6c0,7-4.3,13.9-11.9,13.9c-2.7,0.1-5.2-1.2-6.9-3.3h-0.1v16.2h-7.4V29.9h7.4
		L155.5,32.3z"/>
	<path class="st0" d="M186.9,55.7h-7.4V29.9h7.4V55.7z M187.6,19.1c0,2.4-2,4.4-4.4,4.4c-2.4,0-4.4-2-4.4-4.4c0-2.4,2-4.4,4.4-4.4
		c0,0,0,0,0,0C185.7,14.7,187.6,16.6,187.6,19.1C187.6,19.1,187.6,19.1,187.6,19.1z"/>
	<polygon class="st0" points="202.1,55.7 194.7,55.7 194.7,36.1 192.2,36.1 192.2,29.9 194.7,29.9 194.7,21.2 202.1,21.2 
		202.1,29.9 206.6,29.9 206.6,36.1 202.1,36.1 	"/>
	<path class="st0" d="M227.5,42.8c0-3.5-2.4-7.2-6.2-7.2s-6.1,3.7-6.1,7.2s2.3,7.3,6.1,7.3S227.5,46.3,227.5,42.8 M234,55.7h-7.3
		v-2.4h-0.1c-1.7,2.1-4.3,3.3-7,3.2c-7.6,0-11.9-6.9-11.9-13.9s4.4-13.6,11.8-13.6c2.8,0,5.4,1.2,7.2,3.3v-2.4h7.3L234,55.7z"/>
	<rect x="240.6" y="11.1" class="st0" width="7.4" height="44.6"/>
	<path class="st0" d="M316.2,42.8c0-3.5-2.4-7.2-6.1-7.2s-6.1,3.7-6.1,7.2s2.3,7.3,6.1,7.3S316.2,46.3,316.2,42.8 M322.7,55.7h-7.3
		v-2.4h-0.1c-1.7,2.1-4.3,3.3-7,3.2c-7.6,0-11.9-6.9-11.9-13.9s4.4-13.6,11.8-13.6c2.8,0,5.4,1.2,7.2,3.3v-2.4h7.3V55.7z"/>
	<path class="st0" d="M336.7,32.3h0.1c1.5-2.2,4.1-3.4,6.7-3.2c7,0,9,4.9,9,10.9v15.8h-7.4V42.1c0-3.1,0.2-7.1-4-7.1
		c-4.4,0-4.4,4.9-4.4,8v12.8h-7.4V29.9h7.4L336.7,32.3z"/>
	<polygon class="st0" points="366.4,39.4 366.5,39.4 374.3,29.9 383.8,29.9 372.9,41.3 384.7,55.7 375,55.7 366.5,44.8 366.4,44.8 
		366.4,55.7 359,55.7 359,11.1 366.4,11.1 	"/>
	<path class="st0" d="M272.6,49.5h4.8c4.1,0,7.7-0.5,7.7-5.7s-4.2-5.4-8.1-5.4h-4.5V49.5z M272.6,32.5h4.2c3.8,0,5.6-1.1,5.6-5.2
		s-2.3-5.1-5.6-5.1h-4.2V32.5z M264.9,16h12.8c7.4,0,11.9,2.9,11.9,10.8c0,2.8-1,6.1-3.5,7.7c4.7,0.8,6.8,5.6,6.8,9.9
		c0,7.8-5.5,11.3-12.7,11.3h-15.4V16z"/>
	<polygon id="SVGID" class="st2" points="69.8,1.9 69.8,1.9 1.9,1.9 1.9,1.9 35.9,35.9 	"/>
</g>
</svg>
