<?xml version="1.0" encoding="UTF-8" standalone="no"?>
<svg
   xmlns:dc="http://purl.org/dc/elements/1.1/"
   xmlns:cc="http://creativecommons.org/ns#"
   xmlns:rdf="http://www.w3.org/1999/02/22-rdf-syntax-ns#"
   xmlns:svg="http://www.w3.org/2000/svg"
   xmlns="http://www.w3.org/2000/svg"
   viewBox="0 0 2244.1599 262.74667"
   height="262.74667"
   width="2244.1599"
   xml:space="preserve"
   id="svg2"
   version="1.1"><metadata
     id="metadata8"><rdf:RDF><cc:Work
         rdf:about=""><dc:format>image/svg+xml</dc:format><dc:type
           rdf:resource="http://purl.org/dc/dcmitype/StillImage" /></cc:Work></rdf:RDF></metadata><defs
     id="defs6"><clipPath
       id="clipPath20"
       clipPathUnits="userSpaceOnUse"><path
         id="path18"
         d="M 0,0 H 14662 V 1716.63 H 0 Z" /></clipPath></defs><g
     transform="matrix(1.3333333,0,0,-1.3333333,0,262.74667)"
     id="g10"><g
       transform="scale(0.114792)"
       id="g12"><g
         id="g14"><g
           clip-path="url(#clipPath20)"
           id="g16"><path
             id="path22"
             style="fill:#5a696e;fill-opacity:1;fill-rule:evenodd;stroke:none"
             d="M 710.672,331.598 C 659.324,292.391 604.852,257.066 542.211,229.535 478.898,198.176 408.82,182.418 337.48,182.418 224.047,182.418 141.449,213.785 86.125,276.43 27.1875,335.598 0,418.34 0,520.43 v 805.12 H 278.809 V 617.996 c 0,-66.32 11.671,-117.613 35.039,-148.859 27.98,-31.649 63.05,-50.797 117.781,-50.797 43.621,0 86.687,15.289 137.629,39.183 47.297,23.172 90.066,51.032 129.746,78.665 V 1325.55 H 977.813 V 202.051 H 710.672 v 129.547" /><path
             id="path24"
             style="fill:#5a696e;fill-opacity:1;fill-rule:evenodd;stroke:none"
             d="m 2070.39,202.051 h -279.05 v 699.277 c 0,66.785 -8.55,117.372 -31.39,153.232 -19.85,38.66 -58.97,58.56 -117.79,58.56 -43.36,0 -90.62,-11.61 -141.86,-38.98 -46.85,-23.98 -90.06,-51.03 -125.66,-78.952 V 202.051 H 1095.72 V 1325.55 h 263.02 V 1199.8 c 55.44,39.07 110.46,74.52 173.25,105.97 62.91,27.05 129.6,43.15 204.32,43.15 109.79,0 192.65,-31.46 251.48,-89.95 55.03,-63.11 82.6,-145.85 82.6,-247.53 V 202.051" /><path
             id="path26"
             style="fill:#5a696e;fill-opacity:1;fill-rule:evenodd;stroke:none"
             d="M 2843.84,202.051 H 2580.56 V 1714.12 h 279.18 V 1211.7 c 39.39,43.07 82.35,78.17 133.44,101.89 47.26,23.84 110.02,35.33 180.94,35.33 66.73,0 125.96,-11.49 180.43,-39.01 55.43,-27.98 102.03,-66.75 145.65,-118.04 39.38,-50.63 70.78,-114.26 94.15,-184.64 23.37,-70.398 35.04,-153.113 35.04,-243.406 0,-86.488 -11.67,-165.14 -35.04,-240.07 -19.7,-70.082 -51.09,-133.395 -90.36,-184.828 -43.06,-46.535 -90.33,-85.86 -145.09,-113.528 -55.29,-27.222 -118.05,-42.98 -184.78,-42.98 -58.82,0 -118.33,11.621 -172.93,31.367 -55.43,23.164 -106.4,58.856 -157.35,113.988 z m 15.9,321.703 c 35.05,-38.981 74.72,-70.082 114.26,-94.063 38.86,-23.164 81.79,-35.003 125.14,-35.003 43.62,0 79.06,7.812 110.03,27.128 27.71,19.485 51.38,47.321 74.74,78.567 19.7,35.805 31.37,74.812 43.07,117.613 7.88,43.68 11.96,90.887 11.96,141.77 0,55.14 -4.08,106.031 -15.76,153.234 -7.9,47.297 -23.1,86.48 -42.82,118.19 -19.81,35.07 -43.48,58.36 -75.11,78.4 -31.13,19.43 -66.57,27.31 -109.79,27.31 -47.01,0 -90.62,-11.67 -129.48,-39.13 -43.22,-27.57 -78.66,-59.08 -106.24,-90.54 V 523.754" /><path
             id="path28"
             style="fill:#5a696e;fill-opacity:1;fill-rule:evenodd;stroke:none"
             d="m 4352.32,327.773 c -62.76,-51.343 -121.46,-86.539 -180.43,-109.96 -59.1,-23.774 -122.01,-35.395 -184.77,-35.395 -54.73,0 -102.03,7.797 -145.1,23.633 -43.61,19.347 -78.65,38.984 -110.31,70.379 -27.31,27.773 -47.03,62.496 -63.05,101.879 -15.34,40.031 -23.37,83.097 -23.37,130.246 0,70.429 12.37,129.043 43.35,176.343 27.72,47.356 66.82,86.801 117.79,114.313 47.27,27.719 110.02,51.086 176.75,66.586 70.92,15.894 145.39,27.508 231.78,39.066 l 125.66,11.961 v 55.492 c 0,58.874 -19.43,105.294 -59.08,133.684 -35.18,30.9 -86.02,46.65 -144.97,46.65 -58.97,0 -117.79,-11.41 -172.82,-39.53 -51.09,-23.57 -106.23,-62.96 -157.32,-105.89 L 3673,1168.14 c 74.47,63 153.13,110.32 235.46,137.63 82.34,31.66 165.08,43.15 247.68,43.15 78.8,0 145.77,-7.61 204.32,-27.51 58.82,-19.23 106.12,-47.09 144.97,-82.54 39.8,-35.13 66.97,-74.67 87.21,-121.52 15.09,-51.09 26.79,-102.12 26.79,-160.588 V 202.051 h -267.11 z m -94.15,408.418 c -121.6,-19.433 -208.29,-43.269 -259.38,-74.515 -51.06,-31.66 -74.43,-78.742 -74.43,-137.922 0,-43.059 15.75,-78.242 43.07,-105.414 27.45,-23.652 66.69,-40.031 110.17,-40.031 43.2,0 86.56,12.05 129.62,32.066 43.07,19.316 86.66,47.148 133.4,86.07 v 251.621 l -82.45,-11.875" /><path
             id="path30"
             style="fill:#5a696e;fill-opacity:1;fill-rule:evenodd;stroke:none"
             d="m 5704,202.051 h -278.79 v 699.277 c 0,66.785 -12.24,117.372 -31.67,153.232 -23.34,38.66 -62.35,58.56 -121.58,58.56 -43.06,0 -90.48,-11.61 -137.5,-38.98 -51.21,-23.98 -94.28,-51.03 -129.87,-78.952 V 202.051 H 4725.52 V 1325.55 h 267.66 V 1199.8 c 50.94,39.07 109.76,74.52 172.4,105.97 58.97,27.05 129.75,43.15 200.94,43.15 113.44,0 196.18,-31.46 250.91,-89.95 59,-63.11 86.57,-145.85 86.57,-247.53 V 202.051" /><path
             id="path32"
             style="fill:#5a696e;fill-opacity:1;fill-rule:evenodd;stroke:none"
             d="M 6807.71,202.051 H 6489.7 l -322.14,498.808 -75.14,-82.863 V 202.051 h -278.4 V 1329.43 h 278.4 V 960.297 l 338.3,365.253 326.05,3.88 -400.76,-432.035 451.7,-695.344" /><path
             id="path34"
             style="fill:#5a696e;fill-opacity:1;fill-rule:evenodd;stroke:none"
             d="m 2423.91,1278.46 c -78.66,-78.66 -181.12,-102.23 -239.8,-62.96 V 202.051 H 2463.3 V 1325.55 c -12.37,-15.64 -24.05,-35.68 -39.39,-47.09" /><path
             id="path36"
             style="fill:#ed5b27;fill-opacity:1;fill-rule:evenodd;stroke:none"
             d="m 2223.39,1635.98 c -82.75,-82.79 -106.26,-196.64 -50.83,-252.07 54.62,-54.48 168.31,-31.05 251.35,51.29 81.78,82.66 105.67,196.99 50.66,251.82 -55,54.73 -168.74,31.25 -251.18,-51.04" /><path
             id="path38"
             style="fill:#5a696e;fill-opacity:1;fill-rule:nonzero;stroke:none"
             d="m 7617.3,0.0078125 h 48.3672 V 1607.8778 H 7617.3 Z" /><path
             id="path40"
             style="fill:#5a696e;fill-opacity:1;fill-rule:nonzero;stroke:none"
             d="m 9079.98,1046.29 c 23.09,0 32.32,-8.3 32.32,-31.36 V 422.859 c 0,-23.05 -9.23,-31.351 -32.32,-31.351 h -52.53 c -23.08,0 -31.36,8.301 -31.36,31.351 V 669.105 H 8723.07 V 422.859 c 0,-23.05 -8.27,-31.351 -31.32,-31.351 h -52.58 c -23.05,0 -32.29,8.301 -32.29,31.351 v 592.071 c 0,23.06 9.24,31.36 32.29,31.36 h 52.58 c 23.05,0 31.32,-8.3 31.32,-31.36 V 776.996 h 273.02 v 237.934 c 0,23.06 8.28,31.36 31.36,31.36 h 52.53" /><path
             id="path42"
             style="fill:#5a696e;fill-opacity:1;fill-rule:nonzero;stroke:none"
             d="m 9314.32,562.129 c 0,-59.941 35.98,-94.074 106.02,-94.074 69.16,0 106.97,34.133 106.97,94.074 v 20.289 h -212.99 z m 319.97,14.758 c 0,-129.121 -74.75,-199.211 -213.95,-199.211 -140.17,0 -213.09,79.316 -213.09,190.898 v 56.258 c 0,26.754 13.86,39.656 41.56,39.656 h 278.5 v 34.133 c 0,59.942 -37.81,92.219 -105.15,92.219 -51.65,0 -87.63,-16.606 -108.8,-48.883 -14.72,-21.211 -24.91,-23.047 -47.04,-11.062 l -32.23,17.527 c -21.26,10.141 -24.92,24.891 -11.16,46.101 35.98,59.024 102.45,88.536 199.23,88.536 143.92,0 212.13,-76.539 212.13,-197.36 V 576.887" /><path
             id="path44"
             style="fill:#5a696e;fill-opacity:1;fill-rule:nonzero;stroke:none"
             d="m 9954.26,883.059 c 21.25,0 28.57,-6.461 28.57,-28.594 v -40.567 c 0,-21.222 -7.32,-28.601 -28.57,-28.601 h -33.19 c -34.15,0 -63.6,-3.676 -87.55,-11.063 -6.54,-0.921 -9.24,-4.617 -9.24,-11.07 V 420.098 c 0,-21.211 -6.44,-28.59 -27.7,-28.59 h -50.7 c -21.25,0 -28.57,7.379 -28.57,28.59 v 382.726 c 0,29.516 6.44,40.571 35.89,52.559 45.21,16.605 102.44,25.832 171.61,27.676 h 29.45" /><path
             id="path46"
             style="fill:#5a696e;fill-opacity:1;fill-rule:nonzero;stroke:none"
             d="m 10632.1,425.621 c 13.8,-24.887 9.2,-34.113 -17.5,-34.113 h -47.1 c -32.2,0 -38.6,3.683 -48.8,25.828 l -57.2,122.648 c -13.8,30.43 -37.8,45.196 -73.8,45.196 h -55.3 V 421.023 c 0,-22.136 -6.4,-29.515 -29.5,-29.515 h -47.1 c -23,0 -30.4,7.379 -30.4,29.515 v 623.417 c 0,22.14 7.4,29.51 30.4,29.51 h 47.1 c 23.1,0 29.5,-7.37 29.5,-29.51 V 684.777 h 47.9 l 125.5,163.231 c 13.8,19.363 21.2,21.222 55.3,21.222 h 45.2 c 29.5,0 36,-11.082 18.5,-33.207 l -139.3,-172.449 c 25.9,-12.929 48,-38.742 66.4,-76.547 l 80.2,-161.406" /><path
             id="path48"
             style="fill:#5a696e;fill-opacity:1;fill-rule:nonzero;stroke:none"
             d="m 10789.9,562.129 c 0,-59.941 35.9,-94.074 106.1,-94.074 69.1,0 106.9,34.133 106.9,94.074 v 20.289 h -213 z m 320,14.758 c 0,-129.121 -74.7,-199.211 -213.9,-199.211 -140.3,0 -213.1,79.316 -213.1,190.898 v 56.258 c 0,26.754 13.8,39.656 41.5,39.656 h 278.5 v 34.133 c 0,59.942 -37.8,92.219 -105.1,92.219 -51.7,0 -87.6,-16.606 -108.8,-48.883 -14.8,-21.211 -24.9,-23.047 -47.1,-11.062 l -32.3,17.527 c -21.1,10.141 -24.9,24.891 -11,46.101 35.9,59.024 102.3,88.536 199.2,88.536 143.8,0 212.1,-76.539 212.1,-197.36 V 576.887" /><path
             id="path50"
             style="fill:#5a696e;fill-opacity:1;fill-rule:nonzero;stroke:none"
             d="m 11377.4,883.059 c 98.6,0 165,-33.196 197.3,-98.676 10.2,-18.449 4.6,-32.274 -14.8,-41.5 l -41.5,-16.606 c -21.2,-8.3 -26.8,-6.453 -38.7,12.903 -17.5,32.285 -50.7,47.957 -99.6,47.957 -58.1,0 -86.7,-16.586 -86.7,-49.797 0,-40.574 27.7,-49.793 107.9,-57.18 125.5,-11.988 188.2,-45.176 188.2,-148.476 0,-93.133 -71.1,-154.008 -199.3,-154.008 -107.9,0 -177.1,36.89 -205.6,111.59 -7.3,19.367 -0.9,32.277 18.4,38.73 l 41.5,12.914 c 18.5,7.375 29.5,3.692 37.8,-17.527 13.9,-34.117 48.9,-50.719 104.2,-50.719 65.5,0 97.8,18.441 97.8,54.418 0,40.57 -28.5,50.719 -110.7,59.02 -43.3,4.601 -68.2,8.304 -104.2,22.128 -17.5,6.454 -32.2,14.766 -43.4,24.915 -22.1,19.355 -38.6,54.402 -38.6,101.437 0,91.293 65.5,148.477 190,148.477" /><path
             id="path52"
             style="fill:#5a696e;fill-opacity:1;fill-rule:nonzero;stroke:none"
             d="m 11737.9,869.23 c 21.3,0 28.6,-6.46 28.6,-27.675 V 420.098 c 0,-21.211 -7.3,-28.59 -28.6,-28.59 h -50.7 c -21.2,0 -27.7,7.379 -27.7,28.59 v 421.457 c 0,21.215 6.5,27.675 27.7,27.675 z m -22.1,178.91 c 43.4,0 56.3,-13.84 56.3,-55.339 v -8.305 c 0,-43.34 -12.9,-56.242 -56.3,-56.242 h -6.5 c -41.4,0 -56.2,12.902 -56.2,56.242 v 8.305 c 0,41.499 12.9,55.339 56.2,55.339 h 6.5" /><path
             id="path54"
             style="fill:#5a696e;fill-opacity:1;fill-rule:nonzero;stroke:none"
             d="m 12088.4,883.059 c 129.1,0 191.8,-66.411 191.8,-185.371 v -277.59 c 0,-21.211 -7.4,-28.59 -28.6,-28.59 h -50.8 c -21.1,0 -27.6,7.379 -27.6,28.59 v 274.82 c 0,59.949 -33.2,90.379 -100.5,90.379 -29.5,0 -59,-3.676 -88.5,-11.984 -4.6,-1.848 -6.5,-4.618 -6.5,-9.219 V 420.098 c 0,-21.211 -6.4,-28.59 -27.7,-28.59 h -50.7 c -21.2,0 -28.5,7.379 -28.5,28.59 v 379.023 c 0,29.516 6.4,40.59 35.9,52.578 52.6,21.215 112.5,31.36 181.7,31.36" /><path
             id="path56"
             style="fill:#5a696e;fill-opacity:1;fill-rule:nonzero;stroke:none"
             d="m 12885.2,694.918 c 0,58.105 -35.1,90.379 -100.5,90.379 -30.5,0 -61.9,-5.531 -95.1,-16.602 v -272.05 c 0,-4.618 2.8,-8.301 7.4,-10.141 21.3,-7.387 47.1,-11.07 79.3,-11.07 72.9,0 108.9,33.199 108.9,100.519 z M 12662,1073.95 c 21.2,0 27.6,-7.37 27.6,-28.59 V 867.371 c 45.2,10.149 82.1,15.688 110.8,15.688 128.1,0 191.8,-61.793 191.8,-185.371 V 573.184 c 0,-130.036 -69.2,-195.508 -208.5,-195.508 -65.4,0 -120.8,10.148 -166.9,29.512 -29.5,13.835 -34.1,21.214 -34.1,50.718 v 587.454 c 0,21.22 7.4,28.59 28.5,28.59 h 50.8" /><path
             id="path58"
             style="fill:#5a696e;fill-opacity:1;fill-rule:nonzero;stroke:none"
             d="m 13357.4,583.34 c -64.6,2.762 -97.8,4.601 -100.6,4.601 -66.3,0 -88.5,-19.367 -88.5,-59.945 0,-41.492 19.4,-61.789 86.7,-61.789 39.6,0 70.1,2.77 92.3,7.371 6.4,2.777 10.1,6.465 10.1,12.926 z m -90.4,299.719 c 131.9,0 197.3,-63.629 197.3,-189.981 V 454.223 c 0,-32.285 -7.3,-41.504 -33.1,-52.575 -37,-15.671 -92.3,-23.972 -166.1,-23.972 -78.3,0 -131.8,11.984 -161.3,36.89 -29.6,23.985 -44.3,61.789 -44.3,112.516 0,109.738 59,148.477 209.4,148.477 6.4,0 35.9,-1.844 88.5,-4.625 v 25.832 c 0,59.941 -25.8,91.3 -92.3,91.3 -45.1,0 -77.4,-14.753 -96.8,-44.261 -13.8,-19.375 -18.4,-21.211 -39.6,-13.84 l -36.9,15.68 c -20.3,9.222 -25.8,23.05 -15.7,41.492 33.2,63.644 96.8,95.922 190.9,95.922" /><path
             id="path60"
             style="fill:#5a696e;fill-opacity:1;fill-rule:nonzero;stroke:none"
             d="m 13778.8,883.059 c 129.1,0 191.8,-66.411 191.8,-185.371 v -277.59 c 0,-21.211 -7.3,-28.59 -28.5,-28.59 h -50.7 c -21.3,0 -27.7,7.379 -27.7,28.59 v 274.82 c 0,59.949 -33.2,90.379 -100.6,90.379 -29.5,0 -58.9,-3.676 -88.5,-11.984 -4.6,-1.848 -6.4,-4.618 -6.4,-9.219 V 420.098 c 0,-21.211 -6.5,-28.59 -27.7,-28.59 h -50.7 c -21.2,0 -28.6,7.379 -28.6,28.59 v 379.023 c 0,29.516 6.5,40.59 36,52.578 52.5,21.215 112.5,31.36 181.6,31.36" /><path
             id="path62"
             style="fill:#5a696e;fill-opacity:1;fill-rule:nonzero;stroke:none"
             d="m 14479.7,425.621 c 13.9,-24.887 9.3,-34.113 -17.5,-34.113 h -47 c -32.2,0 -38.7,3.683 -48.9,25.828 l -57.1,122.648 c -13.9,30.43 -37.8,45.196 -73.8,45.196 h -55.3 V 421.023 c 0,-22.136 -6.5,-29.515 -29.6,-29.515 h -47 c -23.1,0 -30.4,7.379 -30.4,29.515 v 623.417 c 0,22.14 7.3,29.51 30.4,29.51 h 47 c 23.1,0 29.6,-7.37 29.6,-29.51 V 684.777 h 47.9 l 125.4,163.231 c 13.9,19.363 21.2,21.222 55.3,21.222 h 45.3 c 29.5,0 35.9,-11.082 18.4,-33.207 l -139.3,-172.449 c 25.8,-12.929 47.9,-38.742 66.4,-76.547 l 80.2,-161.406" /><path
             id="path64"
             style="fill:#5a696e;fill-opacity:1;fill-rule:nonzero;stroke:none"
             d="m 14633.8,869.23 c 21.2,0 28.5,-6.46 28.5,-27.675 V 420.098 c 0,-21.211 -7.3,-28.59 -28.5,-28.59 h -50.7 c -21.2,0 -27.7,7.379 -27.7,28.59 v 421.457 c 0,21.215 6.5,27.675 27.7,27.675 h 50.7" /></g></g></g></g></svg>