<svg xmlns="http://www.w3.org/2000/svg" width="631" height="159" viewBox="0 0 631 159"><g><g><path fill="#231f20" d="M101.506 6.825H76.401L.682 82.448h25.095z"/></g><g><path fill="#ec1c24" d="M69.899 6.825l-34.59 34.676L.683 6.825z"/></g><g><path fill="#ec1c24" d="M32.29 82.448l34.609-34.666 34.608 34.666z"/></g><g><path fill="#231f20" d="M432.537 47.193c2.21 1.496 4.005 3.445 5.5 5.866 1.447 2.441 2.171 5.374 2.171 8.79 0 3.521-.762 6.59-2.335 9.185a19.44 19.44 0 0 1-5.934 6.397c-2.364 1.64-5.065 2.865-8.056 3.724a33.409 33.409 0 0 1-9.29 1.293h-35.825v-3.792c.85-.106 2.103-.212 3.724-.453 1.65-.223 2.817-.512 3.503-.83 1.09-.492 1.91-1.148 2.353-1.978.454-.849.666-1.949.666-3.242V17.766c0-1.197-.174-2.277-.598-3.174-.366-.936-1.167-1.689-2.42-2.258a15.071 15.071 0 0 0-3.572-1.206 20.713 20.713 0 0 0-3.28-.53V6.814h34.88c2.74 0 5.296.27 7.756.791s4.805 1.477 7.082 2.827a15.24 15.24 0 0 1 5.142 5.056c1.4 2.132 2.055 4.737 2.055 7.796 0 2.662-.5 5.027-1.467 7.091a15.232 15.232 0 0 1-4.052 5.384 22.735 22.735 0 0 1-5.596 3.57c-2.103.994-4.428 1.765-6.85 2.277v.473c2.171.26 4.573.781 7.227 1.64 2.75.83 5.113 1.987 7.216 3.473zm-32.118-6.899h6.753c2.885 0 5.403-.385 7.45-1.148 2.141-.743 3.791-1.842 5.035-3.338 1.37-1.534 2.277-3.194 2.78-5.017.501-1.804.79-3.946.79-6.435 0-4.178-1.196-7.458-3.425-9.784-2.296-2.373-5.856-3.56-10.796-3.56-1.12 0-2.538.03-4.265.106-1.718.03-3.155.077-4.322.126zm22.422 33.287c2.808-3.087 4.197-7.622 4.197-13.633 0-4.477-1.524-8.162-4.525-11.037-2.962-2.876-7.275-4.333-12.86-4.333-2.239 0-4.169.04-5.732.107-1.62.048-2.759.106-3.502.115v26.658c0 2.248.897 3.937 2.691 5.095 1.795 1.08 4.323 1.67 7.574 1.67 5.278 0 9.36-1.525 12.157-4.642zm-214.519 4.844c1.592.125 2.943.212 4.081.231v3.792H172.97v-3.792c3.242-.067 5.867-.328 7.844-.8 1.998-.502 3.02-1.255 3.02-2.239 0-.53-.453-1.63-1.35-3.3-.907-1.679-2.104-3.54-3.512-5.596-1.583-2.267-3.464-4.93-5.625-8.018-2.19-3.068-4.332-6.02-6.474-8.808-3.464 4.12-7.439 9.06-11.858 14.868-4.428 5.837-6.667 9.233-6.667 10.265 0 1.187.59 2.055 1.814 2.567 1.196.57 3.88.926 7.99 1.061v3.792h-31.445v-3.792c1.023-.067 2.345-.203 3.927-.395 1.601-.194 2.904-.54 3.956-1.004 2.036-.984 3.724-2.055 4.94-3.184 1.292-1.167 2.508-2.537 3.772-4.1 2.537-3.127 5.79-7.034 9.735-11.713 3.946-4.66 7.477-8.906 10.507-12.746-2.306-3.02-5.21-6.86-8.799-11.49-3.53-4.64-7.323-9.58-11.376-14.859-1.717-2.277-3.039-3.83-4.003-4.757-.956-.936-2.239-1.746-3.889-2.393-.945-.415-2.248-.723-3.946-.954a70.872 70.872 0 0 0-3.985-.454V6.815h38.98v3.792a51.851 51.851 0 0 0-7.16.762c-2.47.444-3.724 1.158-3.724 2.055 0 .705.483 1.862 1.505 3.56a70.772 70.772 0 0 0 3.484 5.403c1.36 1.997 2.923 4.178 4.611 6.63 1.698 2.401 3.811 5.18 6.252 8.345a332.588 332.588 0 0 0 11.55-14.695c3.241-4.36 4.891-7.226 4.891-8.529 0-1.148-.772-1.987-2.21-2.518-1.514-.52-4.004-.849-7.535-1.013V6.815h31.415v3.792c-1.004.048-2.306.173-3.898.405-1.61.222-2.943.57-4.004 1.003-2.045.87-3.589 1.844-4.612 2.866-1.023 1.023-2.373 2.538-4.07 4.467-3.157 3.667-6.08 7.082-8.762 10.333-2.625 3.184-5.857 7.092-9.658 11.743 3.222 4.023 6.744 8.635 10.604 13.787a8931.47 8931.47 0 0 1 11.201 14.761 36.313 36.313 0 0 0 4.207 4.564c1.62 1.42 2.875 2.383 3.878 2.972.955.472 2.21.8 3.831.917zm284.45-6.3c0 3.057 2.923 6.811 9.551 6.811v2.624c-1.679.753-3.473 1.245-4.814 1.64-1.457.348-3 .56-4.737.56-3.068 0-5.509-.656-7.372-1.959-1.775-1.302-2.98-3.434-3.473-5.895h-.347c-2.538 2.538-7.902 7.854-18.757 7.854-4.35 0-7.9-1.196-10.719-3.618-2.798-2.422-4.236-6.3-4.236-9.446 0-2.064.358-3.869.966-5.45 3.232-8.356 15.66-10.518 21.95-12.534 5.383-1.727 9.02-2.924 10.931-3.83v-5.288c0-4.525-2.036-11.298-11.115-11.298-4.969 0-7.69 1.968-8.298 2.576 0 .695.492 2.152.87 3.531.356 1.4 1.707 8.404-6.764 8.404-1.94 0-5.645-1.312-5.722-5.943-.01-1.64.646-3.396 1.92-4.9 1.302-1.487 2.972-2.79 4.998-3.977 8.857-5.084 19.924-3.454 22.374-2.962 12.601 2.432 12.794 13.141 12.794 16.721zm-11.057-18.757c-3.339.897-6.156 1.737-8.684 2.586-2.47.868-4.805 1.91-6.966 3.184-1.949 1.225-3.512 2.663-4.66 4.322-1.138 1.631-1.698 3.59-1.698 5.866 0 2.933.86 5.133 2.586 6.503 1.67 1.4 3.84 2.065 6.445 2.065 2.78 0 5.258-.598 7.362-1.824a23.186 23.186 0 0 0 5.615-4.505zM261.696 72.124c0 3.058 2.894 6.812 9.561 6.812v2.624c-1.669.753-3.464 1.245-4.853 1.64-1.399.348-2.972.56-4.708.56-3.097 0-5.529-.656-7.352-1.959-1.833-1.302-2.99-3.434-3.474-5.895h-.376c-2.557 2.538-7.873 7.854-18.717 7.854-4.37 0-7.94-1.196-10.768-3.618-2.798-2.422-4.197-6.3-4.197-9.446 0-2.064.31-3.869.926-5.45 3.242-8.356 15.67-10.518 21.95-12.534 5.384-1.727 9.04-2.924 10.932-3.83v-5.288c0-4.525-2.027-11.298-11.125-11.298-4.92 0-7.67 1.968-8.268 2.576 0 .695.473 2.152.868 3.531.357 1.4 1.698 8.404-6.764 8.404-1.958 0-5.653-1.312-5.702-5.943-.009-1.64.647-3.396 1.92-4.9 1.274-1.487 2.924-2.79 4.98-3.977 8.827-5.084 19.903-3.454 22.373-2.962 12.63 2.432 12.794 13.141 12.794 16.721zM250.62 53.368c-3.329.897-6.156 1.737-8.645 2.586-2.499.868-4.834 1.91-6.986 3.184-1.948 1.225-3.54 2.663-4.669 4.322-1.129 1.631-1.699 3.59-1.699 5.866 0 2.933.87 5.133 2.567 6.503 1.708 1.4 3.88 2.065 6.484 2.065 2.798 0 5.24-.598 7.361-1.824 2.113-1.216 4.12-2.846 5.587-4.505zm52.631 25.568v3.512H274.77v-3.512c3.802 0 8.77-1.06 8.77-5.46V12.623c0-3.233-.298-8.028-11.809-8.028V1.171l21.998-.79.83.79v72.304c0 4.4 4.814 5.461 8.693 5.461zm327.558.01v3.512h-16.247s-17.358-24.266-18.785-26.273l-4.352 4.072v13.218c0 4.4 4.834 5.451 8.703 5.451v3.522h-28.53v-3.522c3.85 0 8.8-1.05 8.8-5.45V12.623c0-3.233-.309-8.028-11.82-8.028V1.181l22.017-.8.83.8v55.13c3.203-3.03 15.514-15.08 15.514-15.08s3.754-3.426 2.79-5.539c-.454-.984-2.095-2.363-6.523-2.363v-3.426h23.097v3.426c-5.44 0-13.044 7.033-13.044 7.033l-10.236 9.61s16.093 21.525 17.81 23.764c1.544 2.102 3.821 5.21 9.976 5.21zm-265.906 23.657c.926.415 2.152.675 3.618.965a50.7 50.7 0 0 0 3.551.531v3.54h-31.617v-3.54c1.235-.097 2.45-.184 3.618-.27a30.536 30.536 0 0 0 3.242-.55c1.205-.367 2.074-.985 2.537-1.863.473-.917.714-1.958.714-3.155V77.344l-.386-.116c-.637.637-1.534 1.4-2.663 2.19a17.73 17.73 0 0 1-3.666 2.065 28.331 28.331 0 0 1-4.564 1.727c-1.486.415-3.26.608-5.489.608-3.57 0-6.928-.656-10.083-1.997-3.126-1.322-5.876-3.194-8.172-5.683-2.326-2.402-4.217-5.384-5.558-8.896-1.34-3.56-2.045-7.448-2.045-11.655 0-4.004.762-7.65 2.373-10.95a28.956 28.956 0 0 1 6.281-8.607c2.51-2.306 5.51-4.158 8.983-5.519 3.493-1.35 6.966-2.035 10.401-2.035 2.576 0 4.834.192 6.84.684 2.007.415 3.677.946 5.133 1.525a30.114 30.114 0 0 1 3.695 1.794c1.216.714 2.104 1.216 2.606 1.467L359.26 27l3.406.454c-.154 2.653-.377 5.856-.627 9.715-.26 3.821-.396 7.188-.396 10.025v50.171c0 1.245.222 2.335.772 3.232.521.917 1.36 1.583 2.49 2.007zm-14.337-61.295c-.309-.907-.859-1.872-1.592-2.962-.782-1.08-1.65-2.017-2.692-2.837-1.129-.859-2.44-1.573-4.033-2.132-1.63-.589-3.473-.849-5.567-.849-4.612 0-8.5 2.142-11.655 6.406-3.106 4.332-4.689 10.247-4.689 17.782 0 2.943.28 5.663.936 8.075.588 2.422 1.631 4.67 3.145 6.774a15.919 15.919 0 0 0 5.384 4.795c2.151 1.177 4.93 1.756 8.23 1.756 2.885 0 5.297-.54 7.323-1.62 1.968-1.072 3.714-2.346 5.21-3.812zm217.54 37.628v3.522h-27.788v-3.522c3.88 0 8-1.06 8-5.442l.028-27.025c0-7.805-4.207-11.664-9.369-11.664-6.889 0-11.115 4.216-13.334 7.921v30.768c0 4.381 4.091 5.442 7.96 5.442v3.522h-27.787v-3.522c3.86 0 8.81-1.06 8.81-5.442l-.078-10.034V40.565c0-3.242-1.573-7.082-9.86-7.082v-3.02l20.202-1.196.753.762v7.381h.261c.83-.849 8.336-8.944 17.627-8.944 6.484 0 9.774 1.67 12.331 4.708 2.711 3.281 3.521 7.304 3.521 12.552l-.048 27.768c0 4.381 4.95 5.442 8.77 5.442z"/></g><g><path fill="#231f20" d="M74.713 136.16c-.29.02-.733.087-1.311.203-.56.106-1.072.308-1.42.54-.375.212-.616.752-.781 1.515-.115.8-.202 1.736-.202 2.855v10.006c0 1.264-.27 2.373-.782 3.33a6.764 6.764 0 0 1-2.112 2.305c-.85.607-1.737 1.031-2.683 1.263-.955.241-1.862.396-2.721.396-1.37 0-2.614-.183-3.705-.56a8.609 8.609 0 0 1-2.72-1.457c-.704-.617-1.254-1.322-1.631-2.112-.357-.82-.55-1.64-.55-2.49V138.36c0-.377-.058-.705-.203-.965-.105-.26-.347-.492-.733-.714-.26-.145-.607-.232-1.041-.367a40.912 40.912 0 0 0-1.043-.154v-1.158h9.59v1.158a13.97 13.97 0 0 0-1.147.145 8.994 8.994 0 0 0-.994.231c-.396.145-.618.367-.743.656-.125.32-.212.618-.212 1.013v12.678c0 .608.106 1.245.212 1.92.135.695.405 1.303.8 1.901.415.598 1.014 1.08 1.718 1.467.734.375 1.727.54 3 .54 1.168 0 2.19-.165 2.972-.54.8-.387 1.448-.879 1.91-1.477.445-.617.763-1.206.956-1.852.154-.627.27-1.274.27-1.92v-9.436c0-1.187-.116-2.19-.261-2.933-.173-.772-.424-1.254-.771-1.486-.386-.28-.898-.492-1.544-.618a7.984 7.984 0 0 0-1.505-.289v-1.158h9.388zm32.515 12.678c-.26.01-.607.077-1.032.164a5.164 5.164 0 0 0-1.091.27c-.308.202-.53.434-.656.695a2.555 2.555 0 0 0-.221 1.041v1.786c0 1.302.009 2.18.009 2.634.029.462.068.81.078 1.128-1.43.637-2.876 1.168-4.294 1.476-1.438.358-2.827.541-4.197.541a11.29 11.29 0 0 1-4.255-.83c-1.35-.56-2.538-1.322-3.551-2.373-1.022-1.013-1.852-2.258-2.46-3.705-.598-1.515-.897-3.136-.897-4.969 0-1.756.28-3.367.868-4.853.598-1.486 1.39-2.789 2.44-3.908 1.034-1.08 2.269-1.91 3.677-2.537 1.428-.598 2.943-.888 4.564-.888 1.302 0 2.43.164 3.386.463.956.328 1.814.695 2.547 1.148l.666-1.119h1.303l.125 8.037h-1.321a19.859 19.859 0 0 0-.85-2.624 7.77 7.77 0 0 0-1.302-2.287 6.265 6.265 0 0 0-1.93-1.65c-.773-.405-1.66-.608-2.722-.608-1.166 0-2.17.251-3.096.734-.937.463-1.699 1.167-2.374 2.074-.655.897-1.176 2.036-1.524 3.377-.367 1.36-.55 2.837-.55 4.486 0 1.448.164 2.827.55 4.13.347 1.293.858 2.412 1.524 3.377.676.926 1.515 1.708 2.5 2.23 1.012.596 2.15.828 3.434.828.936 0 1.805-.125 2.606-.434.79-.28 1.34-.579 1.668-.897.078-.598.126-1.139.136-1.727v-2.71a3.72 3.72 0 0 0-.175-1.198c-.145-.376-.376-.636-.78-.79-.349-.155-.84-.29-1.449-.348-.626-.106-1.08-.164-1.426-.164v-1.177h10.071zm-5.982-20.84c-.308 1.736-.858 3.04-1.698 3.907-.85.868-2.026 1.302-3.454 1.302-1.447 0-2.585-.434-3.454-1.302-.868-.878-1.447-2.17-1.708-3.908l.878-.222c.328.975.81 1.747 1.467 2.23.646.55 1.573.82 2.817.82 1.197 0 2.17-.27 2.827-.82.646-.483 1.1-1.255 1.409-2.23zm39.451 8.162c-.299.02-.733.087-1.33.203a3.928 3.928 0 0 0-1.41.54c-.385.212-.626.752-.771 1.515-.145.8-.212 1.736-.212 2.855v10.006c0 1.264-.27 2.373-.801 3.33a6.48 6.48 0 0 1-2.074 2.305c-.87.607-1.747 1.031-2.721 1.263-.926.241-1.833.396-2.702.396-1.37 0-2.605-.183-3.695-.56-1.081-.347-1.988-.849-2.731-1.457-.723-.617-1.263-1.322-1.62-2.112a5.862 5.862 0 0 1-.55-2.49V138.36c0-.377-.077-.705-.213-.965-.106-.26-.357-.492-.743-.714-.251-.145-.607-.232-1.032-.367a30.723 30.723 0 0 0-1.052-.154v-1.158h9.58v1.158c-.288.02-.684.077-1.128.145-.463.087-.781.164-1.013.231a1.366 1.366 0 0 0-.743.656 3.015 3.015 0 0 0-.183 1.013v12.678c0 .608.077 1.245.203 1.92.144.695.395 1.303.79 1.901.435.598 1.014 1.08 1.737 1.467.715.375 1.727.54 2.99.54 1.179 0 2.192-.165 2.963-.54.82-.387 1.438-.879 1.92-1.477.435-.617.772-1.206.917-1.852a6.247 6.247 0 0 0 .319-1.92v-9.436c0-1.187-.116-2.19-.271-2.933-.164-.772-.424-1.254-.771-1.486-.377-.28-.898-.492-1.554-.618a7.863 7.863 0 0 0-1.486-.289v-1.158h9.388zm32.66 21.834h-6.203a134.065 134.065 0 0 0-3.725-5.557c-1.11-1.583-2.315-3.165-3.618-4.863h-2.315v7.332c0 .358.048.666.154.975.135.3.386.502.772.656.212.096.52.126 1.022.212.492.068.917.125 1.226.125v1.12h-9.716v-1.12c.26-.009.617-.067 1.128-.125.483-.067.84-.106 1.013-.212.328-.145.58-.328.724-.608.135-.289.222-.618.222-1.023v-16.662c0-.367-.077-.695-.184-.994-.125-.308-.357-.52-.762-.666-.25-.106-.598-.183-1.032-.279-.444-.058-.81-.107-1.11-.145v-1.158h10.594c.994 0 1.901.116 2.75.32.858.191 1.64.491 2.334.944a4.79 4.79 0 0 1 1.593 1.717c.405.666.607 1.525.607 2.52 0 .876-.135 1.65-.415 2.324a4.606 4.606 0 0 1-1.215 1.785c-.463.472-1.042.86-1.747 1.187a9.85 9.85 0 0 1-2.248.868 402.926 402.926 0 0 1 2.837 3.811c.762 1.013 1.68 2.267 2.78 3.753.452.646.887 1.12 1.282 1.41.357.327.762.577 1.138.78.28.135.628.232 1.061.29.425.106.753.163 1.052.163zm-8.548-17.135c0-1.35-.386-2.46-1.187-3.31-.792-.81-1.93-1.196-3.387-1.196h-2.74v9.86h2.093c1.505 0 2.74-.492 3.754-1.457.984-.926 1.466-2.228 1.466-3.897zm36.306 10.313l-.502 6.832H182.62v-1.13c.29-.009.636-.067 1.157-.125.483-.067.811-.106 1.004-.212.338-.145.56-.328.733-.608a2.49 2.49 0 0 0 .222-1.023v-16.488c0-.377-.087-.666-.183-.965-.144-.309-.385-.53-.771-.695a4.23 4.23 0 0 0-1.032-.366 5.097 5.097 0 0 0-1.13-.232v-1.158h9.726v1.158c-.28.02-.694.087-1.148.145-.492.144-.85.192-1.081.29a1.14 1.14 0 0 0-.752.655 2.65 2.65 0 0 0-.193.994v15.447c0 .723.048 1.264.106 1.66.048.424.232.694.482.916.242.193.628.338 1.11.386.51.048 1.196.096 2.074.096.425 0 .83-.019 1.255-.048a9.013 9.013 0 0 0 1.215-.115c.396-.059.763-.145 1.052-.27.338-.098.569-.27.695-.426.453-.52.984-1.244 1.582-2.276.569-.994.984-1.814 1.216-2.442zm31.395 6.822h-9.561v-1.12c.85-.057 1.553-.192 2.112-.337.541-.154.83-.347.83-.598 0-.116-.01-.213-.028-.367-.048-.144-.067-.24-.096-.376l-1.911-5.143h-8.075c-.28.743-.531 1.39-.714 1.988-.213.54-.386 1.071-.55 1.563-.116.444-.222.83-.29 1.11-.03.3-.057.54-.057.714 0 .434.328.79 1.003 1.013a9.597 9.597 0 0 0 2.296.433v1.12h-8.645v-1.12c.27-.009.617-.096 1.042-.22.434-.088.771-.213 1.051-.416.434-.25.762-.579.984-.887.241-.319.454-.763.714-1.303a585.5 585.5 0 0 0 3.821-9.764c1.39-3.58 2.634-6.783 3.714-9.57h1.303l7.69 19.797c.134.415.337.781.53 1.061.203.212.492.473.87.743.25.126.587.29.973.367.367.115.733.192.994.192zm-9.242-9.369l-3.483-8.915-3.435 8.915zm58.766-1.302a5.418 5.418 0 0 1 1.69 1.746c.434.743.666 1.65.666 2.682 0 1.071-.232 2.007-.705 2.78a5.444 5.444 0 0 1-1.795 1.948c-.733.512-1.553.868-2.47 1.138a9.817 9.817 0 0 1-2.827.387H265.7v-1.13c.27-.009.627-.077 1.14-.163.5-.058.838-.135 1.07-.25.328-.146.57-.349.703-.599.145-.26.203-.579.203-.956V138.36c0-.377-.039-.705-.164-.994-.135-.25-.386-.473-.742-.685-.319-.155-.696-.26-1.08-.376-.426-.058-.744-.116-1.005-.145v-1.158h10.604c.83 0 1.601.096 2.344.26.772.136 1.476.445 2.162.86.656.356 1.177.887 1.572 1.533.396.647.608 1.428.608 2.355 0 .81-.125 1.543-.434 2.17a5.084 5.084 0 0 1-1.226 1.65 8.067 8.067 0 0 1-1.708 1.1c-.636.261-1.33.492-2.083.656v.164c.665.05 1.408.251 2.2.482.82.232 1.533.638 2.17 1.091zm-3.906-3.483c.405-.483.666-.984.839-1.515a7.779 7.779 0 0 0 .232-1.968c0-1.283-.348-2.296-1.033-3.02-.694-.695-1.775-1.07-3.28-1.07-.328 0-.762.01-1.322.018-.492.02-.926.03-1.302.068v8.828h2.074c.878 0 1.63-.097 2.267-.328.647-.23 1.148-.569 1.525-1.013zm2.267 7.332c0-1.36-.453-2.489-1.39-3.367-.907-.878-2.21-1.322-3.917-1.322-.685 0-1.264.01-1.737.04-.482.018-.83.038-1.09.047v8.115c0 .666.308 1.177.84 1.533.569.338 1.322.493 2.325.493 1.602 0 2.818-.473 3.686-1.37.848-.956 1.282-2.364 1.282-4.169zm25.49 6.822h-10.333v-1.12c.28-.009.714-.057 1.235-.105.57-.068.964-.116 1.196-.193.328-.135.618-.358.743-.569.183-.232.251-.609.251-1.033v-16.653c0-.376-.068-.704-.155-.974-.125-.232-.386-.444-.839-.627-.348-.106-.753-.25-1.245-.348-.472-.125-.887-.174-1.186-.212v-1.158h10.333v1.158c-.318.02-.713.077-1.176.116-.463.087-.87.193-1.235.28a1.455 1.455 0 0 0-.85.617c-.097.31-.193.618-.193.994V154.8c0 .348.107.676.242.975.145.232.415.453.8.646.212.058.617.184 1.09.251.56.125.984.202 1.322.202zm-3.067-28.154c0 .608-.213 1.148-.637 1.621-.405.444-.878.666-1.505.666-.521 0-1.004-.222-1.41-.656-.396-.425-.608-.907-.608-1.496 0-.588.212-1.109.608-1.544.405-.434.888-.636 1.41-.636.627 0 1.129.202 1.515.627.414.396.627.878.627 1.418zm36.74 28.154h-6.165a172.078 172.078 0 0 0-3.705-5.557c-1.11-1.583-2.335-3.165-3.637-4.863h-2.364v7.332c0 .358.106.666.193.975.135.3.395.502.78.656.193.096.521.126.994.212.503.068.927.125 1.265.125v1.12h-9.764v-1.12c.28-.009.647-.067 1.148-.125.502-.067.82-.106 1.013-.212.357-.145.589-.328.705-.608.164-.289.22-.618.22-1.023v-16.662c0-.367-.056-.695-.133-.994-.136-.308-.358-.52-.792-.666-.222-.106-.627-.183-1.052-.279-.424-.058-.771-.107-1.11-.145v-1.158h10.634c.993 0 1.91.116 2.768.32.84.191 1.583.491 2.277.944a4.675 4.675 0 0 1 1.64 1.717c.386.666.588 1.525.588 2.52 0 .876-.114 1.65-.395 2.324a4.873 4.873 0 0 1-1.235 1.785c-.453.472-1.061.86-1.736 1.187-.656.356-1.428.656-2.24.868 1.15 1.524 2.047 2.788 2.848 3.811a217 217 0 0 0 2.74 3.753c.483.646.917 1.12 1.273 1.41.367.327.782.577 1.158.78a3.86 3.86 0 0 0 1.06.29c.416.106.754.163 1.024.163zm-8.52-17.135c0-1.35-.396-2.46-1.168-3.31-.8-.81-1.929-1.196-3.386-1.196h-2.798v9.86h2.142c1.524 0 2.75-.492 3.714-1.457 1.033-.926 1.496-2.228 1.496-3.897zm36.277 10.313l-.453 6.832h-18.014v-1.13c.261-.009.647-.067 1.13-.125.52-.067.84-.106 1.033-.212.347-.145.579-.328.704-.608.164-.289.212-.618.212-1.023v-16.488c0-.377-.048-.666-.154-.965-.126-.309-.367-.53-.762-.695a4.142 4.142 0 0 0-1.052-.366 4.844 4.844 0 0 0-1.11-.232v-1.158h9.745v1.158c-.308.02-.694.087-1.187.145-.501.144-.82.192-1.041.29a1.259 1.259 0 0 0-.782.655c-.106.3-.203.656-.203.994v15.447c0 .723.039 1.264.126 1.66.068.424.25.694.5.916.223.193.618.338 1.081.386.492.048 1.206.096 2.104.096.385 0 .791-.019 1.215-.048.435-.019.84-.048 1.245-.115a5.373 5.373 0 0 0 1.061-.27c.28-.098.56-.27.685-.426.444-.52.975-1.244 1.544-2.276.617-.994 1.032-1.814 1.254-2.442zm20.02 6.822h-10.332v-1.12c.28-.009.714-.057 1.264-.105.53-.068.936-.116 1.177-.193a1.82 1.82 0 0 0 .772-.569c.125-.232.232-.609.232-1.033v-16.653c0-.376-.087-.704-.174-.974-.135-.232-.386-.444-.83-.627-.347-.106-.743-.25-1.264-.348-.463-.125-.888-.174-1.177-.212v-1.158h10.333v1.158c-.3.02-.723.077-1.176.116-.454.087-.87.193-1.235.28-.415.125-.695.347-.801.617a2.373 2.373 0 0 0-.222.994V154.8c0 .348.086.676.24.975.126.232.435.453.783.646.23.058.607.184 1.109.251.54.125.965.202 1.302.202zm-3.096-28.154c0 .608-.202 1.148-.608 1.621a1.896 1.896 0 0 1-1.476.666c-.54 0-1.022-.222-1.418-.656-.416-.425-.638-.907-.638-1.496 0-.588.222-1.109.637-1.544a1.854 1.854 0 0 1 1.418-.636c.6 0 1.13.202 1.505.627.386.396.58.878.58 1.418zm36.693 28.154h-6.426a67.825 67.825 0 0 0-4.15-5.692 90.065 90.065 0 0 0-4.785-5.538h-.395v7.988c0 .386.067.685.183.974.145.281.377.492.763.695.164.048.463.155.945.242.454.134.849.211 1.197.211v1.12h-9.552v-1.12c.26-.009.608-.057 1.08-.105.483-.068.82-.116.994-.203.347-.125.579-.348.724-.618a2.56 2.56 0 0 0 .212-1.022V138.36c0-.377-.097-.695-.183-.975-.145-.27-.376-.482-.753-.665a7.979 7.979 0 0 0-1.013-.357c-.415-.116-.781-.165-1.061-.203v-1.158h9.552v1.158c-.328.02-.685.077-1.14.135-.482.097-.78.174-1.002.241a1.35 1.35 0 0 0-.782.656 3.267 3.267 0 0 0-.164 1.013v7.931h.328c.965-.82 1.93-1.679 2.846-2.566a31.618 31.618 0 0 0 2.576-2.692 24.658 24.658 0 0 0 1.882-2.335c.366-.569.55-1.119.55-1.582 0-.155-.058-.28-.261-.386a5.264 5.264 0 0 0-.694-.27c-.31-.058-.59-.068-.821-.097a8.79 8.79 0 0 1-.597-.048v-1.158h8.625v1.158s-.087.01-.212.02c-.087.018-.222.028-.367.057-.135 0-.29.01-.463.03-.126.028-.31.086-.55.125-.376.077-.791.231-1.206.414a2.945 2.945 0 0 0-.965.714c-1.12 1.264-2.296 2.557-3.483 3.927a69.912 69.912 0 0 1-3.608 3.705c1.669 1.843 3.029 3.435 4.1 4.776 1.08 1.322 2.2 2.77 3.425 4.293.483.58.936 1.043 1.38 1.38.444.386.868.617 1.206.82a3.4 3.4 0 0 0 1.023.29c.415.106.8.163 1.042.163zm31.192-11.327c0 1.958-.386 3.637-1.1 5.065-.772 1.447-1.698 2.605-2.895 3.541-1.167.936-2.499 1.601-3.985 2.046a15.846 15.846 0 0 1-4.583.675h-9.532v-1.12c.29 0 .694-.019 1.206-.096.531-.077.83-.125.984-.202.357-.135.59-.358.714-.628.135-.279.241-.597.241-1.022V138.36c0-.377-.106-.705-.193-1.013-.125-.27-.366-.502-.762-.666-.308-.193-.666-.289-1.09-.386-.376-.048-.685-.097-.965-.135v-1.158h10.045c1.35 0 2.74.212 4.08.637 1.352.425 2.47 1.042 3.503 1.727a10.178 10.178 0 0 1 3.185 3.792c.762 1.563 1.148 3.367 1.148 5.51zm-3.995-.01c0-1.553-.183-2.972-.598-4.197a9.445 9.445 0 0 0-1.824-3.27 7.464 7.464 0 0 0-2.72-2.075c-1.09-.51-2.316-.762-3.619-.762-.443 0-.955 0-1.524.02-.54.02-.955.02-1.245.038v17.646c0 1.004.32 1.69.86 2.055.607.367 1.476.56 2.662.56 1.39 0 2.547-.23 3.59-.704 1.041-.502 1.881-1.177 2.508-2.046a8.429 8.429 0 0 0 1.428-3.126c.347-1.206.482-2.605.482-4.139zm67.278-10.497a5.089 5.089 0 0 0-.868.222 3.661 3.661 0 0 0-.868.405c-.426.251-.696.453-.83.58-.136.173-.474.52-.898 1.1a60.544 60.544 0 0 0-2.316 3.646 215.727 215.727 0 0 0-2.7 4.631c-.377.695-.667 1.235-.764 1.66-.135.434-.202 1.07-.202 1.852v4.39c0 .376.067.705.251.994.154.308.424.54.791.714.231.087.627.183 1.196.3.608.134 1.071.22 1.428.22v1.13H498.85v-1.13c.318-.009.772-.077 1.361-.163.607-.039 1.042-.106 1.254-.222.424-.135.656-.367.84-.656.125-.26.211-.627.211-1.033v-5.576c0-.174-.125-.502-.309-.975-.22-.463-.492-.926-.752-1.524a195.99 195.99 0 0 0-2.17-4.062c-.81-1.438-1.496-2.72-2.056-3.753-.347-.608-.665-1.09-.974-1.37a4.05 4.05 0 0 0-.907-.859c-.26-.155-.608-.25-.956-.376a37.914 37.914 0 0 0-.964-.145v-1.158h9.773v1.158c-1.08.038-1.852.087-2.296.232-.482.115-.694.29-.694.54 0 .077.038.183.115.357.058.154.145.357.261.607.154.29.318.6.482.956.184.376.386.704.58 1.071.482.926 1.023 1.901 1.544 2.836.53.975 1.216 2.2 2.074 3.734 1.679-2.7 2.962-4.833 3.878-6.348.898-1.544 1.342-2.47 1.342-2.779a.683.683 0 0 0-.3-.579 1.429 1.429 0 0 0-.695-.338 3.981 3.981 0 0 0-1.07-.202c-.319 0-.657-.039-.975-.087v-1.158h7.96zm19.19 21.834h-10.343v-1.12c.261-.009.666-.057 1.254-.105.521-.068.917-.116 1.14-.193.385-.135.646-.358.79-.569.165-.232.252-.609.252-1.033v-16.653c0-.376-.048-.704-.184-.974-.115-.232-.424-.444-.858-.627-.3-.106-.705-.25-1.206-.348-.521-.125-.917-.174-1.187-.212v-1.158h10.343v1.158c-.357.02-.762.077-1.226.116-.433.087-.868.193-1.196.28-.405.125-.704.347-.82.617-.154.31-.212.618-.212.994V154.8c0 .348.058.676.24.975.164.232.424.453.791.646.242.058.57.184 1.12.251.512.125.946.202 1.303.202zm-3.125-28.154a2.44 2.44 0 0 1-.58 1.621 1.95 1.95 0 0 1-1.495.666c-.579 0-1.033-.222-1.458-.656-.423-.425-.606-.907-.606-1.496 0-.588.183-1.109.607-1.544.425-.434.879-.636 1.458-.636.607 0 1.119.202 1.504.627.396.396.57.878.57 1.418zm36.72 28.154h-6.455a67.51 67.51 0 0 0-4.129-5.692c-1.524-1.93-3.136-3.754-4.776-5.538h-.415v7.988c0 .386.058.685.193.974.126.281.357.492.733.695.184.048.473.155.975.242.473.134.85.211 1.177.211v1.12h-9.532v-1.12c.212-.009.588-.057 1.08-.105.444-.068.801-.116.984-.203.32-.125.54-.348.714-.618.136-.279.213-.597.213-1.022V138.36c0-.377-.067-.695-.173-.975-.155-.27-.386-.482-.753-.665a8.216 8.216 0 0 0-1.023-.357c-.395-.116-.781-.165-1.041-.203v-1.158h9.531v1.158c-.318.02-.676.077-1.138.135-.454.097-.8.174-1.014.241-.385.145-.636.367-.733.656a2.439 2.439 0 0 0-.193 1.013v7.931h.29c1.013-.82 1.94-1.679 2.865-2.566a28.898 28.898 0 0 0 2.567-2.692c.85-.955 1.495-1.766 1.9-2.335.386-.569.58-1.119.58-1.582 0-.155-.117-.28-.319-.386-.203-.106-.434-.183-.666-.27-.299-.058-.598-.068-.839-.097a5.181 5.181 0 0 1-.55-.048v-1.158h8.596v1.158c-.028 0-.077.01-.202.02-.087.018-.24.028-.348.057-.144 0-.338.01-.463.03-.144.028-.347.086-.578.125-.406.077-.792.231-1.207.414-.366.184-.714.425-.965.714-1.118 1.264-2.296 2.557-3.473 3.927-1.245 1.331-2.402 2.566-3.628 3.705a107.602 107.602 0 0 1 4.091 4.776c1.09 1.322 2.2 2.77 3.455 4.293.453.58.887 1.043 1.34 1.38.473.386.87.617 1.245.82.26.135.619.232 1.053.29.405.106.723.163 1.032.163zm12.206-1.843c0 .598-.212 1.138-.646 1.544a2.213 2.213 0 0 1-1.573.646 2.208 2.208 0 0 1-1.592-.646 2.103 2.103 0 0 1-.656-1.544c0-.589.232-1.138.656-1.573a2.218 2.218 0 0 1 1.592-.656c.579 0 1.129.222 1.573.656.434.435.646.984.646 1.573zm-.135-19.537c0 .501-.212 2.344-.55 5.441-.347 3.097-.666 6.078-.965 8.953h-1.254c-.241-2.875-.511-5.856-.898-8.953-.308-3.097-.482-4.94-.482-5.44 0-.619.193-1.14.589-1.564.357-.425.878-.637 1.476-.637.579 0 1.1.212 1.476.627.386.405.608.936.608 1.573zm-98.857 18.582c-2.094 2.21-4.728 3.32-7.96 3.32-3.223 0-5.847-1.11-7.882-3.339-2.104-2.21-3.126-4.902-3.126-8.076 0-.212.039-.54.087-.955h17.985c-.058-1.486-.183-2.876-.531-4.09-.347-1.342-.868-2.48-1.534-3.378a6.563 6.563 0 0 0-2.374-2.074c-.868-.483-1.948-.734-3.077-.734-1.062 0-1.96.203-2.76.608a7.338 7.338 0 0 0-1.94 1.65 11.199 11.199 0 0 0-1.292 2.287 27.493 27.493 0 0 0-.82 2.624h-1.351l.155-8.037h1.302l.666 1.1c.743-.434 1.563-.8 2.557-1.139.926-.289 2.055-.453 3.357-.453 1.65 0 3.165.29 4.593.888 1.418.627 2.643 1.457 3.647 2.537a11.924 11.924 0 0 1 2.479 3.908c.54 1.486.859 3.097.859 4.853 0 3.396-.993 6.33-3.04 8.5zm-.685-7.863h-14.54c0 2.412.58 4.592 1.814 6.541 1.37 2.267 3.213 3.415 5.451 3.415 2.287 0 4.13-1.148 5.49-3.415 1.197-1.939 1.786-4.12 1.786-6.54z"/></g></g></svg>