<?xml version="1.0" encoding="utf-8"?>
<!-- Generator: Adobe Illustrator 22.0.1, SVG Export Plug-In . SVG Version: 6.00 Build 0)  -->
<svg version="1.1" id="Layer_1" xmlns="http://www.w3.org/2000/svg" xmlns:xlink="http://www.w3.org/1999/xlink" x="0px" y="0px"
	 viewBox="0 0 468 112" style="enable-background:new 0 0 468 112;" xml:space="preserve">
<style type="text/css">
	.st0{fill:#0047BA;}
</style>
<g>
	<g>
		<g>
			<path class="st0" d="M141.2,28.8l-8.9,20.9h4.5l1.9-4.7h9l1.9,4.7h4.6l-8.9-20.9H141.2z M140.3,41.1l2.9-7l2.9,7H140.3z"/>
			<polygon class="st0" points="158.1,32.8 169.3,32.8 157.8,46.4 157.8,49.7 175,49.7 175,45.9 163.4,45.9 175,32.3 175,29 
				158.1,29 			"/>
			<path class="st0" d="M187.9,28.6c-4.1,0-6.9,1.6-8.8,3.8l2.8,2.8c1.7-1.8,3.5-2.7,6-2.7c2.9,0,5.1,1.7,5.8,4.8h-15.6
				c0,0.5-0.1,0.8-0.1,1.4v0.1c0,5.9,3.3,11.2,10.1,11.2c6,0,10.3-4.8,10.3-10.7v-0.1C198.5,33,193.9,28.6,187.9,28.6z M188.2,46.1
				c-3.1,0-5-2.1-5.4-5h11C193.2,44.1,191.1,46.1,188.2,46.1z"/>
			<path class="st0" d="M219.8,35.8L219.8,35.8c0-2-0.6-3.6-1.7-4.7c-1.4-1.4-3.4-2.1-6-2.1h-9.4v20.7h4.4V43h3.8l4.6,6.8h5.1
				l-5.2-7.5C217.9,41.3,219.8,39.2,219.8,35.8z M211.7,39.1H207v-6.2h4.7c2.3,0,3.7,1.1,3.7,3.1v0.1
				C215.4,37.9,214,39.1,211.7,39.1z"/>
			<path class="st0" d="M238.3,38.9c1.5-0.8,2.8-2.1,2.8-4.5v-0.1c0-1.4-0.5-2.6-1.4-3.5c-1.2-1.2-3.1-1.8-5.4-1.8h-9.5v20.7h9.8
				c4.7,0,7.7-1.9,7.7-5.7V44C242.3,41.2,240.7,39.8,238.3,38.9z M229,32.8h4.7c2,0,3.1,0.8,3.1,2.2v0.1c0,1.6-1.3,2.3-3.4,2.3H229
				L229,32.8L229,32.8z M237.9,43.5c0,1.6-1.3,2.4-3.4,2.4H229v-4.8h5.4C236.8,41.1,237.9,42,237.9,43.5L237.9,43.5z"/>
			<path class="st0" d="M254.1,28.8l-8.9,20.9h4.5l1.9-4.7h9l1.9,4.7h4.6l-8.9-20.9H254.1z M253.2,41.1l2.9-7l2.9,7H253.2z"/>
			<polygon class="st0" points="274.6,37.5 269.5,29 264.3,29 272.3,41.5 272.3,49.7 276.7,49.7 276.7,41.5 284.8,29 279.8,29 			
				"/>
			<path class="st0" d="M296.1,46c-3.6,0-6.2-3.1-6.2-6.7v-0.1c0-3.6,2.6-6.6,6.2-6.6c2.1,0,3.8,0.9,5.4,2.4l2.8-3.2
				c-1.9-1.9-4.3-3.2-8.2-3.2c-6.4,0-10.8,4.8-10.8,10.7v0.1c0,5.9,4.5,10.6,10.6,10.6c4,0,6.4-1.4,8.5-3.7l-2.8-2.8
				C300,45.1,298.5,46,296.1,46z"/>
			<path class="st0" d="M316,28.8L307,49.7h4.5l1.9-4.7h9l1.9,4.7h4.6L320,28.8H316z M315,41.1l2.9-7l2.9,7H315z"/>
			<polygon class="st0" points="346.4,29 346.4,42.1 336.5,29 332.4,29 332.4,49.7 336.7,49.7 336.7,36.2 347,49.7 350.8,49.7 
				350.8,29 			"/>
		</g>
		<g>
			<g>
				<path class="st0" d="M147,71.7c1.5-0.8,2.8-2.2,2.8-4.6v-0.1c0-1.4-0.5-2.6-1.4-3.6c-1.2-1.2-3.1-1.8-5.5-1.8h-9.7v21h9.9
					c4.7,0,7.9-1.9,7.9-5.8v-0.1C151,74,149.5,72.6,147,71.7z M137.5,65.5h4.7c2,0,3.1,0.8,3.1,2.3v0.1c0,1.7-1.3,2.4-3.4,2.4h-4.4
					V65.5z M146.6,76.4c0,1.6-1.3,2.4-3.4,2.4h-5.6v-4.9h5.5C145.5,73.9,146.6,74.8,146.6,76.4L146.6,76.4L146.6,76.4z"/>
				<polygon class="st0" points="159.2,74.1 169.2,74.1 169.2,70.1 159.2,70.1 159.2,65.6 170.6,65.6 170.6,61.6 154.8,61.6 
					154.8,82.7 170.7,82.7 170.7,78.7 159.2,78.7 				"/>
				<polygon class="st0" points="184.2,70.2 179,61.6 173.8,61.6 181.9,74.4 181.9,82.7 186.4,82.7 186.4,74.3 194.5,61.6 
					189.5,61.6 				"/>
				<polygon class="st0" points="212.5,74.9 202.4,61.6 198.3,61.6 198.3,82.7 202.7,82.7 202.7,69 213.1,82.7 216.9,82.7 
					216.9,61.6 212.5,61.6 				"/>
				<path class="st0" d="M231.3,61.3c-4.1,0-7,1.6-8.9,3.9l2.8,2.9c1.8-1.8,3.5-2.7,6.1-2.7c2.9,0,5.2,1.7,5.9,4.9h-15.8
					c0,0.5-0.1,0.8-0.1,1.4v0.1c0,6,3.3,11.3,10.3,11.3c6.1,0,10.5-4.9,10.5-10.9v-0.1C242,65.7,237.3,61.3,231.3,61.3z M231.6,79
					c-3.1,0-5.1-2.2-5.5-5.1h11.1C236.6,77,234.6,79,231.6,79z"/>
				<polygon class="st0" points="250.8,61.6 246.4,61.6 246.4,82.7 261.4,82.7 261.4,78.6 250.8,78.6 				"/>
				<polygon class="st0" points="284.3,61.6 279.2,61.6 274.6,68.6 270,61.6 264.8,61.6 271.9,72 264.5,82.7 269.6,82.7 274.5,75.3 
					279.4,82.7 284.6,82.7 277.2,71.9 				"/>
				<path class="st0" d="M296.7,61.5l-9.1,21.2h4.5l2-4.8h9.1l2,4.8h4.7l-9-21.2C300.8,61.5,296.7,61.5,296.7,61.5z M295.8,73.9
					l3-7.1l2.9,7.1H295.8z"/>
				<polygon class="st0" points="318,61.6 313.6,61.6 313.6,82.7 328.6,82.7 328.6,78.6 318,78.6 				"/>
				<path class="st0" d="M351.9,72.2L351.9,72.2c0-6-4.7-10.9-11.1-10.9c-6.5,0-11.2,4.9-11.2,10.9v0.1c0,6,4.7,10.8,11.1,10.8
					c2.4,0,4.5-0.7,6.3-1.9l2.4,2.1l2.8-3.1l-2.2-1.9C351.3,76.5,351.9,74.4,351.9,72.2z M347.3,72.2c0,1.1-0.2,2.2-0.7,3.1
					l-3.5-3.2l-2.8,3.2l3.5,3c-0.9,0.4-1.9,0.6-3,0.6c-3.8,0-6.5-3.1-6.5-6.8v-0.1c0-3.7,2.7-6.7,6.5-6.7S347.3,68.5,347.3,72.2
					L347.3,72.2z"/>
			</g>
			<g>
				<path class="st0" d="M379.4,71.7c1.5-0.8,2.8-2.2,2.8-4.6v-0.1c0-1.4-0.5-2.6-1.4-3.6c-1.2-1.2-3.1-1.8-5.5-1.8h-9.7v21h9.9
					c4.7,0,7.9-1.9,7.9-5.8v-0.1C383.4,74,381.8,72.6,379.4,71.7z M369.9,65.5h4.7c2,0,3.1,0.8,3.1,2.3v0.1c0,1.7-1.3,2.4-3.4,2.4
					h-4.5L369.9,65.5L369.9,65.5z M379,76.4c0,1.6-1.3,2.4-3.4,2.4h-5.6v-4.9h5.5C377.8,73.9,379,74.8,379,76.4L379,76.4L379,76.4z"
					/>
				<path class="st0" d="M394.7,61.5l-9.1,21.2h4.5l2-4.8h9.1l2,4.8h4.7l-9-21.2C398.8,61.5,394.7,61.5,394.7,61.5z M393.7,73.9
					l3-7.1l3,7.1H393.7z"/>
				<polygon class="st0" points="425.6,74.9 415.5,61.6 411.4,61.6 411.4,82.7 415.8,82.7 415.8,69 426.2,82.7 430,82.7 430,61.6 
					425.6,61.6 				"/>
				<polygon class="st0" points="454,61.6 448.6,61.6 439.8,71.1 439.8,61.6 435.4,61.6 435.4,82.7 439.8,82.7 439.8,76.3 
					442.4,73.6 449.1,82.7 454.4,82.7 445.4,70.6 				"/>
				<rect x="457.7" y="61.6" class="st0" width="4.5" height="21"/>
			</g>
		</g>
		<g>
			<g>
				<path class="st0" d="M31.9,35.7c0.4,2.5,1.1,4.9,1.9,7.2c2.3-0.7,4.6-1.2,7-1.4l3.1-0.3l0.3-3.1c0.9-9.7,6-18.7,14.5-25.7
					c2.1,1.7,4,3.6,5.7,5.6c2.4-1.1,4.9-1.9,7.5-2.6c-3-3.9-6.7-7.6-11-10.7l-2.2-1.6l-2.2,1.6c-10.6,7.7-17.4,18.2-19.3,29.7
					C35.4,34.7,33.6,35.2,31.9,35.7z M25.4,60.5c2.1,1.5,4.2,2.8,6.5,3.7c1.1-2.1,2.4-4.1,3.9-5.9l2-2.4l-2-2.4
					c-6.2-7.5-9-17.5-7.9-28.4c2.7-0.3,5.4-0.3,7.9-0.1c0.9-2.4,2.1-4.8,3.4-7.1c-4.9-0.7-10-0.6-15.3,0.2l-2.7,0.4l-0.4,2.7
					c-2,13,0.6,25.2,7.4,34.7C27.2,57.4,26.3,59,25.4,60.5z M54.1,22.7c-1.5,2.1-2.8,4.2-3.7,6.5c2.1,1.1,4.1,2.4,5.9,3.9l2.4,2
					l2.4-2c7.5-6.2,17.5-9,28.4-7.9c0.3,2.7,0.3,5.4,0.1,7.9c2.5,0.9,4.8,2.1,7.1,3.4c0.7-4.9,0.6-10-0.2-15.3l-0.4-2.7l-2.7-0.4
					c-13-2-25.2,0.6-34.7,7.4C57.2,24.5,55.7,23.6,54.1,22.7z M38.4,82.7c2.5-0.4,4.9-1.1,7.2-1.9c-0.7-2.3-1.2-4.6-1.4-7l-0.3-3.1
					l-3.1-0.3c-9.7-0.9-18.7-6-25.7-14.5c1.7-2.1,3.6-4,5.6-5.7c-1.1-2.4-1.9-4.9-2.6-7.5c-3.9,3-7.5,6.7-10.7,11L5.8,56l1.6,2.2
					c7.7,10.6,18.2,17.4,29.7,19.3C37.5,79.3,37.9,81,38.4,82.7z M91.9,51.4c-2.1-1.5-4.2-2.8-6.5-3.7c-1.1,2.1-2.4,4.1-3.9,5.9
					l-2,2.4l2,2.4c6.2,7.5,9,17.5,7.9,28.4c-2.7,0.3-5.4,0.3-7.9,0.1c-0.9,2.5-2.1,4.8-3.4,7.1c4.9,0.7,10,0.6,15.3-0.2l2.7-0.4
					l0.4-2.7c2-13-0.6-25.2-7.4-34.7C90.2,54.5,91.1,53,91.9,51.4z M109.9,53.8c-7.7-10.6-18.2-17.4-29.7-19.3
					c-0.3-1.8-0.7-3.5-1.2-5.2c-2.5,0.4-4.9,1.1-7.2,1.9c0.7,2.3,1.2,4.6,1.4,7l0.3,3.1l3.1,0.3c9.7,0.9,18.7,6,25.7,14.5
					c-1.7,2.1-3.6,4-5.6,5.7c1.1,2.4,1.9,4.9,2.6,7.5c3.9-3,7.6-6.7,10.7-11l1.6-2.2L109.9,53.8z M85.4,76.3
					c-0.4-2.5-1.1-4.9-1.9-7.2c-2.3,0.7-4.6,1.2-7,1.4l-3.1,0.3l-0.3,3.1c-0.9,9.7-6,18.7-14.5,25.7c-2.1-1.7-4-3.6-5.7-5.6
					c-2.4,1.1-4.9,1.9-7.5,2.6c3,3.9,6.7,7.6,11,10.7l2.2,1.6l2.2-1.6C71.5,99.5,78.3,89,80.2,77.5C82,77.2,83.7,76.8,85.4,76.3z
					 M63.2,89.2c1.5-2.1,2.8-4.2,3.7-6.5c-2.1-1.1-4.1-2.4-5.9-3.9l-2.4-2l-2.4,2c-7.5,6.2-17.5,9-28.4,7.9
					c-0.3-2.7-0.3-5.4-0.1-7.9c-2.4-0.9-4.8-2.1-7.1-3.4c-0.7,4.9-0.6,10,0.2,15.3l0.4,2.7l2.7,0.4c13,2,25.2-0.6,34.7-7.4
					C60.1,87.5,61.7,88.4,63.2,89.2z"/>
			</g>
		</g>
	</g>
</g>
</svg>
